<?xml version="1.0" encoding="utf-8"?>
<!-- Generator: Adobe Illustrator 27.5.0, SVG Export Plug-In . SVG Version: 6.00 Build 0)  -->
<svg version="1.1" id="レイヤー_1" xmlns="http://www.w3.org/2000/svg" xmlns:xlink="http://www.w3.org/1999/xlink" x="0px"
	 y="0px" width="470px" height="90px" viewBox="0 0 470 90" style="enable-background:new 0 0 470 90;" xml:space="preserve">
<style type="text/css">
	.st0{fill:#FFFFFF;}
	.st1{fill:#00AA32;}
</style>
<g>
	<path class="st0" d="M460,90H10C4.5,90,0,85.5,0,80V10C0,4.5,4.5,0,10,0h450c5.5,0,10,4.5,10,10v70C470,85.5,465.5,90,460,90z"/>
	<g>
		<g>
			<path class="st1" d="M39.8,40.6h3.5V46h2.5v2.8h-2.5v10.4c0,0.9,0.4,1.3,1.2,1.3h1.3v3.4H44c-1.2,0-2.2-0.4-3-1.2
				c-0.8-0.7-1.2-1.8-1.2-3.2V48.8h-1.7V46h1.7V40.6z"/>
			<path class="st1" d="M55.1,56.3c0,1.4,0.4,2.5,1.2,3.3c0.7,0.8,1.7,1.1,2.9,1.1c1.4,0,2.7-0.6,3.8-1.7l2.5,2.2
				c-1.8,1.9-3.8,2.9-6.2,2.9c-0.9,0-1.8-0.1-2.7-0.4c-0.4-0.1-0.9-0.3-1.3-0.6c-0.4-0.2-0.8-0.5-1.2-0.8c-0.7-0.7-1.3-1.6-1.8-2.8
				c-0.5-1.1-0.7-2.6-0.7-4.5c0-1.8,0.2-3.2,0.6-4.4c0.4-1.2,1-2.1,1.7-2.8c0.7-0.7,1.5-1.2,2.3-1.5c0.8-0.3,1.7-0.5,2.5-0.5
				c2,0,3.6,0.7,5,2c1.4,1.3,2.1,3.2,2.1,5.5v3H55.1z M62.4,53.4c0-1.4-0.4-2.4-1.1-3.2c-0.7-0.7-1.5-1-2.6-1s-1.9,0.3-2.6,1
				c-0.7,0.7-1,1.8-1.1,3.2H62.4z"/>
			<path class="st1" d="M73.1,38.8h3.5v20.5c0,0.8,0.4,1.2,1.3,1.2h1.2v3.4h-1.5c-1.3,0-2.3-0.3-3.1-1c-0.9-0.7-1.3-1.8-1.3-3.3
				V38.8z"/>
			<path class="st1" d="M86.3,60.3h3.5v3.6h-3.5V60.3z"/>
			<path class="st1" d="M107.1,39.3c0-3.3,1.1-5.8,3.1-7.6c1.9-1.8,4.1-2.6,6.8-2.6c2.7,0,5,0.9,6.9,2.7c1.9,1.8,2.9,4.3,3,7.6v15.8
				c-0.1,3.3-1.1,5.8-3,7.6c-1.9,1.8-4.2,2.7-6.9,2.7c-2.6,0-4.9-0.9-6.8-2.7c-2-1.8-3-4.3-3.1-7.6V39.3z M121.8,39.6
				c-0.1-3.6-1.7-5.4-4.9-5.5c-3.2,0.1-4.8,1.9-4.9,5.5v15.2c0.1,3.6,1.7,5.5,4.9,5.5c3.2,0,4.8-1.9,4.9-5.5V39.6z"/>
			<path class="st1" d="M140.1,65.1c0,0,0.1-0.3,0.4-0.9s0.7-1.4,1.2-2.3c0.5-0.9,1-2,1.6-3.2c0.6-1.2,1.2-2.3,1.7-3.4
				c0.6-1.1,1.1-2.2,1.6-3.1c0.5-0.9,0.9-1.7,1.2-2.2c-0.5,0.3-1,0.4-1.6,0.5c-0.6,0.1-1.3,0.1-2.1,0c-1.1,0-2-0.2-2.8-0.6
				c-0.8-0.4-1.5-0.8-2.1-1.4c-0.6-0.5-1.1-1.1-1.5-1.8s-0.7-1.3-0.9-1.9c-0.2-0.6-0.4-1.2-0.5-1.8c-0.1-0.5-0.2-1-0.2-1.3
				c0-0.1,0-0.3,0-0.5c0-0.3,0-0.6,0-0.9c0-0.3,0-0.6,0-1c0-0.3,0-0.6,0.1-0.8c0-0.1,0.1-0.4,0.2-0.9c0.1-0.5,0.3-1,0.5-1.7
				c0.2-0.7,0.6-1.4,1-2.1c0.4-0.7,1-1.4,1.7-2.1c0.7-0.7,1.6-1.2,2.6-1.7c1-0.5,2.3-0.8,3.7-0.9c1.5-0.1,2.8,0,3.9,0.3
				s2.1,0.8,2.9,1.4c0.8,0.6,1.5,1.3,2,2.1s1,1.6,1.3,2.4c0.3,0.8,0.5,1.6,0.6,2.4c0.1,0.8,0.1,1.4,0,2c-0.1,0.8-0.2,1.5-0.3,2.1
				c-0.1,0.6-0.2,1.2-0.4,1.8c-0.2,0.6-0.3,1.1-0.5,1.7c-0.2,0.6-0.4,1.2-0.7,1.8c-0.1,0.2-0.2,0.6-0.5,1.2
				c-0.3,0.6-0.6,1.3-1.1,2.2c-0.4,0.9-0.9,1.9-1.4,2.9c-0.5,1.1-1,2.2-1.6,3.2c-1.3,2.6-2.7,5.4-4.2,8.5H140.1z M141.2,39.2
				c0,0.6,0,1.3,0.1,2.1c0.1,0.8,0.3,1.5,0.6,2.2c0.3,0.7,0.8,1.3,1.5,1.7c0.7,0.5,1.7,0.8,2.9,0.8c0.6,0,1.2,0,1.7-0.2
				c0.5-0.2,1-0.4,1.4-0.7s0.7-0.7,1-1.1c0.3-0.4,0.5-0.8,0.7-1.2c0.2-0.4,0.3-0.7,0.4-1.1c0.1-0.3,0.1-0.6,0.1-0.8
				c0-0.4,0-0.9,0-1.4c0-0.5-0.1-1-0.1-1.5c-0.1-0.5-0.2-1-0.5-1.5c-0.2-0.5-0.5-0.9-0.9-1.3c-0.4-0.4-0.9-0.6-1.5-0.8
				c-0.6-0.2-1.4-0.3-2.3-0.2c-1,0-1.8,0.3-2.5,0.8c-0.6,0.5-1.2,1-1.5,1.5c-0.4,0.6-0.6,1.1-0.8,1.6
				C141.3,38.6,141.2,39,141.2,39.2z"/>
			<path class="st1" d="M181,28.9c0,0-0.1,0.2-0.2,0.5c-0.2,0.4-0.4,0.8-0.7,1.4c-0.3,0.6-0.6,1.3-1,2.1s-0.8,1.6-1.2,2.5
				s-0.9,1.7-1.3,2.6s-0.9,1.7-1.3,2.5c-0.4,0.8-0.8,1.5-1.1,2.2c-0.3,0.7-0.6,1.2-0.9,1.6c0.5-0.3,1-0.4,1.6-0.5
				c0.6-0.1,1.3-0.1,2.1,0c1.1,0,2.1,0.2,3,0.6c0.8,0.4,1.6,0.8,2.2,1.4c0.6,0.5,1.1,1.1,1.5,1.8s0.7,1.3,0.9,1.9
				c0.2,0.6,0.4,1.2,0.5,1.8c0.1,0.5,0.1,1,0.1,1.3c0,0.1,0,0.3,0,0.5c0,0.3,0,0.6,0,0.9s0,0.6,0,1c0,0.3,0,0.6,0,0.8
				c0,0.1-0.1,0.4-0.2,0.9s-0.3,1.1-0.5,1.7c-0.2,0.7-0.6,1.4-1,2.1c-0.4,0.8-1,1.5-1.7,2.2c-0.7,0.7-1.6,1.3-2.6,1.8
				s-2.3,0.8-3.7,0.9c-1.5,0.1-2.8,0-4-0.3c-1.1-0.3-2.1-0.8-3-1.4c-0.8-0.6-1.5-1.3-2.1-2.1c-0.6-0.8-1-1.6-1.3-2.4
				s-0.5-1.6-0.6-2.4c-0.1-0.8-0.1-1.4-0.1-2c0.1-0.8,0.2-1.5,0.3-2.1c0.1-0.6,0.2-1.2,0.4-1.8c0.2-0.6,0.3-1.1,0.5-1.7
				c0.2-0.6,0.4-1.2,0.7-1.8c0.1-0.2,0.2-0.6,0.5-1.2c0.3-0.6,0.7-1.4,1.1-2.3c0.4-0.9,0.9-1.9,1.5-3s1.1-2.2,1.6-3.3
				c1.3-2.6,2.7-5.5,4.3-8.7H181z M179.9,55.1c0-0.6,0-1.3-0.1-2.1c0-0.8-0.2-1.5-0.6-2.1s-0.8-1.3-1.6-1.8s-1.7-0.8-3.1-0.9
				c-0.6,0-1.2,0-1.7,0.2c-0.5,0.2-1,0.4-1.4,0.7c-0.4,0.3-0.7,0.7-1,1.1s-0.5,0.8-0.7,1.2c-0.2,0.4-0.3,0.8-0.4,1.1
				c-0.1,0.3-0.1,0.6-0.1,0.8c0,0.4,0,0.9,0,1.4c0,0.5,0.1,1,0.2,1.5c0.1,0.5,0.2,1,0.5,1.4s0.5,0.9,0.9,1.2
				c0.4,0.4,0.9,0.7,1.5,0.9s1.4,0.3,2.3,0.3c0.7,0,1.4-0.1,1.9-0.3s1-0.5,1.4-0.8s0.7-0.7,0.9-1.1c0.2-0.4,0.4-0.8,0.6-1.2
				c0.1-0.4,0.2-0.7,0.3-1C179.9,55.5,179.9,55.3,179.9,55.1z"/>
			<path class="st1" d="M196.1,65.1c0,0,0.1-0.3,0.4-0.9s0.7-1.4,1.2-2.3c0.5-0.9,1-2,1.6-3.2c0.6-1.2,1.2-2.3,1.7-3.4
				c0.6-1.1,1.1-2.2,1.6-3.1c0.5-0.9,0.9-1.7,1.2-2.2c-0.5,0.3-1,0.4-1.6,0.5c-0.6,0.1-1.3,0.1-2.1,0c-1.1,0-2-0.2-2.8-0.6
				c-0.8-0.4-1.5-0.8-2.1-1.4c-0.6-0.5-1.1-1.1-1.5-1.8s-0.7-1.3-0.9-1.9c-0.2-0.6-0.4-1.2-0.5-1.8c-0.1-0.5-0.2-1-0.2-1.3
				c0-0.1,0-0.3,0-0.5c0-0.3,0-0.6,0-0.9c0-0.3,0-0.6,0-1c0-0.3,0-0.6,0.1-0.8c0-0.1,0.1-0.4,0.2-0.9c0.1-0.5,0.3-1,0.5-1.7
				c0.2-0.7,0.6-1.4,1-2.1c0.4-0.7,1-1.4,1.7-2.1c0.7-0.7,1.6-1.2,2.6-1.7c1-0.5,2.3-0.8,3.7-0.9c1.5-0.1,2.8,0,3.9,0.3
				s2.1,0.8,2.9,1.4c0.8,0.6,1.5,1.3,2,2.1s1,1.6,1.3,2.4c0.3,0.8,0.5,1.6,0.6,2.4c0.1,0.8,0.1,1.4,0,2c-0.1,0.8-0.2,1.5-0.3,2.1
				c-0.1,0.6-0.2,1.2-0.4,1.8c-0.2,0.6-0.3,1.1-0.5,1.7c-0.2,0.6-0.4,1.2-0.7,1.8c-0.1,0.2-0.2,0.6-0.5,1.2
				c-0.3,0.6-0.6,1.3-1.1,2.2c-0.4,0.9-0.9,1.9-1.4,2.9c-0.5,1.1-1,2.2-1.6,3.2c-1.3,2.6-2.7,5.4-4.2,8.5H196.1z M197.2,39.2
				c0,0.6,0,1.3,0.1,2.1c0.1,0.8,0.3,1.5,0.6,2.2c0.3,0.7,0.8,1.3,1.5,1.7c0.7,0.5,1.7,0.8,2.9,0.8c0.6,0,1.2,0,1.7-0.2
				c0.5-0.2,1-0.4,1.4-0.7s0.7-0.7,1-1.1c0.3-0.4,0.5-0.8,0.7-1.2c0.2-0.4,0.3-0.7,0.4-1.1c0.1-0.3,0.1-0.6,0.1-0.8
				c0-0.4,0-0.9,0-1.4c0-0.5-0.1-1-0.1-1.5c-0.1-0.5-0.2-1-0.5-1.5c-0.2-0.5-0.5-0.9-0.9-1.3c-0.4-0.4-0.9-0.6-1.5-0.8
				c-0.6-0.2-1.4-0.3-2.3-0.2c-1,0-1.8,0.3-2.5,0.8c-0.6,0.5-1.2,1-1.5,1.5c-0.4,0.6-0.6,1.1-0.8,1.6
				C197.3,38.6,197.2,39,197.2,39.2z"/>
			<path class="st1" d="M221.5,48.6h14.6v5.1h-14.6V48.6z"/>
			<path class="st1" d="M243.9,60.3l13.6-17.5c0.5-0.7,0.9-1.4,1.1-2c0.1-0.6,0.2-1.1,0.2-1.6c0-1.3-0.4-2.5-1.2-3.5
				c-0.8-1-2-1.5-3.6-1.6c-1.4,0-2.5,0.5-3.4,1.4c-0.9,0.9-1.5,2.2-1.7,3.8h-5c0.1-3,1.1-5.4,2.9-7.4c1.8-1.9,4.1-2.9,6.7-2.9
				c3,0,5.4,1,7.3,3c1.9,1.9,2.9,4.4,2.9,7.3c0,2.4-0.7,4.5-2.1,6.3L250.5,60h13.3v5.1h-19.8V60.3z"/>
			<path class="st1" d="M273.3,60.3l13.6-17.5c0.5-0.7,0.9-1.4,1.1-2c0.1-0.6,0.2-1.1,0.2-1.6c0-1.3-0.4-2.5-1.2-3.5
				c-0.8-1-2-1.5-3.6-1.6c-1.4,0-2.5,0.5-3.4,1.4c-0.9,0.9-1.5,2.2-1.7,3.8h-5c0.1-3,1.1-5.4,2.9-7.4c1.8-1.9,4.1-2.9,6.7-2.9
				c3,0,5.4,1,7.3,3c1.9,1.9,2.9,4.4,2.9,7.3c0,2.4-0.7,4.5-2.1,6.3L279.8,60H293v5.1h-19.8V60.3z"/>
			<path class="st1" d="M301.8,48.6h14.6v5.1h-14.6V48.6z"/>
			<path class="st1" d="M326.9,29.3h18.5v5.1h-13.8v8.2c1.6-1.3,3.5-2,5.6-2c1.3,0,2.6,0.3,3.7,0.7c1.1,0.5,1.9,1.1,2.6,1.9
				c1,1,1.7,2.1,2.1,3.4c0.2,0.7,0.4,1.6,0.5,2.6c0.1,1,0.1,2.3,0.1,3.8c0,2.3-0.2,4.1-0.5,5.4c-0.3,1.2-0.9,2.3-1.7,3.3
				c-0.7,0.9-1.7,1.8-3,2.5c-1.3,0.8-2.8,1.2-4.5,1.2c-2.3,0-4.5-0.7-6.5-2.2c-2-1.5-3.2-3.8-3.7-7.1h5c0.5,2.8,2.2,4.2,5,4.2
				c1.2,0,2.1-0.2,2.9-0.7c0.7-0.5,1.2-1.1,1.4-1.9c0.3-0.8,0.5-1.6,0.5-2.5c0-0.9,0-1.7,0-2.6c0-2.1-0.3-3.7-0.9-5
				c-0.4-0.6-0.9-1.1-1.6-1.5c-0.7-0.3-1.5-0.4-2.6-0.4c-0.9,0-1.7,0.2-2.5,0.6c-0.7,0.4-1.4,1.2-2,2.3h-4.7V29.3z"/>
			<path class="st1" d="M361.4,34.7l-4.9,3.7V33l4.9-3.7h5v35.8h-5V34.7z"/>
			<path class="st1" d="M379.1,54.7c0-3.5,1.4-6.1,4.2-8.1c-1.1-0.9-1.9-2-2.5-3.2c-0.7-1.1-1.1-2.5-1.1-4c0-3,1-5.4,2.9-7.4
				c1.8-1.9,4.1-2.9,7-2.9c2.9,0,5.3,1,7.1,2.9c1.9,1.9,2.8,4.4,2.8,7.4c0,1.6-0.3,2.9-1,4c-0.7,1.2-1.5,2.3-2.6,3.2
				c2.8,1.9,4.2,4.6,4.2,8.1c0,3.2-1.1,5.8-3.1,7.7c-2.1,2-4.6,3-7.5,3c-3,0-5.4-1-7.4-3C380.2,60.5,379.1,57.9,379.1,54.7z
				 M384,54.6c0,1.6,0.6,3,1.7,4c1.1,1.1,2.4,1.7,3.9,1.7c1.6,0,2.9-0.6,4-1.7c1.1-1.1,1.6-2.4,1.7-4c0-1.7-0.6-3-1.7-4.1
				c-1.1-1-2.4-1.6-4-1.6c-1.5,0-2.8,0.6-3.9,1.6C384.6,51.6,384.1,52.9,384,54.6z M384.7,39.2c0,1.7,0.6,2.9,1.6,3.8
				c1,0.9,2.1,1.4,3.4,1.4c1.3,0,2.5-0.5,3.5-1.4c1-0.9,1.5-2.1,1.5-3.8c0-1.7-0.5-3-1.5-3.9c-1-0.8-2.2-1.3-3.5-1.3
				c-1.3,0-2.4,0.4-3.4,1.3C385.3,36.2,384.7,37.5,384.7,39.2z"/>
			<path class="st1" d="M408.9,55l11.6-25.7h5.5L414.3,55h9.1V44.7h5V55h2.8v4.8h-2.8v5.3h-5v-5.3l-14.5,0V55z"/>
		</g>
	</g>
</g>
</svg>
