<?xml version="1.0" encoding="utf-8"?>
<!-- Generator: Adobe Illustrator 27.5.0, SVG Export Plug-In . SVG Version: 6.00 Build 0)  -->
<svg version="1.1" id="レイヤー_1" xmlns="http://www.w3.org/2000/svg" xmlns:xlink="http://www.w3.org/1999/xlink" x="0px"
	 y="0px" width="400px" height="100px" viewBox="0 0 400 100" style="enable-background:new 0 0 400 100;" xml:space="preserve">
<style type="text/css">
	.st0{fill:#FFFFFF;}
</style>
<g>
	<g>
		<path class="st0" d="M8.3,46.2c0,0.4,0,1-0.1,1.7c1.3-0.1,2.6-0.4,3.5-0.7l0,1.8c-1,0.2-2.4,0.5-3.6,0.6c0,0.7,0,1.4,0,2.1
			c0,0.2,0,0.4,0,0.6c1.3-0.4,2.6-0.6,3.7-0.6c2.7,0,4.7,1.4,4.7,3.7c0,2.1-1.2,3.6-3.9,4.3c-0.8,0.2-1.6,0.2-2.3,0.3l-0.6-1.8
			c0.7,0,1.5,0,2.2-0.1c1.5-0.3,2.8-1.1,2.8-2.6c0-1.4-1.2-2.2-2.9-2.2c-1.3,0-2.5,0.2-3.7,0.6c0,1.5,0.1,3,0.1,3.7
			c0,1.9-0.7,2.5-1.8,2.5c-1.6,0-4-1.4-4-3.2c0-1.5,1.9-3.1,4-4.1c0-0.4,0-0.8,0-1.1c0-0.6,0-1.3,0-2c-0.5,0-0.8,0.1-1.2,0.1
			c-1.1,0-1.8,0-2.4-0.1l-0.1-1.7c1,0.1,1.7,0.1,2.4,0.1c0.4,0,0.8,0,1.2-0.1c0-0.8,0-1.5,0-1.8c0-0.4-0.1-1.1-0.1-1.4h2
			C8.4,45.2,8.3,45.8,8.3,46.2z M6,58.1c0.4,0,0.6-0.2,0.6-0.8c0-0.6,0-1.6-0.1-2.8c-1.3,0.6-2.3,1.6-2.3,2.3
			C4.3,57.5,5.3,58.1,6,58.1z M18,49.4l-0.9,1.4c-0.9-0.8-3-2.1-4.2-2.7l0.8-1.4C15.1,47.5,17.1,48.7,18,49.4z"/>
		<path class="st0" d="M25.5,51.4v9.4h-1.7V44.9h6.6v6.4H25.5z M25.5,46.3v1.3h3.4v-1.3H25.5z M28.9,50.1v-1.4h-3.4v1.4H28.9z
			 M29.3,58.2v1h-1.5v-6.4h6.8v5.4H29.3z M29.3,54.2v2.6H33v-2.6H29.3z M38.7,58.6c0,1-0.2,1.5-0.9,1.8c-0.7,0.3-1.7,0.3-3.3,0.3
			c-0.1-0.5-0.3-1.2-0.6-1.7c1.1,0.1,2.3,0,2.7,0c0.3,0,0.4-0.1,0.4-0.4v-7.2h-5.1v-6.5h6.8V58.6z M33.5,46.3v1.3H37v-1.3H33.5z
			 M37,50.1v-1.4h-3.5v1.4H37z"/>
		<path class="st0" d="M47.3,48.6c0,1.1,0,2.6,0.1,4.1c0.3,2.8,1,4.7,2.2,4.7c0.9,0,1.7-2,2.1-3.6l1.4,1.7c-1.1,3.1-2.3,4.1-3.6,4.1
			c-1.8,0-3.5-1.7-4-6.5c-0.2-1.6-0.2-3.7-0.2-4.8c0-0.5,0-1.2-0.1-1.7l2.2,0C47.4,47.2,47.3,48.1,47.3,48.6z M60,56.2l-1.9,0.7
			c-0.3-3.1-1.3-7.1-3.2-9.3l1.8-0.6C58.4,49.2,59.7,53.3,60,56.2z"/>
		<path class="st0" d="M74,44.3c1.9,2.7,5,5.1,7.8,6.3c-0.4,0.4-0.8,1-1.1,1.5c-1-0.5-2-1.1-2.9-1.8v1.3h-9v-1.2
			c-0.9,0.7-1.9,1.3-2.9,1.8c-0.2-0.4-0.7-1-1-1.3c3.1-1.6,6-4.3,7.4-6.5H74z M67.8,53.5h11.1v7.2h-1.7v-0.7h-7.7v0.7h-1.6V53.5z
			 M77.5,50c-1.7-1.3-3.2-2.7-4.2-4.1c-0.9,1.3-2.4,2.8-4.1,4.1H77.5z M69.4,55v3.5h7.7V55H69.4z"/>
		<path class="st0" d="M90.9,44.9L93,45c-0.1,0.5-0.3,1.4-0.4,2.6h0l0.6,0.8c-0.2,0.3-0.6,0.8-0.8,1.3c0,0.3-0.1,0.6-0.1,0.9
			c1.9-1.5,3.9-2.1,5.5-2.1c2.6,0,4.8,1.8,4.8,4.7c0,3.6-2.5,5.7-6.6,6.5l-0.8-1.7c3.1-0.5,5.6-1.8,5.6-4.8c0-1.4-1.1-3-3.2-3
			c-2,0-3.8,1-5.4,2.4c0,0.7-0.1,1.3-0.1,1.9c0,1.6,0,2.8,0.1,4.5c0,0.3,0.1,0.8,0.1,1.2h-1.9c0-0.3,0.1-0.9,0.1-1.2
			c0-1.7,0-2.7,0.1-4.7c-0.8,1.2-1.9,2.8-2.7,3.8l-1.1-1.6c1-1.3,3-3.9,3.9-5.3c0-0.5,0.1-1,0.1-1.5c-0.8,0.1-2.3,0.3-3.4,0.5
			l-0.2-1.8c0.5,0,0.8,0,1.4,0c0.6,0,1.5-0.1,2.4-0.3c0.1-0.8,0.1-1.4,0.1-1.6C90.9,45.9,90.9,45.4,90.9,44.9z"/>
		<path class="st0" d="M120.8,46.8c0,0.8,0,1.5,0,2.3c0.6-0.1,1.2-0.1,1.7-0.1c0.5,0,1.1-0.1,1.5-0.1v1.8c-0.3,0-1.1,0-1.6,0
			c-0.5,0-1.1,0-1.7,0.1c0,1.4-0.1,2.9-0.3,3.7c-0.2,0.9-0.6,1.1-1.5,1.1c-0.6,0-2-0.2-2.5-0.3l0-1.6c0.6,0.1,1.4,0.2,1.7,0.2
			c0.4,0,0.6-0.1,0.6-0.5c0.1-0.5,0.1-1.6,0.2-2.6c-1.7,0.1-3.7,0.3-5.4,0.5c0,1.8,0,3.5,0,4.3c0.1,1.9,0.1,2.4,3.1,2.4
			c1.9,0,4.1-0.2,5.4-0.5l-0.1,1.9c-1.2,0.1-3.4,0.3-5.2,0.3c-4.4,0-4.8-1-4.9-3.9c0-0.8,0-2.6,0-4.4c-0.7,0.1-1.2,0.1-1.6,0.2
			c-0.6,0.1-1.5,0.2-2,0.3l-0.2-1.8c0.5,0,1.3,0,2-0.1c0.4,0,1-0.1,1.7-0.2c0-1,0-1.9,0-2.2c0-0.6,0-1.2-0.1-1.7h2
			c-0.1,0.5-0.1,1-0.1,1.6c0,0.5,0,1.3,0,2.1c1.7-0.2,3.6-0.3,5.4-0.5c0-0.8,0-1.6,0-2.3c0-0.4-0.1-1.2-0.1-1.5h1.9
			C120.8,45.6,120.8,46.3,120.8,46.8z"/>
	</g>
</g>
<g>
	<g>
		<path class="st0" d="M4.6,95.4c0,1.2,1.2,2.1,3.8,2.1c2.2,0,4.3-0.2,5.5-0.6l0,1.4c-1.1,0.3-3.2,0.6-5.5,0.6
			c-3.2,0-5.1-1.1-5.1-3.1c0-0.8,0.2-1.6,0.3-2.2l1.3,0.1C4.7,94.2,4.6,94.8,4.6,95.4z M8.5,87.3c1.5,0,3.2-0.1,4.3-0.2v1.3
			c-1.1,0.1-2.8,0.2-4.3,0.2c-1.6,0-3-0.1-4.2-0.2v-1.3C5.4,87.2,6.9,87.3,8.5,87.3z M14.6,87.5l-0.9,0.4c-0.3-0.7-0.9-1.6-1.3-2.2
			l0.9-0.4C13.7,85.9,14.3,86.9,14.6,87.5z M16.4,86.9l-0.9,0.4c-0.3-0.7-0.9-1.6-1.3-2.2l0.8-0.4C15.5,85.3,16.1,86.3,16.4,86.9z"
			/>
		<path class="st0" d="M21.1,88c-0.2,1-0.6,2-1.5,2.9c-0.2-0.3-0.5-0.6-0.8-0.8c1.1-1,1.3-2.3,1.3-3.3v-1.6l0.9,0.3
			c1.4-0.2,2.8-0.4,3.7-0.7l0.8,0.7c-1.2,0.3-2.9,0.6-4.4,0.7v0.6v0.2H26V88h-1.9v2h-1.1v-2H21.1z M24.7,97.5
			c-1.3,0.8-3.3,1.5-4.9,1.9c-0.2-0.2-0.6-0.7-0.9-0.9c1.6-0.3,3.6-0.9,4.7-1.5L24.7,97.5z M21,90.3h10.4v6.5H21V90.3z M22.1,92.2
			h8.1v-1.1h-8.1V92.2z M22.1,94.1h8.1V93h-8.1V94.1z M22.1,96h8.1v-1.2h-8.1V96z M33.2,87.1V88h-2.4v2h-1.1v-2h-2.2
			c-0.2,0.8-0.7,1.6-1.7,2.2c-0.1-0.3-0.5-0.6-0.7-0.8c1.3-0.8,1.5-1.9,1.5-2.8v-1.4l0.9,0.2c1.5-0.1,3.1-0.4,4-0.6l0.8,0.8
			c-1.2,0.3-3.1,0.6-4.7,0.7v0.4c0,0.1,0,0.2,0,0.4H33.2z M28.4,97c1.7,0.6,3.6,1.2,4.8,1.8l-1.3,0.6c-1-0.5-2.7-1.2-4.5-1.8
			L28.4,97z"/>
		<path class="st0" d="M38.1,91v8.3h-1.2V85.4h5.7V91H38.1z M38.1,86.4v1.3h3.4v-1.3H38.1z M41.5,90.1v-1.5h-3.4v1.5H41.5z
			 M41.4,97.1v1h-1.1v-5.6h6v4.7H41.4z M41.4,93.5v2.6h3.8v-2.6H41.4z M50,97.8c0,0.8-0.2,1.2-0.7,1.4c-0.6,0.2-1.5,0.2-2.9,0.2
			c-0.1-0.3-0.3-0.9-0.4-1.2c1,0,2.1,0,2.4,0c0.3,0,0.4-0.1,0.4-0.4V91h-4.7v-5.6H50V97.8z M45.2,86.4v1.4h3.6v-1.4H45.2z
			 M48.8,90.1v-1.5h-3.6v1.5H48.8z"/>
		<path class="st0" d="M57,87.7c0.3,0.5,0.6,1.2,0.9,1.8c1.9-0.8,4.1-1.7,5.8-1.7c2.2,0,3.6,1.3,3.6,3c0,1.8-1.2,3.2-3.7,3.2
			c-0.9,0-1.8-0.2-2.4-0.4l0-1.2c0.6,0.3,1.4,0.5,2.3,0.5c1.7,0,2.5-1,2.5-2.1c0-0.9-0.8-1.8-2.3-1.8c-1.4,0-3.4,0.8-5.2,1.6
			c0.2,0.4,0.4,0.9,0.6,1.3c0.9,2,1.9,5,2.4,6.7L60.1,99c-0.5-1.9-1.3-4.5-2.2-6.6c-0.2-0.5-0.4-0.9-0.6-1.3
			c-1.2,0.6-2.4,1.2-3.1,1.5l-0.6-1.3c0.5-0.1,1-0.3,1.3-0.4c0.5-0.2,1.2-0.5,1.9-0.8c-0.3-0.7-0.6-1.3-0.9-1.8
			c-0.2-0.3-0.5-0.8-0.8-1.1l1.3-0.5C56.6,86.9,56.9,87.4,57,87.7z M59.2,85.9l0.9-0.7c0.5,0.4,1.7,1.4,2.4,2L61.6,88
			C61,87.4,59.9,86.4,59.2,85.9z"/>
		<path class="st0" d="M72.4,95.4c0,1.2,1.2,2.1,3.8,2.1c2.2,0,4.3-0.2,5.5-0.6l0,1.4c-1.1,0.3-3.2,0.6-5.5,0.6
			c-3.2,0-5.1-1.1-5.1-3.1c0-0.8,0.2-1.6,0.3-2.2l1.3,0.1C72.5,94.2,72.4,94.8,72.4,95.4z M76.3,87.3c1.5,0,3.2-0.1,4.3-0.2v1.3
			c-1.1,0.1-2.8,0.2-4.3,0.2c-1.6,0-3-0.1-4.2-0.2v-1.3C73.2,87.2,74.7,87.3,76.3,87.3z M82.4,87.5l-0.9,0.4
			c-0.3-0.7-0.9-1.6-1.3-2.2l0.9-0.4C81.5,85.9,82.1,86.9,82.4,87.5z M84.2,86.9l-0.9,0.4C83,86.6,82.5,85.6,82,85l0.8-0.4
			C83.3,85.3,83.9,86.3,84.2,86.9z"/>
		<path class="st0" d="M90.6,90.7c0.6,0.6,2,2.3,2.4,2.7l-0.7,1c-0.3-0.5-1-1.5-1.6-2.3v7.3h-1.1v-7.7c-0.6,1.8-1.5,3.6-2.3,4.7
			c-0.1-0.3-0.4-0.8-0.6-1.1c1.1-1.3,2.2-3.8,2.8-6h-2.4v-1.1h2.6v-3.4h1.1v3.4h2.3v1.1h-2.3V90.7z M100.7,85.7v13.5h-1.2v-0.9h-4.8
			v1h-1.1V85.7H100.7z M94.7,86.8v2.7h4.8v-2.7H94.7z M94.7,93.3h4.8v-2.8h-4.8V93.3z M99.5,97.2v-2.8h-4.8v2.8H99.5z"/>
		<path class="st0" d="M110.2,88.4h-5.9v-1h5.9V88.4z M109.7,98.5H106v0.7h-1v-5.4h4.7V98.5z M109.7,90.5H105v-0.9h4.6V90.5z
			 M105,91.7h4.6v1H105V91.7z M109.6,86.3h-4.5v-1h4.5V86.3z M106,94.8v2.7h2.6v-2.7H106z M115.2,93.7c0,0.9,0.6,3.5,3.9,4.7
			c-0.2,0.3-0.6,0.7-0.7,1c-2.4-1-3.5-3-3.7-4c-0.2,1-1.4,3-4.2,4c-0.1-0.3-0.5-0.7-0.7-1c3.7-1.3,4.3-3.9,4.3-4.8v-2.3h1.2V93.7z
			 M110.1,95.5c0.8-0.6,1.3-1.7,1.5-2.8l1.1,0.2c-0.2,1.2-0.7,2.4-1.6,3.1L110.1,95.5z M118.1,91.9c-0.8-0.7-2.3-1.8-3.7-2.6
			c-0.6,1.2-1.7,2.1-3.5,2.8c-0.1-0.3-0.4-0.7-0.7-0.9c3.3-1,3.7-2.9,3.9-6.3h1.2c-0.1,1.3-0.2,2.5-0.4,3.4c1.4,0.8,3.2,2,4.1,2.8
			L118.1,91.9z M112.8,86c-0.2,1.1-0.6,2.2-1.3,2.9l-0.9-0.4c0.7-0.5,1.1-1.6,1.3-2.6L112.8,86z M118.6,86.2
			c-0.5,0.9-1.1,1.9-1.6,2.5l-0.9-0.4c0.5-0.7,1.1-1.8,1.4-2.6L118.6,86.2z M116.1,95.3c0.5-0.7,1.2-2,1.5-2.8l1.2,0.4
			c-0.5,1-1.2,2.1-1.7,2.8L116.1,95.3z"/>
		<path class="st0" d="M127,87.9c0.8-0.1,1.7-0.3,2.5-0.6l0,1.2c-0.8,0.2-1.9,0.4-2.9,0.6c-0.8,2.3-2.2,5-3.5,6.8l-1.2-0.6
			c1.3-1.6,2.7-4.1,3.4-6c-0.5,0-1,0-1.4,0c-0.6,0-1.3,0-1.9,0l-0.1-1.2c0.6,0.1,1.3,0.1,2,0.1c0.6,0,1.2,0,1.8-0.1
			c0.2-0.9,0.5-1.9,0.5-2.8l1.4,0.1C127.4,86,127.2,87,127,87.9z M131.3,92.1c0,0.6,0.1,1.6,0.1,2.6c1.4,0.5,2.5,1.3,3.3,2l-0.7,1.1
			c-0.7-0.6-1.6-1.3-2.6-1.8c0,0.3,0,0.5,0,0.7c0,1.3-0.8,2.3-2.8,2.3c-1.8,0-3.2-0.7-3.2-2.3c0-1.5,1.4-2.4,3.2-2.4
			c0.5,0,1.1,0,1.6,0.2c-0.1-1.3-0.1-2.9-0.2-4h1.2C131.3,91,131.3,91.5,131.3,92.1z M128.6,97.8c1.3,0,1.8-0.7,1.8-1.6
			c0-0.2,0-0.4,0-0.7c-0.5-0.2-1.1-0.2-1.6-0.2c-1.2,0-2,0.5-2,1.3C126.7,97.3,127.3,97.8,128.6,97.8z M130.9,88.6l0.7-1
			c1.2,0.5,3,1.6,3.7,2.1l-0.7,1.1C133.7,90.1,132,89.1,130.9,88.6z"/>
		<path class="st0" d="M143.3,90.7c1.4-0.8,2.9-1.6,3.7-2c0.4-0.3,0.8-0.5,1.1-0.8l0.6,1.2c-0.4,0.2-0.8,0.4-1.2,0.7
			c-1.1,0.6-2.9,1.4-4.4,2.4c-1.5,1-2.4,2-2.4,3.2c0,1.3,1.3,2.2,3.8,2.2c1.7,0,3.9-0.2,5.1-0.5l0,1.4c-1.2,0.2-3.1,0.4-5.1,0.4
			c-3,0-5.2-0.9-5.2-3.3c0-1.7,1-3,2.8-4.1c-0.7-1.3-1.6-3.2-2.3-4.9l1.3-0.5C141.7,87.7,142.6,89.4,143.3,90.7z M150.4,88l-0.9,0.4
			c-0.3-0.7-0.9-1.6-1.3-2.2l0.9-0.4C149.4,86.3,150,87.3,150.4,88z M152.2,87.3l-0.8,0.4c-0.4-0.7-0.9-1.6-1.3-2.2l0.8-0.4
			C151.2,85.7,151.8,86.7,152.2,87.3z"/>
		<path class="st0" d="M160,86.5c0,0.4,0,1-0.1,1.7c1.2-0.1,2.4-0.4,3.3-0.6l0,1.2c-0.9,0.2-2.2,0.4-3.4,0.6c0,0.8,0,1.5,0,2.2
			c0,0.2,0,0.4,0,0.6c1.2-0.4,2.5-0.6,3.5-0.6c2.3,0,4,1.3,4,3.2c0,1.9-1.2,3.2-3.4,3.7c-0.7,0.2-1.4,0.2-2,0.2l-0.4-1.3
			c0.6,0,1.3,0,1.9-0.1c1.4-0.3,2.7-1,2.7-2.5c0-1.4-1.2-2.1-2.8-2.1c-1.2,0-2.3,0.2-3.5,0.6c0,1.4,0.1,2.8,0.1,3.5
			c0,1.5-0.5,2-1.4,2c-1.2,0-3.3-1.2-3.3-2.7c0-1.3,1.7-2.7,3.5-3.5c0-0.3,0-0.6,0-0.9c0-0.6,0-1.4,0-2.1c-0.4,0-0.8,0-1.2,0
			c-0.9,0-1.5,0-2-0.1l0-1.2c0.9,0.1,1.5,0.1,2,0.1c0.4,0,0.8,0,1.2,0c0-0.8,0-1.5,0-1.8c0-0.3,0-0.9-0.1-1.1h1.4
			C160.1,85.7,160.1,86.1,160,86.5z M158.2,97.3c0.4,0,0.6-0.3,0.6-0.8c0-0.6,0-1.7,0-2.8c-1.3,0.6-2.3,1.5-2.3,2.3
			C156.5,96.7,157.6,97.3,158.2,97.3z M168.8,89.5l-0.7,1c-0.8-0.8-2.6-1.9-3.6-2.4l0.6-1C166.2,87.8,168,88.8,168.8,89.5z"/>
		<path class="st0" d="M175.5,87.5c-0.7,1.4-1.6,2.7-2.6,3.6c-0.2-0.2-0.8-0.6-1.1-0.8c1.6-1.3,2.8-3.3,3.4-5.6l1.2,0.3
			c-0.2,0.5-0.3,1-0.5,1.4h10v1H175.5z M180.7,92.7c-0.6,1-1.3,1.9-2,2.8c1.2,0.8,2.2,1.7,2.9,2.4l-0.9,0.9
			c-0.6-0.7-1.6-1.6-2.8-2.5c-1.4,1.3-3,2.4-4.6,3.2c-0.2-0.2-0.6-0.7-0.9-0.9c1.7-0.7,3.2-1.7,4.6-2.9c-1-0.7-2-1.4-3-1.9l0.8-0.8
			c1,0.5,2,1.2,3.1,1.9c0.7-0.8,1.3-1.6,1.8-2.5L180.7,92.7z M183.8,91c0,4.1,0.2,7.2,1.4,7.2c0.3,0,0.4-0.9,0.4-2.3
			c0.2,0.2,0.6,0.5,0.8,0.7c-0.1,2-0.4,2.7-1.3,2.7c-2.1,0-2.4-3-2.5-7.4h-9.2v-1H183.8z M175.3,89.7v-1h9.2v1H175.3z"/>
		<path class="st0" d="M193.7,96.6v2.8h-1.1v-2.8h-3v-1.1h3v-1.3h-2.5v-5.5h2.5v-1.2h-2.8v-1h2.8v-1.7h1.1v1.7h2.8v1h-2.8v1.2h2.5
			v3.1c1.2-0.4,2.3-0.9,3.3-1.7c-0.9-0.9-1.6-2-2-3.2l0.9-0.2h-1.6v-1.1h6l0.2,0l0.7,0.3c-0.5,1.8-1.4,3.2-2.6,4.3
			c0.9,0.7,2.1,1.3,3.3,1.6c-0.2,0.2-0.6,0.7-0.7,1c-1.3-0.4-2.5-1-3.4-1.9c-1.1,0.8-2.3,1.5-3.6,1.9c-0.1-0.3-0.4-0.6-0.6-0.9v2.4
			h-2.5v1.3h2.9v1.1H193.7z M191.1,91.1h1.7v-1.4h-1.7V91.1z M191.1,93.4h1.7v-1.5h-1.7V93.4z M195.3,89.6h-1.7v1.4h1.7V89.6z
			 M195.3,91.9h-1.7v1.5h1.7V91.9z M201,97.9h3.4V99h-8.3v-1.1h3.7v-2.8h-2.7v-1h2.7V92h1.2v2.1h2.7v1H201V97.9z M198.5,86.6
			c0.4,1,1.1,2,1.9,2.8c0.8-0.8,1.5-1.7,1.9-2.8H198.5z"/>
		<path class="st0" d="M210.2,87.2c-0.3,1.5-0.8,4.3-0.8,6.1c0,0.8,0,1.5,0.1,2.2c0.3-0.7,0.7-1.7,0.9-2.3l0.7,0.5
			c-0.4,1.1-1,2.8-1.1,3.6c0,0.2-0.1,0.5-0.1,0.7s0,0.4,0,0.6l-1.2,0.1c-0.3-1.1-0.6-3-0.6-5.1c0-2.4,0.5-5.1,0.7-6.4
			c0.1-0.4,0.1-0.8,0.1-1.1l1.4,0.1C210.4,86.4,210.3,86.9,210.2,87.2z M213.9,95.3c0,0.7,0.5,1.4,2.7,1.4c1.4,0,2.7-0.1,4-0.4
			l0,1.3c-1,0.2-2.4,0.3-4,0.3c-2.7,0-3.9-0.9-3.9-2.4c0-0.5,0.1-1.1,0.3-1.9l1.2,0.1C214,94.5,213.9,94.9,213.9,95.3z M220.1,87.3
			v1.3c-1.7,0.2-4.8,0.2-6.6,0v-1.3C215.3,87.6,218.5,87.6,220.1,87.3z"/>
		<path class="st0" d="M229.6,86.5c0,0.4,0,1-0.1,1.7c1.2-0.1,2.4-0.4,3.3-0.6l0,1.2c-0.9,0.2-2.2,0.4-3.4,0.6c0,0.8,0,1.5,0,2.2
			c0,0.2,0,0.4,0,0.6c1.2-0.4,2.5-0.6,3.5-0.6c2.3,0,4,1.3,4,3.2c0,1.9-1.2,3.2-3.4,3.7c-0.7,0.2-1.4,0.2-2,0.2l-0.4-1.3
			c0.6,0,1.3,0,1.9-0.1c1.4-0.3,2.7-1,2.7-2.5c0-1.4-1.2-2.1-2.8-2.1c-1.2,0-2.3,0.2-3.5,0.6c0,1.4,0.1,2.8,0.1,3.5
			c0,1.5-0.5,2-1.4,2c-1.2,0-3.3-1.2-3.3-2.7c0-1.3,1.7-2.7,3.5-3.5c0-0.3,0-0.6,0-0.9c0-0.6,0-1.4,0-2.1c-0.4,0-0.8,0-1.2,0
			c-0.9,0-1.5,0-2-0.1l0-1.2c0.9,0.1,1.5,0.1,2,0.1c0.4,0,0.8,0,1.2,0c0-0.8,0-1.5,0-1.8c0-0.3,0-0.9-0.1-1.1h1.4
			C229.6,85.7,229.6,86.1,229.6,86.5z M227.8,97.3c0.4,0,0.6-0.3,0.6-0.8c0-0.6,0-1.7,0-2.8c-1.3,0.6-2.3,1.5-2.3,2.3
			C226,96.7,227.2,97.3,227.8,97.3z M238.3,89.5l-0.7,1c-0.8-0.8-2.6-1.9-3.6-2.4l0.6-1C235.8,87.8,237.5,88.8,238.3,89.5z"/>
		<path class="st0" d="M243.2,91v8.3H242V85.4h5.7V91H243.2z M243.2,86.4v1.3h3.4v-1.3H243.2z M246.6,90.1v-1.5h-3.4v1.5H246.6z
			 M246.5,97.1v1h-1.1v-5.6h6v4.7H246.5z M246.5,93.5v2.6h3.8v-2.6H246.5z M255.1,97.8c0,0.8-0.2,1.2-0.7,1.4
			c-0.6,0.2-1.5,0.2-2.9,0.2c-0.1-0.3-0.3-0.9-0.4-1.2c1,0,2.1,0,2.4,0c0.3,0,0.4-0.1,0.4-0.4V91h-4.7v-5.6h5.9V97.8z M250.3,86.4
			v1.4h3.6v-1.4H250.3z M253.9,90.1v-1.5h-3.6v1.5H253.9z"/>
		<path class="st0" d="M260.9,88.5c0,1,0,2.5,0.1,3.8c0.3,2.7,1,4.4,2.2,4.4c0.8,0,1.6-1.7,2-3.3l1,1.1c-1,2.7-1.9,3.7-3,3.7
			c-1.5,0-3-1.5-3.4-5.7c-0.1-1.4-0.2-3.3-0.2-4.3c0-0.4,0-1-0.1-1.4l1.6,0C261,87.4,260.9,88.1,260.9,88.5z M272.2,95.4l-1.3,0.5
			c-0.3-2.9-1.2-6.2-2.8-8.1l1.2-0.4C270.8,89.3,271.9,92.7,272.2,95.4z"/>
		<path class="st0" d="M283,84.8c1.7,2.4,4.5,4.6,7,5.7c-0.3,0.3-0.6,0.7-0.8,1c-2.5-1.3-5.3-3.5-6.8-5.6c-1.3,2-3.9,4.2-6.6,5.7
			c-0.1-0.3-0.5-0.7-0.7-0.9c2.8-1.4,5.5-3.8,6.7-5.9H283z M277.7,93h9.7v6.4h-1.2v-0.7h-7.3v0.7h-1.2V93z M286.6,90V91h-8V90H286.6
			z M278.9,94.1v3.6h7.3v-3.6H278.9z"/>
		<path class="st0" d="M296.5,85.4l1.5,0c-0.1,0.4-0.2,1.3-0.3,2.4c0,0,0,0,0.1,0l0.5,0.6c-0.2,0.3-0.5,0.7-0.7,1.1
			c0,0.3-0.1,0.7-0.1,1c1.8-1.5,3.6-2,5.1-2c2.2,0,4.2,1.6,4.2,4.1c0,3.2-2.3,4.9-5.8,5.6l-0.6-1.2c2.7-0.4,5.1-1.6,5.1-4.4
			c0-1.2-1-2.8-3.1-2.8c-1.9,0-3.6,0.9-5,2.3c0,0.7,0,1.3,0,1.9c0,1.5,0,2.4,0.1,3.9c0,0.3,0,0.7,0.1,1h-1.4c0-0.2,0-0.7,0-0.9
			c0-1.5,0-2.4,0-4.1c0-0.2,0-0.4,0-0.6c-0.8,1.2-1.8,2.7-2.6,3.8l-0.8-1.1c0.9-1.1,2.7-3.6,3.5-4.9c0-0.5,0.1-1,0.1-1.6
			c-0.7,0.1-2.1,0.3-3.1,0.4l-0.1-1.3c0.4,0,0.7,0,1,0c0.5,0,1.5-0.1,2.3-0.3c0-0.8,0.1-1.3,0.1-1.5
			C296.6,86.3,296.6,85.8,296.5,85.4z"/>
		<path class="st0" d="M321.1,87c0,0.7,0,1.5,0,2.2c0.6,0,1.2-0.1,1.8-0.1c0.4,0,0.9-0.1,1.2-0.1v1.2c-0.3,0-0.9,0-1.3,0
			c-0.5,0-1.1,0-1.8,0.1c0,1.2-0.1,2.6-0.2,3.3c-0.1,0.7-0.5,0.9-1.2,0.9c-0.6,0-1.7-0.1-2.1-0.2l0-1.1c0.5,0.1,1.2,0.2,1.6,0.2
			c0.4,0,0.6-0.1,0.6-0.4c0.1-0.5,0.1-1.6,0.2-2.6c-1.6,0.1-3.5,0.3-5.1,0.5c0,1.6,0,3.3,0,3.9c0,1.7,0.1,2.3,2.8,2.3
			c1.7,0,3.7-0.2,4.8-0.4l0,1.4c-1.1,0.1-3,0.3-4.6,0.3c-3.7,0-4-0.8-4.1-3.4c0-0.7,0-2.4,0-4c-0.7,0.1-1.3,0.1-1.7,0.2
			c-0.5,0.1-1.2,0.2-1.6,0.2l-0.1-1.3c0.5,0,1.1,0,1.7-0.1c0.4,0,1-0.1,1.8-0.2c0-1.1,0-2,0-2.2c0-0.5,0-0.9-0.1-1.4h1.4
			c0,0.4-0.1,0.8-0.1,1.3c0,0.5,0,1.3,0,2.2c1.6-0.1,3.4-0.3,5.1-0.5V87c0-0.4,0-0.9-0.1-1.2h1.4C321.2,86.1,321.1,86.6,321.1,87z"
			/>
		<path class="st0" d="M335.3,87.3c-1.1,1-3.4,2.8-4.6,3.8c-1,0.8-1,1.1,0,1.9c1.5,1.2,4.3,3.5,6,5.2l-1.1,1.1
			c-0.3-0.4-0.7-0.8-1.1-1.2c-1.1-1.2-3.6-3.2-5-4.5c-1.5-1.3-1.3-2,0.1-3.2c1.2-1,3.6-2.9,4.7-4c0.3-0.3,0.7-0.8,0.9-1.1l1.2,1.1
			C336.1,86.6,335.6,87,335.3,87.3z"/>
		<path class="st0" d="M347,87.1c-0.1,0.4-0.2,0.8-0.2,1.2c1-0.1,2.1-0.3,3.1-0.6v1.2c-1,0.2-2.2,0.4-3.3,0.5
			c-0.2,0.7-0.3,1.4-0.5,2.1c-0.6,2.3-1.7,5.6-2.5,7.3l-1.4-0.5c1-1.6,2.1-4.9,2.7-7.2c0.1-0.5,0.3-1.1,0.4-1.7c-0.5,0-1,0-1.5,0
			c-0.7,0-1.3,0-1.9-0.1l0-1.2c0.8,0.1,1.3,0.1,1.9,0.1c0.5,0,1.1,0,1.7-0.1c0.1-0.6,0.2-1.1,0.2-1.4c0.1-0.4,0.1-1,0-1.3l1.5,0.1
			C347.2,86.1,347.1,86.7,347,87.1z M348.9,96c0,0.8,0.4,1.5,2.7,1.5c1,0,2.1-0.1,3.1-0.3l0,1.3c-0.9,0.1-1.9,0.2-3.1,0.2
			c-2.5,0-3.9-0.8-3.9-2.4c0-0.6,0.1-1.2,0.2-1.9l1.2,0.1C349,95.1,348.9,95.6,348.9,96z M351.8,90.5c0.9,0,1.9,0,2.8,0.1l0,1.2
			c-0.8-0.1-1.8-0.2-2.7-0.2c-1,0-2,0.1-3,0.2v-1.2C349.7,90.6,350.7,90.5,351.8,90.5z M354.1,88.5l-0.9,0.4
			c-0.3-0.7-0.9-1.6-1.3-2.2l0.8-0.4C353.2,86.9,353.8,87.8,354.1,88.5z M355.9,87.8l-0.9,0.4c-0.4-0.7-0.9-1.6-1.3-2.2l0.8-0.4
			C355,86.2,355.6,87.2,355.9,87.8z"/>
		<path class="st0" d="M365.6,85.6l1.4-0.2c0.1,0.8,0.4,1.8,0.7,2.7c1.2-0.2,2.5-0.4,3.6-0.8l0.1,1.2c-1,0.3-2.2,0.5-3.3,0.7
			c0.5,1.2,1.2,2.5,1.8,3.3c0.2,0.3,0.5,0.6,0.7,0.8l-0.7,0.9c-0.8-0.2-2.7-0.4-3.9-0.4l0.1-1.1c0.9,0.1,2.1,0.2,2.7,0.2
			c-0.6-0.9-1.4-2.3-1.9-3.7c-1.9,0.2-4.2,0.2-6.7,0l0-1.3c2.4,0.3,4.6,0.3,6.3,0.2c-0.2-0.6-0.4-1.1-0.5-1.4
			C365.8,86.5,365.7,86,365.6,85.6z M361.8,95.4c0,1.5,1.4,2.2,3.8,2.2c1.6,0,3-0.1,4.1-0.4l-0.1,1.3c-1,0.2-2.4,0.4-4.1,0.4
			c-3,0-5-1.1-5-3.3c0-0.9,0.3-1.7,0.8-2.7l1.2,0.3C362.1,93.9,361.8,94.6,361.8,95.4z"/>
		<path class="st0" d="M377.3,88.5c0,1,0,2.5,0.1,3.8c0.3,2.7,1,4.4,2.2,4.4c0.8,0,1.6-1.7,2-3.3l1,1.1c-1,2.7-1.9,3.7-3,3.7
			c-1.5,0-3-1.5-3.4-5.7c-0.1-1.4-0.2-3.3-0.2-4.3c0-0.4,0-1-0.1-1.4l1.6,0C377.4,87.4,377.3,88.1,377.3,88.5z M388.6,95.4l-1.3,0.5
			c-0.3-2.9-1.2-6.2-2.8-8.1l1.2-0.4C387.2,89.3,388.4,92.7,388.6,95.4z"/>
		<path class="st0" d="M397.1,96.7c0,1.4-1.1,2.4-2.4,2.4c-1.3,0-2.4-1.1-2.4-2.4c0-1.3,1.1-2.4,2.4-2.4
			C396,94.3,397.1,95.3,397.1,96.7z M396.2,96.7c0-0.9-0.7-1.6-1.6-1.6c-0.9,0-1.6,0.7-1.6,1.6c0,0.9,0.7,1.6,1.6,1.6
			C395.5,98.3,396.2,97.6,396.2,96.7z"/>
	</g>
</g>
<g>
	<path class="st0" d="M27.7,26.4c-0.8,3.3-2.2,5.8-4.3,7.6c-2.2,1.8-4.8,2.6-7.8,2.6c-2.7-0.1-5-0.7-6.8-2.1c-1.8-1.3-3.2-2.7-4-4.3
		c-0.3-0.5-0.5-1-0.7-1.5c-0.2-0.5-0.3-1.1-0.5-1.9c-0.2-1.4-0.4-4.2-0.4-8.3c0-4.1,0.1-6.9,0.4-8.3c0.3-1.4,0.6-2.5,1.2-3.4
		c0.8-1.6,2.2-3.1,4-4.4c1.8-1.3,4.1-2,6.8-2c3.3,0,6,1,8.1,3c2.1,2,3.4,4.5,4,7.5h-5.5c-0.4-1.4-1.2-2.7-2.3-3.7
		c-1.2-1-2.6-1.5-4.3-1.5c-1.2,0-2.3,0.3-3.2,0.8c-0.9,0.5-1.6,1.1-2.2,1.8c-0.7,0.8-1.1,1.8-1.4,3c-0.3,1.3-0.4,3.7-0.4,7.2
		s0.1,5.9,0.4,7.1c0.2,1.2,0.7,2.2,1.4,3c0.6,0.7,1.3,1.3,2.2,1.8c0.9,0.5,1.9,0.8,3.2,0.8c2.9,0,5.1-1.6,6.6-4.9H27.7z"/>
	<path class="st0" d="M34.1,18.6c0-4.1,0.1-6.9,0.4-8.3c0.3-1.4,0.6-2.5,1.2-3.4c0.8-1.6,2.2-3.1,4-4.4c1.8-1.3,4.1-2,6.8-2
		c2.7,0,5,0.7,6.9,2c1.8,1.3,3.1,2.8,3.9,4.4c0.6,0.9,1,2,1.2,3.4c0.2,1.4,0.3,4.2,0.3,8.3c0,4.1-0.1,6.8-0.3,8.3
		c-0.2,1.4-0.6,2.6-1.2,3.4c-0.8,1.6-2.1,3.1-3.9,4.3c-1.8,1.3-4.1,2-6.9,2.1c-2.7-0.1-5-0.7-6.8-2.1c-1.8-1.3-3.2-2.7-4-4.3
		c-0.3-0.5-0.5-1-0.7-1.5c-0.2-0.5-0.3-1.1-0.5-1.9C34.2,25.4,34.1,22.7,34.1,18.6z M39.3,18.6c0,3.5,0.1,5.9,0.4,7.1
		c0.2,1.2,0.7,2.2,1.4,3c0.6,0.7,1.3,1.3,2.2,1.8c0.9,0.5,1.9,0.8,3.2,0.8c1.2,0,2.3-0.3,3.2-0.8c0.9-0.5,1.6-1.1,2.1-1.8
		c0.7-0.8,1.1-1.8,1.4-3c0.2-1.2,0.4-3.6,0.4-7.1s-0.1-5.9-0.4-7.2c-0.3-1.2-0.7-2.2-1.4-3c-0.5-0.7-1.2-1.3-2.1-1.8
		c-0.9-0.5-2-0.7-3.2-0.8c-1.2,0-2.3,0.3-3.2,0.8c-0.9,0.5-1.6,1.1-2.2,1.8c-0.7,0.8-1.1,1.8-1.4,3C39.5,12.7,39.3,15.1,39.3,18.6z"
		/>
	<path class="st0" d="M67.4,0.8h4.9L88,26.1h0.1V0.8h5.2v35.6h-4.9L72.8,11.1h-0.1v25.3h-5.2V0.8z"/>
	<path class="st0" d="M109.9,5.6h-9.4V0.8h24.1v4.8h-9.5v30.8h-5.2V5.6z"/>
	<path class="st0" d="M146.1,28.4h-13.1l-2.6,8h-5.5l12.5-35.6h4.4l12.5,35.6h-5.5L146.1,28.4z M144.6,23.6l-5-15.6h-0.1l-5,15.6
		H144.6z"/>
	<path class="st0" d="M183.6,26.4c-0.8,3.3-2.2,5.8-4.3,7.6c-2.2,1.8-4.8,2.6-7.8,2.6c-2.7-0.1-5-0.7-6.8-2.1
		c-1.8-1.3-3.2-2.7-4-4.3c-0.3-0.5-0.5-1-0.7-1.5c-0.2-0.5-0.3-1.1-0.5-1.9c-0.2-1.4-0.4-4.2-0.4-8.3c0-4.1,0.1-6.9,0.4-8.3
		c0.3-1.4,0.6-2.5,1.2-3.4c0.8-1.6,2.2-3.1,4-4.4c1.8-1.3,4.1-2,6.8-2c3.3,0,6,1,8.1,3c2.1,2,3.4,4.5,4,7.5h-5.5
		c-0.4-1.4-1.2-2.7-2.3-3.7c-1.2-1-2.6-1.5-4.3-1.5c-1.2,0-2.3,0.3-3.2,0.8c-0.9,0.5-1.6,1.1-2.2,1.8c-0.7,0.8-1.1,1.8-1.4,3
		c-0.3,1.3-0.4,3.7-0.4,7.2s0.1,5.9,0.4,7.1c0.2,1.2,0.7,2.2,1.4,3c0.6,0.7,1.3,1.3,2.2,1.8c0.9,0.5,1.9,0.8,3.2,0.8
		c2.9,0,5.1-1.6,6.6-4.9H183.6z"/>
	<path class="st0" d="M197.5,5.6h-9.4V0.8h24.1v4.8h-9.5v30.8h-5.2V5.6z"/>
	<path class="st0" d="M233,0.8h5.2v23c0,2.4,0.7,4.3,2,5.5c1.3,1.3,3,2,5,2c2,0,3.7-0.7,5-2c1.3-1.3,2-3.1,2-5.5v-23h5.2v23.5
		c-0.1,3.7-1.2,6.7-3.5,8.9c-2.3,2.3-5.2,3.4-8.7,3.4c-3.5,0-6.3-1.2-8.7-3.4c-2.4-2.2-3.6-5.2-3.6-8.9V0.8z"/>
	<path class="st0" d="M267.2,27.8c2.7,2.3,6,3.5,9.8,3.5c4.5-0.1,6.8-1.7,6.8-5c0-2.7-1.5-4.3-4.5-4.8c-1.4-0.2-2.9-0.4-4.6-0.7
		c-3-0.5-5.2-1.6-6.8-3.4c-1.6-1.8-2.4-4-2.4-6.6c0-3.1,1-5.6,3-7.5c1.9-1.9,4.7-2.9,8.2-2.9c4.3,0.1,8,1.3,11.2,3.7l-2.9,4.4
		c-2.6-1.8-5.4-2.7-8.5-2.7c-1.6,0-2.9,0.4-4,1.2c-1.1,0.9-1.7,2.2-1.7,3.9c0,1,0.4,2,1.2,2.8c0.8,0.8,2,1.4,3.7,1.8
		c0.9,0.2,2.2,0.4,3.9,0.6c3.2,0.5,5.6,1.7,7.2,3.6c1.5,1.9,2.3,4.1,2.3,6.6c-0.2,6.8-4.2,10.3-12.1,10.4c-5.1,0-9.5-1.6-13.2-4.9
		L267.2,27.8z"/>
</g>
</svg>
