<?xml version="1.0" encoding="utf-8"?>
<!-- Generator: Adobe Illustrator 27.5.0, SVG Export Plug-In . SVG Version: 6.00 Build 0)  -->
<svg version="1.1" id="レイヤー_1" xmlns="http://www.w3.org/2000/svg" xmlns:xlink="http://www.w3.org/1999/xlink" x="0px"
	 y="0px" width="675px" height="1240px" viewBox="0 0 675 1240" style="enable-background:new 0 0 675 1240;" xml:space="preserve">
<style type="text/css">
	.st0{fill:none;stroke:#E6E6E6;stroke-width:0.9186;stroke-miterlimit:10;}
	.st1{fill:#FFFFFF;}
	.st2{fill:none;stroke:#00AA32;stroke-width:0.8685;stroke-miterlimit:10;}
</style>
<g>
	<path d="M0.6,15c4.1-4,6.8-6.7,6.8-9c0-1.6-0.9-2.5-2.3-2.5C4,3.5,2.9,4.2,2.2,5.1L0.4,3.3C1.8,1.9,3.3,1,5.4,1c3.1,0,5,2,5,4.9
		c0,2.7-2.5,5.6-5.4,8.5c0.7,0,1.8-0.2,2.7-0.2h3.4v2.7H0.6V15z"/>
	<path d="M15.3,9.1c0-5.2,2.2-8.1,5.4-8.1s5.4,2.7,5.4,8.1c0,5.2-2.2,8.1-5.4,8.1S15.3,14.3,15.3,9.1z M23.3,9.1
		c0-4.3-1.1-5.6-2.3-5.6c-1.3,0-2.3,1.3-2.3,5.6s1.1,5.8,2.3,5.8C22.2,14.9,23.3,13.4,23.3,9.1z"/>
	<path d="M30.1,15c4.1-4,6.8-6.7,6.8-9c0-1.6-0.9-2.5-2.3-2.5c-1.1,0-2.2,0.7-2.9,1.6l-1.8-1.8C31.4,1.9,32.8,1,35,1
		c3.1,0,5,2,5,4.9c0,2.7-2.5,5.6-5.4,8.5c0.7,0,1.8-0.2,2.7-0.2h3.4v2.7H30.1V15z"/>
	<path d="M44.9,14.9l1.4-2c0.9,0.9,2.2,1.6,3.6,1.6c1.6,0,2.7-0.7,2.7-2.2S51.7,10,48.3,10V7.7c2.9,0,4-0.9,4-2.3c0-1.3-0.7-2-2.2-2
		c-1.1,0-2.2,0.5-3.1,1.4l-1.6-2C46.7,1.7,48.3,1,50.1,1c3.1,0,5.2,1.4,5.2,4.1c0,1.6-1.1,2.9-2.7,3.6v0.2c1.8,0.5,3.2,1.8,3.2,3.8
		c0,2.9-2.5,4.5-5.6,4.5C47.7,17.2,45.9,16.3,44.9,14.9z"/>
	<path d="M60.5,15c0-1.3,0.9-2.2,2-2.2s2,0.9,2,2.2c0,1.1-0.9,2.2-2,2.2S60.5,16.3,60.5,15z"/>
	<path d="M68.8,9.1C68.8,3.9,71,1,74.2,1s5.4,2.7,5.4,8.1c0,5.2-2.2,8.1-5.4,8.1C71,17.2,68.8,14.3,68.8,9.1z M76.5,9.1
		c0-4.3-1.1-5.6-2.3-5.6s-2.5,1.3-2.5,5.6s1.1,5.8,2.3,5.8S76.5,13.4,76.5,9.1z"/>
	<path d="M90.8,3.9h-7.2V1.4h10.6v2C90.6,7.8,90,10.9,89.7,17h-3.2C86.6,11.4,87.7,8,90.8,3.9z"/>
	<path d="M97.1,15c0-1.3,0.9-2.2,2-2.2c1.1,0,2,0.9,2,2.2c0,1.1-0.9,2.2-2,2.2C98,17.2,97.1,16.3,97.1,15z"/>
	<path d="M105.3,9.1c0-5.2,2.2-8.1,5.4-8.1s5.4,2.7,5.4,8.1c0,5.2-2.2,8.1-5.4,8.1S105.3,14.3,105.3,9.1z M113.1,9.1
		c0-4.3-1.1-5.6-2.3-5.6s-2.3,1.3-2.3,5.6s1.1,5.8,2.3,5.8S113.1,13.4,113.1,9.1z"/>
	<path d="M120.3,14.3h3.4V4.6h-2.9v-2c1.6-0.4,2.7-0.7,3.8-1.3h2.3v13h3.1v2.5h-9.7V14.3z"/>
</g>
<g>
	<path d="M15,50.3c3.1,4.1,8.1,8.3,12.6,10.4c-0.5,0.5-1.1,1.3-1.4,1.8c-4.3-2.5-9.4-6.7-12.1-10.1c-2.3,3.4-7,7.6-11.9,10.3
		c-0.2-0.5-0.9-1.3-1.4-1.6c4.9-2.7,9.7-7,12.1-10.8C12.8,50.3,15,50.3,15,50.3z M23.8,72.1c0,1.1-0.2,1.8-1.1,2.2s-2.3,0.4-4.5,0.4
		c-0.2-0.7-0.5-1.4-0.7-2c1.6,0,3.2,0,3.8,0s0.7-0.2,0.7-0.5v-5.9h-8.6v10.4H11V66.3H3.5v-2h20.3V72.1z M20.2,58.8v2H8.1v-2H20.2z"
		/>
	<path d="M41.1,58.8h5v2h-5v0.7c1.1,1.1,4.1,4.7,4.9,5.6l-1.3,1.8c-0.7-1.1-2.3-3.2-3.6-4.9v12.6h-2.2V64c-1.4,3.4-3.2,6.7-5,8.6
		c-0.2-0.5-0.7-1.4-1.3-2c2.2-2.2,4.5-6.1,5.8-9.7h-5v-2h5.6v-4.9c-1.6,0.2-3.2,0.5-4.7,0.7c-0.2-0.5-0.4-1.3-0.5-1.6
		c3.8-0.5,8.3-1.4,10.8-2.3l1.4,1.6c-1.4,0.2-3.1,0.7-4.9,1.1V58.8z M57.6,53v22.1h-2.2V73H49v2.3h-2.2V53H57.6z M55.5,70.8V55H49
		v15.8H55.5z"/>
	<path d="M66.8,71.6l1.3-1.6c1.4,1.4,3.2,2.7,6.1,2.7c2.9,0,5.2-1.8,5.2-5c0-2.9-2.2-4.9-5-4.9c-2,0-3.2,0.4-4.7,1.4l-1.4-0.9
		L69,53.2h12.4v2.3H71.3l-0.5,6.3c1.3-0.7,2.5-1.1,4.3-1.1c4,0,7.2,2.2,7.2,6.7c0,4.7-3.8,7.2-7.7,7.2
		C70.8,74.8,68.4,73.4,66.8,71.6z"/>
	<path d="M116.9,69.9h-10.4v6.7h-2.2v-6.7H90.9v-2.2h4.7V60h8.6v-4.3h-7c-1.3,2.2-2.9,4.1-4.3,5.8c-0.4-0.4-1.3-1.1-1.8-1.4
		c2.7-2.3,5-6.1,6.5-9.9l2.2,0.5c-0.4,1.1-0.9,2-1.3,3.1h17.1v2.2h-9.2v4.3h8.5v2h-8.5V68h10.4V69.9z M104.3,68v-5.8h-6.5V68H104.3z
		"/>
	<path d="M126.2,55v6.3c0,4.5-0.4,11-2.9,15.3c-0.4-0.4-1.3-0.9-1.8-1.3c2.3-4.1,2.5-9.9,2.5-14v-8.1h10.6v-2.9h2.2v2.9h10.8V55
		H126.2z M145.5,67.2c-1.3,2.5-3.2,4.3-5.8,5.8c2.5,0.9,5.4,1.4,8.5,1.8c-0.5,0.4-1.1,1.3-1.3,1.8c-3.6-0.5-6.7-1.3-9.5-2.5
		c-3.1,1.3-6.5,2-10.1,2.5c-0.2-0.5-0.5-1.3-0.9-1.8c3.1-0.4,6.1-0.9,8.8-1.8c-1.8-1.1-3.4-2.5-4.5-4.1l1.1-0.4h-4.3v-1.8h16.2h0.4
		L145.5,67.2z M131.8,64.9v-4.7h-4.5v-1.8h4.5v-2.5h2v2.5h7v-2.5h2.2v2.5h4.7v1.8H143v4.7H131.8z M132.9,68.3
		c1.1,1.4,2.7,2.7,4.7,3.6c2-0.9,3.6-2.2,4.9-3.6H132.9z M133.8,60v3.1h7V60H133.8z"/>
	<path d="M164,68.3c-0.7-0.9-2.3-2.5-3.6-3.6v11.9h-2.2V65.4c-1.4,1.4-2.9,2.7-4.3,3.6c-0.2-0.5-0.7-1.4-1.1-2c3.4-2,7-5.6,9-9.4
		h-7.9v-2h4.5v-5.4h2.2v5.4h2.5h0.4l1.3,0.7c-0.9,2.2-2.2,4.3-3.8,6.3c1.4,1.1,4,3.2,4.7,4L164,68.3z M180,73.7v2.2h-16.2v-2.2h7.2
		V61.8h-6.1v-2.2h6.1v-9.2h2.2v9.2h6.1v2.2h-6.1v11.9H180z"/>
	<path d="M194.3,71.7l2,1.3c-2.3,1.4-5.9,2.9-9,3.6c-0.4-0.4-1.1-1.1-1.6-1.6C188.5,74.3,192.3,73,194.3,71.7h-5.6V59.3H209v12.4
		H194.3z M207.9,57.9h-18v-6.5h18V57.9z M190.8,63.1h16v-2h-16V63.1z M190.8,66.7h16v-2h-16V66.7z M190.8,70.3h16v-2.2h-16V70.3z
		 M205.6,53.2h-13.7v3.1h13.7V53.2z M202.9,71.9c2.9,0.9,6.8,2.3,9,3.2l-1.8,1.6c-2.2-1.1-5.9-2.5-9-3.4L202.9,71.9z"/>
	<path d="M228.8,61.7c-0.2,9.7-0.4,13-1.1,13.9c-0.4,0.7-0.9,0.9-1.6,0.9s-1.8,0-3.1,0c0-0.5-0.2-1.4-0.5-2c1.3,0.2,2.2,0.2,2.7,0.2
		c0.4,0,0.7,0,0.9-0.4c0.5-0.7,0.7-3.6,0.9-11.7h-3.6c-0.2,4.5-0.9,9.5-4.1,14c-0.4-0.4-1.1-0.9-1.6-1.3c3.4-4.7,3.8-10.3,3.8-14.6
		v-4h-3.2V55h5v-4.7h2V55h4.7v2h-6.5v3.8h5.4C228.8,60.8,228.8,61.7,228.8,61.7z M233,56.1c-0.9,1.6-1.8,3.1-2.9,4.3
		c-0.4-0.4-1.3-1.1-1.8-1.4c2.2-2.2,3.8-5.4,4.7-8.8l2.2,0.4c-0.4,1.1-0.7,2.3-1.1,3.4h9.9v2h-11V56.1z M244.5,63.1
		c-1.4,1.4-3.4,2.9-5,4.1c1.3,3.2,2.9,5.9,5.2,7.6c-0.5,0.4-1.1,1.3-1.4,1.8c-4-2.9-5.9-8.3-7-14.8c-0.7,0.4-1.3,0.5-2,0.7v14h-2
		V63.3c-0.5,0.2-1.1,0.4-1.6,0.5c-0.2-0.5-0.7-1.3-1.3-1.8c4-0.9,9.5-3.1,12.1-5l1.4,1.1c-1.3,0.9-3.1,2-5,2.9
		c0.2,1.6,0.5,3.1,1.1,4.5c1.4-1.1,3.1-2.5,4.1-3.6L244.5,63.1z"/>
	<path d="M259.4,57.2c-0.9,1.4-2,2.9-3.2,4.3v15.1H254V63.8c-1.1,1.1-2.2,2.2-3.2,3.1c-0.4-0.4-1.1-1.4-1.4-1.8
		c2.9-2.2,6.1-5.4,8.1-8.6L259.4,57.2z M258.3,51c-1.8,2.5-4.9,5.4-7.4,7.2c-0.4-0.5-0.9-1.3-1.3-1.6c2.3-1.6,5.2-4.1,6.7-6.3
		L258.3,51z M276,62h-4.5v11.9c0,1.3-0.4,2-1.3,2.3c-0.9,0.4-2.5,0.4-5.4,0.4c0-0.5-0.4-1.4-0.7-2.2c2,0,4,0,4.5,0s0.7-0.2,0.7-0.7
		V61.8h-9.5v-2H276V62z M275.1,54.1h-14v-2h14V54.1z"/>
	<path d="M286.4,54.6c-0.5,2.7-1.4,7.7-1.4,11c0,1.4,0,2.7,0.2,4c0.5-1.3,1.3-3.1,1.6-4.1l1.3,0.9c-0.7,2-1.8,5-2,6.5
		c0,0.4-0.2,0.9-0.2,1.3s0,0.7,0,1.1l-2.2,0.2c-0.5-2-1.1-5.4-1.1-9.2c0-4.3,0.9-9.2,1.3-11.5c0.2-0.7,0.2-1.4,0.2-2l2.5,0.2
		C286.8,53.2,286.4,54.1,286.4,54.6z M293.1,69.4c0,1.3,0.9,2.5,4.9,2.5c2.5,0,4.9-0.2,7.2-0.7v2.3c-1.8,0.4-4.3,0.5-7.2,0.5
		c-4.9,0-7-1.6-7-4.3c0-0.9,0.2-2,0.5-3.4l2.2,0.2C293.3,67.8,293.1,68.5,293.1,69.4z M304.2,55v2.3c-3.1,0.4-8.6,0.4-11.9,0V55
		C295.6,55.5,301.4,55.4,304.2,55z"/>
	<path d="M314.5,55.2c1.8-0.2,7.4-0.7,12.6-1.3c3.1-0.4,5.8-0.4,7.7-0.5v2.3c-1.6,0-4.1,0-5.6,0.5c-4.1,1.3-6.7,5.8-6.7,9.2
		c0,5.6,5.2,7.4,9.9,7.6l-0.9,2.3c-5.4-0.2-11.3-3.1-11.3-9.5c0-4.5,2.7-8.1,5.4-9.7c-3.1,0.4-10.4,1.1-13.5,1.6l-0.2-2.5
		C312.9,55.2,314,55.2,314.5,55.2z"/>
	<path d="M353.6,50.5c7.2,0,13,5.8,13,13s-5.8,13-13,13c-7.2,0-13-5.8-13-13C340.6,56.3,346.4,50.5,353.6,50.5z"/>
	<path d="M385.4,50.5c7.2,0,13,5.8,13,13s-5.8,13-13,13s-13-5.8-13-13S378.2,50.5,385.4,50.5z"/>
	<path d="M409,54.6c-0.5,2.7-1.4,7.7-1.4,11c0,1.4,0,2.7,0.2,4c0.5-1.3,1.3-3.1,1.6-4.1l1.3,0.9c-0.7,2-1.8,5-2,6.5
		c0,0.4-0.2,0.9-0.2,1.3s0,0.7,0,1.1l-2.2,0.2c-0.5-2-1.1-5.4-1.1-9.2c0-4.3,0.9-9.2,1.3-11.5c0.2-0.7,0.2-1.4,0.2-2l2.5,0.2
		C409.4,53.2,409.2,54.1,409,54.6z M415.7,69.4c0,1.3,0.9,2.5,4.9,2.5c2.5,0,4.9-0.2,7.2-0.7v2.3c-1.8,0.4-4.3,0.5-7.2,0.5
		c-4.9,0-7-1.6-7-4.3c0-0.9,0.2-2,0.5-3.4l2.2,0.2C415.8,67.8,415.7,68.5,415.7,69.4z M426.8,55v2.3c-3.1,0.4-8.6,0.4-11.9,0V55
		C418.2,55.5,423.9,55.4,426.8,55z"/>
	<path d="M443.6,57.2c-0.9,1.4-2,2.9-3.2,4.3v15.1h-2.2V63.8c-1.1,1.1-2.2,2.2-3.2,3.1c-0.4-0.4-1.1-1.4-1.4-1.8
		c2.9-2.2,6.1-5.4,8.1-8.6L443.6,57.2z M442.5,51c-1.8,2.5-4.9,5.4-7.4,7.2c-0.4-0.5-0.9-1.3-1.3-1.6c2.3-1.6,5.2-4.1,6.7-6.3
		L442.5,51z M460.1,62h-4.3v11.9c0,1.3-0.4,2-1.3,2.3c-0.9,0.4-2.5,0.4-5.4,0.4c0-0.5-0.4-1.4-0.7-2.2c2,0,4,0,4.5,0
		s0.7-0.2,0.7-0.7V61.8h-9.5v-2h16.2V62H460.1z M459.4,54.1h-14v-2h14V54.1z"/>
	<path d="M470.2,62.2c2-0.7,6.8-2.3,10.3-2.3c4.1,0,7,2.5,7,6.5c0,5.6-5.4,8.3-13.1,8.8l-0.9-2.2c6.3-0.2,11.7-2,11.7-6.7
		c0-2.3-2-4.3-4.9-4.3c-3.6,0-9.9,2.7-11.7,3.4l-0.9-2.3C468.2,62.7,469.1,62.4,470.2,62.2z"/>
	<path d="M494.5,55.2c1.8-0.2,7.4-0.7,12.6-1.3c3.1-0.4,5.8-0.4,7.7-0.5v2.3c-1.6,0-4.1,0-5.6,0.5c-4.1,1.3-6.7,5.8-6.7,9.2
		c0,5.6,5.2,7.4,9.9,7.6l-0.9,2.3c-5.4-0.2-11.3-3.1-11.3-9.5c0-4.5,2.7-8.1,5.4-9.7c-3.1,0.4-10.4,1.1-13.5,1.6l-0.2-2.5
		C493.1,55.2,494,55.2,494.5,55.2z"/>
	<path d="M532.1,51.8l2.5-0.4c0.2,1.1,0.4,2.3,0.7,3.4c2-0.2,4.1-0.7,5.9-1.3l0.4,2.2c-1.6,0.5-3.6,0.9-5.8,1.1
		c0.2,0.7,0.4,1.4,0.7,2c0.2,0.5,0.4,1.1,0.7,1.8c2.3-0.4,4.3-0.7,5.8-1.3l0.4,2.2c-1.4,0.4-3.2,0.7-5.2,1.1c0.5,1.3,1.3,2.5,2,3.6
		c0.4,0.5,0.7,0.9,1.1,1.3l-1.3,1.8c-1.6-0.4-4.3-0.7-6.3-0.9l0.2-1.8c1.4,0.2,3.4,0.4,4.3,0.5c-0.9-1.3-1.6-2.7-2.2-4.1
		c-3.6,0.4-8.3,0.4-12.6,0l-0.2-2.2c4.3,0.5,8.6,0.4,11.9,0.2c-0.2-0.5-0.4-1.1-0.5-1.4c-0.4-0.7-0.5-1.6-0.7-2.2
		c-2.9,0.2-6.3,0.2-9.9-0.2l-0.2-2.2c3.4,0.4,6.7,0.5,9.5,0.4c0-0.2-0.2-0.5-0.2-0.7C532.7,53.4,532.5,52.5,532.1,51.8z M526.2,69.9
		c0,2.3,2.2,3.6,6.7,3.6c2.7,0,4.9-0.2,6.8-0.5v2.3c-2,0.4-4.3,0.5-6.7,0.5c-5.6,0-8.8-1.6-8.8-5.4c0-1.6,0.5-2.9,1.1-4.1l2.2,0.5
		C526.5,67.8,526.2,68.7,526.2,69.9z"/>
	<path d="M563.4,53.4c0,0.4,0,1.1,0,1.8c2.5-0.2,5.2-0.4,7.7-0.7v2.2c-2.3,0.2-5,0.5-7.7,0.7c0,1.3,0,2.7,0,3.6c0,0.2,0,0.2,0,0.4
		c2.9-0.2,5.4-0.4,8.1-0.7v2.2c-2.7,0.4-5.2,0.5-7.9,0.7c0,1.4,0.2,3.1,0.2,4.5c3.8,1.1,6.8,3.1,8.5,4.5l-1.3,2
		c-1.6-1.6-4.1-3.2-7-4.3c0,0.7,0,1.3,0,1.8c0,2-1.3,4-5,4c-4.1,0-6.5-1.4-6.5-4.3c0-2.7,2.5-4.3,6.7-4.3c0.9,0,1.6,0,2.3,0.2
		c0-1.3,0-2.7-0.2-4c-0.5,0-1.1,0-1.6,0c-2,0-5-0.2-7.2-0.4v-2.2c2.2,0.4,5.4,0.5,7.2,0.5c0.5,0,1.1,0,1.6,0c0-0.2,0-0.4,0-0.4
		c0-1.1,0-2.3,0-3.6c-0.4,0-0.9,0-1.3,0c-2,0-5.6-0.4-7.4-0.5v-2.2c1.8,0.4,5.4,0.7,7.4,0.7c0.4,0,0.9,0,1.3,0c0-0.7,0-1.4,0-2
		s0-1.3-0.2-1.8h2.5C563.6,52.1,563.4,52.7,563.4,53.4z M558.6,73.7c1.6,0,3.1-0.5,3.1-2.5c0-0.5,0-1.3,0-2
		c-0.9-0.2-1.8-0.4-2.9-0.4c-2.7,0-4.3,1.1-4.3,2.3S555.7,73.7,558.6,73.7z"/>
	<path d="M584.5,54.8c-0.2,3.2-0.4,10.1-0.4,14.4c0,3.2,2,4.3,4.7,4.3c5.2,0,8.3-2.9,10.3-5.9l1.6,2c-2,2.7-5.8,6.3-12.1,6.3
		c-4.1,0-7-1.8-7-6.5c0-4.3,0.4-11.5,0.4-14.6c0-1.1,0-2.2-0.2-2.9h2.9C584.5,52.8,584.5,53.9,584.5,54.8z"/>
	<path d="M616.2,54.1c-0.2,0.5-0.2,1.4-0.4,2.2c1.8-0.2,3.8-0.5,5.6-1.1v2.3c-1.8,0.4-4,0.7-5.9,0.9c-0.2,1.3-0.5,2.5-0.9,3.8
		c-1.1,4.1-3.1,10.1-4.5,13.1l-2.5-0.9c1.8-2.9,3.8-8.8,4.9-13c0.2-0.9,0.5-2,0.7-3.1c-0.9,0-1.8,0-2.7,0c-1.3,0-2.3,0-3.4-0.2v-2.2
		c1.4,0.2,2.3,0.2,3.4,0.2c0.9,0,2,0,3.1-0.2c0.2-1.1,0.4-2,0.4-2.5c0.2-0.7,0.2-1.8,0-2.3l2.7,0.2
		C616.5,52.3,616.4,53.4,616.2,54.1z M619.6,70.1c0,1.4,0.7,2.7,4.9,2.7c1.8,0,3.8-0.2,5.6-0.5v2.3c-1.6,0.2-3.4,0.4-5.6,0.4
		c-4.5,0-7-1.4-7-4.3c0-1.1,0.2-2.2,0.4-3.4l2.2,0.2C619.8,68.5,619.6,69.4,619.6,70.1z M624.8,60.2c1.6,0,3.4,0,5,0.2v2.2
		c-1.4-0.2-3.2-0.4-4.9-0.4c-1.8,0-3.6,0-5.4,0.4v-2.2C621,60.4,622.8,60.2,624.8,60.2z"/>
	<path d="M645.7,71.7c0,2.5-2,4.3-4.3,4.3c-2.3,0-4.3-2-4.3-4.3s2-4.3,4.3-4.3C643.7,67.4,645.7,69.4,645.7,71.7z M644.3,71.7
		c0-1.6-1.3-2.9-2.9-2.9s-2.9,1.3-2.9,2.9c0,1.6,1.3,2.9,2.9,2.9C642.8,74.6,644.3,73.4,644.3,71.7z"/>
</g>
<line class="st0" x1="0" y1="108.7" x2="675" y2="108.7"/>
<g>
	<path d="M0.6,154.7c4.1-4,6.8-6.7,6.8-9c0-1.6-0.9-2.5-2.3-2.5c-1.1,0-2.2,0.7-2.9,1.6L0.4,143c1.4-1.4,2.9-2.3,5-2.3
		c3.1,0,5,2,5,4.9c0,2.7-2.5,5.6-5.4,8.5c0.7,0,1.8-0.2,2.7-0.2h3.4v2.7H0.6V154.7z"/>
	<path d="M15.3,148.7c0-5.2,2.2-8.1,5.4-8.1s5.4,2.7,5.4,8.1c0,5.2-2.2,8.1-5.4,8.1S15.3,153.9,15.3,148.7z M23.3,148.7
		c0-4.3-1.1-5.6-2.3-5.6c-1.3,0-2.3,1.3-2.3,5.6c0,4.3,1.1,5.8,2.3,5.8C22.2,154.5,23.3,153,23.3,148.7z"/>
	<path d="M30.1,154.7c4.1-4,6.8-6.7,6.8-9c0-1.6-0.9-2.5-2.3-2.5c-1.1,0-2.2,0.7-2.9,1.6l-1.8-1.8c1.4-1.4,2.9-2.3,5-2.3
		c3.1,0,5,2,5,4.9c0,2.7-2.5,5.6-5.4,8.5c0.7,0,1.8-0.2,2.7-0.2h3.4v2.7H30.1V154.7z"/>
	<path d="M44.9,154.5l1.4-2c0.9,0.9,2.2,1.6,3.6,1.6c1.6,0,2.7-0.7,2.7-2.2s-0.9-2.3-4.3-2.3v-2.3c2.9,0,4-0.9,4-2.3
		c0-1.3-0.7-2-2.2-2c-1.1,0-2.2,0.5-3.1,1.4l-1.6-2c1.3-1.1,2.9-1.8,4.7-1.8c3.1,0,5.2,1.4,5.2,4.1c0,1.6-1.1,2.9-2.7,3.6v0.2
		c1.8,0.5,3.2,1.8,3.2,3.8c0,2.9-2.5,4.5-5.6,4.5C47.7,156.8,45.9,155.9,44.9,154.5z"/>
	<path d="M60.5,154.7c0-1.3,0.9-2.2,2-2.2s2,0.9,2,2.2c0,1.1-0.9,2.2-2,2.2S60.5,155.9,60.5,154.7z"/>
	<path d="M68.8,148.7c0-5.2,2.2-8.1,5.4-8.1s5.4,2.7,5.4,8.1c0,5.2-2.2,8.1-5.4,8.1C71,156.8,68.8,153.9,68.8,148.7z M76.5,148.7
		c0-4.3-1.1-5.6-2.3-5.6s-2.5,1.3-2.5,5.6c0,4.3,1.1,5.8,2.3,5.8S76.5,153,76.5,148.7z"/>
	<path d="M90.8,143.5h-7.2V141h10.6v2c-3.6,4.5-4.1,7.6-4.5,13.7h-3.2C86.6,151.1,87.7,147.6,90.8,143.5z"/>
	<path d="M97.1,154.7c0-1.3,0.9-2.2,2-2.2c1.1,0,2,0.9,2,2.2c0,1.1-0.9,2.2-2,2.2C98,156.8,97.1,155.9,97.1,154.7z"/>
	<path d="M105.3,148.7c0-5.2,2.2-8.1,5.4-8.1s5.4,2.7,5.4,8.1c0,5.2-2.2,8.1-5.4,8.1S105.3,153.9,105.3,148.7z M113.1,148.7
		c0-4.3-1.1-5.6-2.3-5.6s-2.3,1.3-2.3,5.6c0,4.3,1.1,5.8,2.3,5.8S113.1,153,113.1,148.7z"/>
	<path d="M120.3,153.9h3.4v-9.7h-2.9v-2c1.6-0.4,2.7-0.7,3.8-1.3h2.3v13h3.1v2.5h-9.7V153.9z"/>
</g>
<g>
	<path d="M15,189.9c3.1,4.1,8.1,8.3,12.6,10.4c-0.5,0.5-1.1,1.3-1.4,1.8c-4.3-2.5-9.4-6.7-12.1-10.1c-2.3,3.4-7,7.6-11.9,10.3
		c-0.2-0.5-0.9-1.3-1.4-1.6c4.9-2.7,9.7-7,12.1-10.8C12.8,189.9,15,189.9,15,189.9z M23.8,211.7c0,1.1-0.2,1.8-1.1,2.2
		s-2.3,0.4-4.5,0.4c-0.2-0.7-0.5-1.4-0.7-2c1.6,0,3.2,0,3.8,0s0.7-0.2,0.7-0.5v-5.9h-8.6v10.4H11V206H3.5v-2h20.3V211.7z
		 M20.2,198.4v2H8.1v-2H20.2z"/>
	<path d="M41.1,198.4h5v2h-5v0.7c1.1,1.1,4.1,4.7,4.9,5.6l-1.3,1.8c-0.7-1.1-2.3-3.2-3.6-4.9v12.6h-2.2v-12.6
		c-1.4,3.4-3.2,6.7-5,8.6c-0.2-0.5-0.7-1.4-1.3-2c2.2-2.2,4.5-6.1,5.8-9.7h-5v-2h5.6v-4.9c-1.6,0.2-3.2,0.5-4.7,0.7
		c-0.2-0.5-0.4-1.3-0.5-1.6c3.8-0.5,8.3-1.4,10.8-2.3l1.4,1.6c-1.4,0.2-3.1,0.7-4.9,1.1V198.4z M57.6,192.6v22.1h-2.2v-2.2H49v2.3
		h-2.2v-22.3H57.6z M55.5,210.5v-15.8H49v15.8H55.5z"/>
	<path d="M66.8,211.2l1.3-1.6c1.4,1.4,3.2,2.7,6.1,2.7c2.9,0,5.2-1.8,5.2-5c0-2.9-2.2-4.9-5-4.9c-2,0-3.2,0.4-4.7,1.4l-1.4-0.9
		l0.7-10.1h12.4v2.3H71.3l-0.5,6.3c1.3-0.7,2.5-1.1,4.3-1.1c4,0,7.2,2.2,7.2,6.7c0,4.7-3.8,7.2-7.7,7.2
		C70.8,214.4,68.4,213,66.8,211.2z"/>
	<path d="M116.9,209.6h-10.4v6.7h-2.2v-6.7H90.9v-2.2h4.7v-7.7h8.6v-4.3h-7c-1.3,2.2-2.9,4.1-4.3,5.8c-0.4-0.4-1.3-1.1-1.8-1.4
		c2.7-2.3,5-6.1,6.5-9.9l2.2,0.5c-0.4,1.1-0.9,2-1.3,3.1h17.1v2.2h-9.2v4.3h8.5v2h-8.5v5.8h10.4V209.6z M104.3,207.6v-5.8h-6.5v5.8
		H104.3z"/>
	<path d="M126.2,194.6v6.3c0,4.5-0.4,11-2.9,15.3c-0.4-0.4-1.3-0.9-1.8-1.3c2.3-4.1,2.5-9.9,2.5-14v-8.1h10.6v-2.9h2.2v2.9h10.8v1.8
		H126.2z M145.5,206.9c-1.3,2.5-3.2,4.3-5.8,5.8c2.5,0.9,5.4,1.4,8.5,1.8c-0.5,0.4-1.1,1.3-1.3,1.8c-3.6-0.5-6.7-1.3-9.5-2.5
		c-3.1,1.3-6.5,2-10.1,2.5c-0.2-0.5-0.5-1.3-0.9-1.8c3.1-0.4,6.1-0.9,8.8-1.8c-1.8-1.1-3.4-2.5-4.5-4.1l1.1-0.4h-4.3v-1.8h16.2h0.4
		L145.5,206.9z M131.8,204.5v-4.7h-4.5V198h4.5v-2.5h2v2.5h7v-2.5h2.2v2.5h4.7v1.8H143v4.7H131.8z M132.9,207.9
		c1.1,1.4,2.7,2.7,4.7,3.6c2-0.9,3.6-2.2,4.9-3.6H132.9z M133.8,199.7v3.1h7v-3.1H133.8z"/>
	<path d="M164,207.9c-0.7-0.9-2.3-2.5-3.6-3.6v11.9h-2.2v-11.2c-1.4,1.4-2.9,2.7-4.3,3.6c-0.2-0.5-0.7-1.4-1.1-2c3.4-2,7-5.6,9-9.4
		h-7.9v-2h4.5v-5.4h2.2v5.4h2.5h0.4l1.3,0.7c-0.9,2.2-2.2,4.3-3.8,6.3c1.4,1.1,4,3.2,4.7,4L164,207.9z M180,213.3v2.2h-16.2v-2.2
		h7.2v-11.9h-6.1v-2.2h6.1v-9.2h2.2v9.2h6.1v2.2h-6.1v11.9H180z"/>
	<path d="M194.3,211.4l2,1.3c-2.3,1.4-5.9,2.9-9,3.6c-0.4-0.4-1.1-1.1-1.6-1.6C188.5,213.9,192.3,212.6,194.3,211.4h-5.6v-12.4H209
		v12.4H194.3z M207.9,197.5h-18V191h18V197.5z M190.8,202.7h16v-2h-16V202.7z M190.8,206.3h16v-2h-16V206.3z M190.8,209.9h16v-2.2
		h-16V209.9z M205.6,192.8h-13.7v3.1h13.7V192.8z M202.9,211.5c2.9,0.9,6.8,2.3,9,3.2l-1.8,1.6c-2.2-1.1-5.9-2.5-9-3.4L202.9,211.5z
		"/>
	<path d="M228.8,201.3c-0.2,9.7-0.4,13-1.1,13.9c-0.4,0.7-0.9,0.9-1.6,0.9s-1.8,0-3.1,0c0-0.5-0.2-1.4-0.5-2
		c1.3,0.2,2.2,0.2,2.7,0.2c0.4,0,0.7,0,0.9-0.4c0.5-0.7,0.7-3.6,0.9-11.7h-3.6c-0.2,4.5-0.9,9.5-4.1,14c-0.4-0.4-1.1-0.9-1.6-1.3
		c3.4-4.7,3.8-10.3,3.8-14.6v-4h-3.2v-1.8h5v-4.7h2v4.7h4.7v2h-6.5v3.8h5.4C228.8,200.4,228.8,201.3,228.8,201.3z M233,195.7
		c-0.9,1.6-1.8,3.1-2.9,4.3c-0.4-0.4-1.3-1.1-1.8-1.4c2.2-2.2,3.8-5.4,4.7-8.8l2.2,0.4c-0.4,1.1-0.7,2.3-1.1,3.4h9.9v2h-11V195.7z
		 M244.5,202.7c-1.4,1.4-3.4,2.9-5,4.1c1.3,3.2,2.9,5.9,5.2,7.6c-0.5,0.4-1.1,1.3-1.4,1.8c-4-2.9-5.9-8.3-7-14.8
		c-0.7,0.4-1.3,0.5-2,0.7v14h-2v-13.3c-0.5,0.2-1.1,0.4-1.6,0.5c-0.2-0.5-0.7-1.3-1.3-1.8c4-0.9,9.5-3.1,12.1-5l1.4,1.1
		c-1.3,0.9-3.1,2-5,2.9c0.2,1.6,0.5,3.1,1.1,4.5c1.4-1.1,3.1-2.5,4.1-3.6L244.5,202.7z"/>
	<path d="M259.4,196.8c-0.9,1.4-2,2.9-3.2,4.3v15.1H254v-12.8c-1.1,1.1-2.2,2.2-3.2,3.1c-0.4-0.4-1.1-1.4-1.4-1.8
		c2.9-2.2,6.1-5.4,8.1-8.6L259.4,196.8z M258.3,190.7c-1.8,2.5-4.9,5.4-7.4,7.2c-0.4-0.5-0.9-1.3-1.3-1.6c2.3-1.6,5.2-4.1,6.7-6.3
		L258.3,190.7z M276,201.6h-4.5v11.9c0,1.3-0.4,2-1.3,2.3c-0.9,0.4-2.5,0.4-5.4,0.4c0-0.5-0.4-1.4-0.7-2.2c2,0,4,0,4.5,0
		s0.7-0.2,0.7-0.7v-11.9h-9.5v-2H276V201.6z M275.1,193.7h-14v-2h14V193.7z"/>
	<path d="M286.4,194.3c-0.5,2.7-1.4,7.7-1.4,11c0,1.4,0,2.7,0.2,4c0.5-1.3,1.3-3.1,1.6-4.1l1.3,0.9c-0.7,2-1.8,5-2,6.5
		c0,0.4-0.2,0.9-0.2,1.3s0,0.7,0,1.1l-2.2,0.2c-0.5-2-1.1-5.4-1.1-9.2c0-4.3,0.9-9.2,1.3-11.5c0.2-0.7,0.2-1.4,0.2-2l2.5,0.2
		C286.8,192.8,286.4,193.7,286.4,194.3z M293.1,209c0,1.3,0.9,2.5,4.9,2.5c2.5,0,4.9-0.2,7.2-0.7v2.3c-1.8,0.4-4.3,0.5-7.2,0.5
		c-4.9,0-7-1.6-7-4.3c0-0.9,0.2-2,0.5-3.4l2.2,0.2C293.3,207.4,293.1,208.1,293.1,209z M304.2,194.6v2.3c-3.1,0.4-8.6,0.4-11.9,0
		v-2.3C295.6,195.2,301.4,195,304.2,194.6z"/>
	<path d="M314.5,194.8c1.8-0.2,7.4-0.7,12.6-1.3c3.1-0.4,5.8-0.4,7.7-0.5v2.3c-1.6,0-4.1,0-5.6,0.5c-4.1,1.3-6.7,5.8-6.7,9.2
		c0,5.6,5.2,7.4,9.9,7.6l-0.9,2.3c-5.4-0.2-11.3-3.1-11.3-9.5c0-4.5,2.7-8.1,5.4-9.7c-3.1,0.4-10.4,1.1-13.5,1.6l-0.2-2.5
		C312.9,194.8,314,194.8,314.5,194.8z"/>
	<path d="M353.6,190.1c7.2,0,13,5.8,13,13c0,7.2-5.8,13-13,13c-7.2,0-13-5.8-13-13C340.6,195.9,346.4,190.1,353.6,190.1z"/>
	<path d="M385.4,190.1c7.2,0,13,5.8,13,13c0,7.2-5.8,13-13,13s-13-5.8-13-13C372.5,195.9,378.2,190.1,385.4,190.1z"/>
	<path d="M409,194.3c-0.5,2.7-1.4,7.7-1.4,11c0,1.4,0,2.7,0.2,4c0.5-1.3,1.3-3.1,1.6-4.1l1.3,0.9c-0.7,2-1.8,5-2,6.5
		c0,0.4-0.2,0.9-0.2,1.3s0,0.7,0,1.1l-2.2,0.2c-0.5-2-1.1-5.4-1.1-9.2c0-4.3,0.9-9.2,1.3-11.5c0.2-0.7,0.2-1.4,0.2-2l2.5,0.2
		C409.4,192.8,409.2,193.7,409,194.3z M415.7,209c0,1.3,0.9,2.5,4.9,2.5c2.5,0,4.9-0.2,7.2-0.7v2.3c-1.8,0.4-4.3,0.5-7.2,0.5
		c-4.9,0-7-1.6-7-4.3c0-0.9,0.2-2,0.5-3.4l2.2,0.2C415.8,207.4,415.7,208.1,415.7,209z M426.8,194.6v2.3c-3.1,0.4-8.6,0.4-11.9,0
		v-2.3C418.2,195.2,423.9,195,426.8,194.6z"/>
	<path d="M443.6,196.8c-0.9,1.4-2,2.9-3.2,4.3v15.1h-2.2v-12.8c-1.1,1.1-2.2,2.2-3.2,3.1c-0.4-0.4-1.1-1.4-1.4-1.8
		c2.9-2.2,6.1-5.4,8.1-8.6L443.6,196.8z M442.5,190.7c-1.8,2.5-4.9,5.4-7.4,7.2c-0.4-0.5-0.9-1.3-1.3-1.6c2.3-1.6,5.2-4.1,6.7-6.3
		L442.5,190.7z M460.1,201.6h-4.3v11.9c0,1.3-0.4,2-1.3,2.3c-0.9,0.4-2.5,0.4-5.4,0.4c0-0.5-0.4-1.4-0.7-2.2c2,0,4,0,4.5,0
		s0.7-0.2,0.7-0.7v-11.9h-9.5v-2h16.2v2.2H460.1z M459.4,193.7h-14v-2h14V193.7z"/>
	<path d="M470.2,201.8c2-0.7,6.8-2.3,10.3-2.3c4.1,0,7,2.5,7,6.5c0,5.6-5.4,8.3-13.1,8.8l-0.9-2.2c6.3-0.2,11.7-2,11.7-6.7
		c0-2.3-2-4.3-4.9-4.3c-3.6,0-9.9,2.7-11.7,3.4l-0.9-2.3C468.2,202.4,469.1,202,470.2,201.8z"/>
	<path d="M494.5,194.8c1.8-0.2,7.4-0.7,12.6-1.3c3.1-0.4,5.8-0.4,7.7-0.5v2.3c-1.6,0-4.1,0-5.6,0.5c-4.1,1.3-6.7,5.8-6.7,9.2
		c0,5.6,5.2,7.4,9.9,7.6l-0.9,2.3c-5.4-0.2-11.3-3.1-11.3-9.5c0-4.5,2.7-8.1,5.4-9.7c-3.1,0.4-10.4,1.1-13.5,1.6l-0.2-2.5
		C493.1,194.8,494,194.8,494.5,194.8z"/>
	<path d="M532.1,191.4l2.5-0.4c0.2,1.1,0.4,2.3,0.7,3.4c2-0.2,4.1-0.7,5.9-1.3l0.4,2.2c-1.6,0.5-3.6,0.9-5.8,1.1
		c0.2,0.7,0.4,1.4,0.7,2c0.2,0.5,0.4,1.1,0.7,1.8c2.3-0.4,4.3-0.7,5.8-1.3l0.4,2.2c-1.4,0.4-3.2,0.7-5.2,1.1c0.5,1.3,1.3,2.5,2,3.6
		c0.4,0.5,0.7,0.9,1.1,1.3l-1.3,1.8c-1.6-0.4-4.3-0.7-6.3-0.9l0.2-1.8c1.4,0.2,3.4,0.4,4.3,0.5c-0.9-1.3-1.6-2.7-2.2-4.1
		c-3.6,0.4-8.3,0.4-12.6,0l-0.2-2.2c4.3,0.5,8.6,0.4,11.9,0.2c-0.2-0.5-0.4-1.1-0.5-1.4c-0.4-0.7-0.5-1.6-0.7-2.2
		c-2.9,0.2-6.3,0.2-9.9-0.2l-0.2-2.2c3.4,0.4,6.7,0.5,9.5,0.4c0-0.2-0.2-0.5-0.2-0.7C532.7,193,532.5,192.1,532.1,191.4z
		 M526.2,209.6c0,2.3,2.2,3.6,6.7,3.6c2.7,0,4.9-0.2,6.8-0.5v2.3c-2,0.4-4.3,0.5-6.7,0.5c-5.6,0-8.8-1.6-8.8-5.4
		c0-1.6,0.5-2.9,1.1-4.1l2.2,0.5C526.5,207.4,526.2,208.3,526.2,209.6z"/>
	<path d="M563.4,193c0,0.4,0,1.1,0,1.8c2.5-0.2,5.2-0.4,7.7-0.7v2.2c-2.3,0.2-5,0.5-7.7,0.7c0,1.3,0,2.7,0,3.6c0,0.2,0,0.2,0,0.4
		c2.9-0.2,5.4-0.4,8.1-0.7v2.2c-2.7,0.4-5.2,0.5-7.9,0.7c0,1.4,0.2,3.1,0.2,4.5c3.8,1.1,6.8,3.1,8.5,4.5l-1.3,2
		c-1.6-1.6-4.1-3.2-7-4.3c0,0.7,0,1.3,0,1.8c0,2-1.3,4-5,4c-4.1,0-6.5-1.4-6.5-4.3c0-2.7,2.5-4.3,6.7-4.3c0.9,0,1.6,0,2.3,0.2
		c0-1.3,0-2.7-0.2-4c-0.5,0-1.1,0-1.6,0c-2,0-5-0.2-7.2-0.4v-2.2c2.2,0.4,5.4,0.5,7.2,0.5c0.5,0,1.1,0,1.6,0c0-0.2,0-0.4,0-0.4
		c0-1.1,0-2.3,0-3.6c-0.4,0-0.9,0-1.3,0c-2,0-5.6-0.4-7.4-0.5v-2.2c1.8,0.4,5.4,0.7,7.4,0.7c0.4,0,0.9,0,1.3,0c0-0.7,0-1.4,0-2
		c0-0.5,0-1.3-0.2-1.8h2.5C563.6,191.7,563.4,192.3,563.4,193z M558.6,213.3c1.6,0,3.1-0.5,3.1-2.5c0-0.5,0-1.3,0-2
		c-0.9-0.2-1.8-0.4-2.9-0.4c-2.7,0-4.3,1.1-4.3,2.3C554.4,212.1,555.7,213.3,558.6,213.3z"/>
	<path d="M584.5,194.4c-0.2,3.2-0.4,10.1-0.4,14.4c0,3.2,2,4.3,4.7,4.3c5.2,0,8.3-2.9,10.3-5.9l1.6,2c-2,2.7-5.8,6.3-12.1,6.3
		c-4.1,0-7-1.8-7-6.5c0-4.3,0.4-11.5,0.4-14.6c0-1.1,0-2.2-0.2-2.9h2.9C584.5,192.5,584.5,193.5,584.5,194.4z"/>
	<path d="M616.2,193.7c-0.2,0.5-0.2,1.4-0.4,2.2c1.8-0.2,3.8-0.5,5.6-1.1v2.3c-1.8,0.4-4,0.7-5.9,0.9c-0.2,1.3-0.5,2.5-0.9,3.8
		c-1.1,4.1-3.1,10.1-4.5,13.1l-2.5-0.9c1.8-2.9,3.8-8.8,4.9-13c0.2-0.9,0.5-2,0.7-3.1c-0.9,0-1.8,0-2.7,0c-1.3,0-2.3,0-3.4-0.2v-2.2
		c1.4,0.2,2.3,0.2,3.4,0.2c0.9,0,2,0,3.1-0.2c0.2-1.1,0.4-2,0.4-2.5c0.2-0.7,0.2-1.8,0-2.3l2.7,0.2
		C616.5,191.9,616.4,193,616.2,193.7z M619.6,209.7c0,1.4,0.7,2.7,4.9,2.7c1.8,0,3.8-0.2,5.6-0.5v2.3c-1.6,0.2-3.4,0.4-5.6,0.4
		c-4.5,0-7-1.4-7-4.3c0-1.1,0.2-2.2,0.4-3.4l2.2,0.2C619.8,208.1,619.6,209,619.6,209.7z M624.8,199.8c1.6,0,3.4,0,5,0.2v2.2
		c-1.4-0.2-3.2-0.4-4.9-0.4c-1.8,0-3.6,0-5.4,0.4V200C621,200,622.8,199.8,624.8,199.8z"/>
	<path d="M645.7,211.4c0,2.5-2,4.3-4.3,4.3c-2.3,0-4.3-2-4.3-4.3c0-2.3,2-4.3,4.3-4.3C643.7,207,645.7,209,645.7,211.4z
		 M644.3,211.4c0-1.6-1.3-2.9-2.9-2.9s-2.9,1.3-2.9,2.9c0,1.6,1.3,2.9,2.9,2.9C642.8,214.2,644.3,213,644.3,211.4z"/>
</g>
<line class="st0" x1="0" y1="248.3" x2="675" y2="248.3"/>
<g>
	<path d="M0.6,294.3c4.1-4,6.8-6.7,6.8-9c0-1.6-0.9-2.5-2.3-2.5c-1.1,0-2.2,0.7-2.9,1.6l-1.8-1.8c1.4-1.4,2.9-2.3,5-2.3
		c3.1,0,5,2,5,4.9c0,2.7-2.5,5.6-5.4,8.5c0.7,0,1.8-0.2,2.7-0.2h3.4v2.7H0.6V294.3z"/>
	<path d="M15.3,288.3c0-5.2,2.2-8.1,5.4-8.1s5.4,2.7,5.4,8.1c0,5.2-2.2,8.1-5.4,8.1S15.3,293.6,15.3,288.3z M23.3,288.3
		c0-4.3-1.1-5.6-2.3-5.6c-1.3,0-2.3,1.3-2.3,5.6c0,4.3,1.1,5.8,2.3,5.8C22.2,294.1,23.3,292.7,23.3,288.3z"/>
	<path d="M30.1,294.3c4.1-4,6.8-6.7,6.8-9c0-1.6-0.9-2.5-2.3-2.5c-1.1,0-2.2,0.7-2.9,1.6l-1.8-1.8c1.4-1.4,2.9-2.3,5-2.3
		c3.1,0,5,2,5,4.9c0,2.7-2.5,5.6-5.4,8.5c0.7,0,1.8-0.2,2.7-0.2h3.4v2.7H30.1V294.3z"/>
	<path d="M44.9,294.1l1.4-2c0.9,0.9,2.2,1.6,3.6,1.6c1.6,0,2.7-0.7,2.7-2.2s-0.9-2.3-4.3-2.3v-2.3c2.9,0,4-0.9,4-2.3
		c0-1.3-0.7-2-2.2-2c-1.1,0-2.2,0.5-3.1,1.4l-1.6-2c1.3-1.1,2.9-1.8,4.7-1.8c3.1,0,5.2,1.4,5.2,4.1c0,1.6-1.1,2.9-2.7,3.6v0.2
		c1.8,0.5,3.2,1.8,3.2,3.8c0,2.9-2.5,4.5-5.6,4.5C47.7,296.4,45.9,295.5,44.9,294.1z"/>
	<path d="M60.5,294.3c0-1.3,0.9-2.2,2-2.2s2,0.9,2,2.2c0,1.1-0.9,2.2-2,2.2S60.5,295.5,60.5,294.3z"/>
	<path d="M68.8,288.3c0-5.2,2.2-8.1,5.4-8.1s5.4,2.7,5.4,8.1c0,5.2-2.2,8.1-5.4,8.1C71,296.4,68.8,293.6,68.8,288.3z M76.5,288.3
		c0-4.3-1.1-5.6-2.3-5.6s-2.5,1.3-2.5,5.6c0,4.3,1.1,5.8,2.3,5.8S76.5,292.7,76.5,288.3z"/>
	<path d="M90.8,283.1h-7.2v-2.5h10.6v2c-3.6,4.5-4.1,7.6-4.5,13.7h-3.2C86.6,290.7,87.7,287.3,90.8,283.1z"/>
	<path d="M97.1,294.3c0-1.3,0.9-2.2,2-2.2c1.1,0,2,0.9,2,2.2c0,1.1-0.9,2.2-2,2.2C98,296.4,97.1,295.5,97.1,294.3z"/>
	<path d="M105.3,288.3c0-5.2,2.2-8.1,5.4-8.1s5.4,2.7,5.4,8.1c0,5.2-2.2,8.1-5.4,8.1S105.3,293.6,105.3,288.3z M113.1,288.3
		c0-4.3-1.1-5.6-2.3-5.6s-2.3,1.3-2.3,5.6c0,4.3,1.1,5.8,2.3,5.8S113.1,292.7,113.1,288.3z"/>
	<path d="M120.3,293.6h3.4v-9.7h-2.9v-2c1.6-0.4,2.7-0.7,3.8-1.3h2.3v13h3.1v2.5h-9.7V293.6z"/>
</g>
<g>
	<path d="M15,329.6c3.1,4.1,8.1,8.3,12.6,10.4c-0.5,0.5-1.1,1.3-1.4,1.8c-4.3-2.5-9.4-6.7-12.1-10.1c-2.3,3.4-7,7.6-11.9,10.3
		c-0.2-0.5-0.9-1.3-1.4-1.6c4.9-2.7,9.7-7,12.1-10.8C12.8,329.6,15,329.6,15,329.6z M23.8,351.3c0,1.1-0.2,1.8-1.1,2.2
		c-0.9,0.4-2.3,0.4-4.5,0.4c-0.2-0.7-0.5-1.4-0.7-2c1.6,0,3.2,0,3.8,0s0.7-0.2,0.7-0.5v-5.9h-8.6v10.4H11v-10.3H3.5v-2h20.3V351.3z
		 M20.2,338v2H8.1v-2H20.2z"/>
	<path d="M41.1,338h5v2h-5v0.7c1.1,1.1,4.1,4.7,4.9,5.6l-1.3,1.8c-0.7-1.1-2.3-3.2-3.6-4.9v12.6h-2.2v-12.6c-1.4,3.4-3.2,6.7-5,8.6
		c-0.2-0.5-0.7-1.4-1.3-2c2.2-2.2,4.5-6.1,5.8-9.7h-5v-2h5.6v-4.9c-1.6,0.2-3.2,0.5-4.7,0.7c-0.2-0.5-0.4-1.3-0.5-1.6
		c3.8-0.5,8.3-1.4,10.8-2.3l1.4,1.6c-1.4,0.2-3.1,0.7-4.9,1.1V338z M57.6,332.3v22.1h-2.2v-2.2H49v2.3h-2.2v-22.3H57.6z M55.5,350.1
		v-15.8H49v15.8H55.5z"/>
	<path d="M66.8,350.8l1.3-1.6c1.4,1.4,3.2,2.7,6.1,2.7c2.9,0,5.2-1.8,5.2-5c0-2.9-2.2-4.9-5-4.9c-2,0-3.2,0.4-4.7,1.4l-1.4-0.9
		l0.7-10.1h12.4v2.3H71.3l-0.5,6.3c1.3-0.7,2.5-1.1,4.3-1.1c4,0,7.2,2.2,7.2,6.7c0,4.7-3.8,7.2-7.7,7.2
		C70.8,354,68.4,352.6,66.8,350.8z"/>
	<path d="M116.9,349.2h-10.4v6.7h-2.2v-6.7H90.9V347h4.7v-7.7h8.6V335h-7c-1.3,2.2-2.9,4.1-4.3,5.8c-0.4-0.4-1.3-1.1-1.8-1.4
		c2.7-2.3,5-6.1,6.5-9.9l2.2,0.5c-0.4,1.1-0.9,2-1.3,3.1h17.1v2.2h-9.2v4.3h8.5v2h-8.5v5.8h10.4V349.2z M104.3,347.2v-5.8h-6.5v5.8
		H104.3z"/>
	<path d="M126.2,334.2v6.3c0,4.5-0.4,11-2.9,15.3c-0.4-0.4-1.3-0.9-1.8-1.3c2.3-4.1,2.5-9.9,2.5-14v-8.1h10.6v-2.9h2.2v2.9h10.8v1.8
		H126.2z M145.5,346.5c-1.3,2.5-3.2,4.3-5.8,5.8c2.5,0.9,5.4,1.4,8.5,1.8c-0.5,0.4-1.1,1.3-1.3,1.8c-3.6-0.5-6.7-1.3-9.5-2.5
		c-3.1,1.3-6.5,2-10.1,2.5c-0.2-0.5-0.5-1.3-0.9-1.8c3.1-0.4,6.1-0.9,8.8-1.8c-1.8-1.1-3.4-2.5-4.5-4.1l1.1-0.4h-4.3v-1.8h16.2h0.4
		L145.5,346.5z M131.8,344.1v-4.7h-4.5v-1.8h4.5v-2.5h2v2.5h7v-2.5h2.2v2.5h4.7v1.8H143v4.7H131.8z M132.9,347.6
		c1.1,1.4,2.7,2.7,4.7,3.6c2-0.9,3.6-2.2,4.9-3.6H132.9z M133.8,339.3v3.1h7v-3.1H133.8z"/>
	<path d="M164,347.6c-0.7-0.9-2.3-2.5-3.6-3.6v11.9h-2.2v-11.2c-1.4,1.4-2.9,2.7-4.3,3.6c-0.2-0.5-0.7-1.4-1.1-2c3.4-2,7-5.6,9-9.4
		h-7.9v-2h4.5v-5.4h2.2v5.4h2.5h0.4l1.3,0.7c-0.9,2.2-2.2,4.3-3.8,6.3c1.4,1.1,4,3.2,4.7,4L164,347.6z M180,353v2.2h-16.2V353h7.2
		v-11.9h-6.1v-2.2h6.1v-9.2h2.2v9.2h6.1v2.2h-6.1V353H180z"/>
	<path d="M194.3,351l2,1.3c-2.3,1.4-5.9,2.9-9,3.6c-0.4-0.4-1.1-1.1-1.6-1.6C188.5,353.5,192.3,352.2,194.3,351h-5.6v-12.4H209V351
		H194.3z M207.9,337.1h-18v-6.5h18V337.1z M190.8,342.3h16v-2h-16V342.3z M190.8,345.9h16v-2h-16V345.9z M190.8,349.5h16v-2.2h-16
		V349.5z M205.6,332.4h-13.7v3.1h13.7V332.4z M202.9,351.2c2.9,0.9,6.8,2.3,9,3.2l-1.8,1.6c-2.2-1.1-5.9-2.5-9-3.4L202.9,351.2z"/>
	<path d="M228.8,340.9c-0.2,9.7-0.4,13-1.1,13.9c-0.4,0.7-0.9,0.9-1.6,0.9s-1.8,0-3.1,0c0-0.5-0.2-1.4-0.5-2
		c1.3,0.2,2.2,0.2,2.7,0.2c0.4,0,0.7,0,0.9-0.4c0.5-0.7,0.7-3.6,0.9-11.7h-3.6c-0.2,4.5-0.9,9.5-4.1,14c-0.4-0.4-1.1-0.9-1.6-1.3
		c3.4-4.7,3.8-10.3,3.8-14.6v-4h-3.2v-1.8h5v-4.7h2v4.7h4.7v2h-6.5v3.8h5.4C228.8,340,228.8,340.9,228.8,340.9z M233,335.3
		c-0.9,1.6-1.8,3.1-2.9,4.3c-0.4-0.4-1.3-1.1-1.8-1.4c2.2-2.2,3.8-5.4,4.7-8.8l2.2,0.4c-0.4,1.1-0.7,2.3-1.1,3.4h9.9v2h-11V335.3z
		 M244.5,342.3c-1.4,1.4-3.4,2.9-5,4.1c1.3,3.2,2.9,5.9,5.2,7.6c-0.5,0.4-1.1,1.3-1.4,1.8c-4-2.9-5.9-8.3-7-14.8
		c-0.7,0.4-1.3,0.5-2,0.7v14h-2v-13.3c-0.5,0.2-1.1,0.4-1.6,0.5c-0.2-0.5-0.7-1.3-1.3-1.8c4-0.9,9.5-3.1,12.1-5l1.4,1.1
		c-1.3,0.9-3.1,2-5,2.9c0.2,1.6,0.5,3.1,1.1,4.5c1.4-1.1,3.1-2.5,4.1-3.6L244.5,342.3z"/>
	<path d="M259.4,336.4c-0.9,1.4-2,2.9-3.2,4.3v15.1H254v-12.8c-1.1,1.1-2.2,2.2-3.2,3.1c-0.4-0.4-1.1-1.4-1.4-1.8
		c2.9-2.2,6.1-5.4,8.1-8.6L259.4,336.4z M258.3,330.3c-1.8,2.5-4.9,5.4-7.4,7.2c-0.4-0.5-0.9-1.3-1.3-1.6c2.3-1.6,5.2-4.1,6.7-6.3
		L258.3,330.3z M276,341.3h-4.5v11.9c0,1.3-0.4,2-1.3,2.3c-0.9,0.4-2.5,0.4-5.4,0.4c0-0.5-0.4-1.4-0.7-2.2c2,0,4,0,4.5,0
		s0.7-0.2,0.7-0.7v-11.9h-9.5v-2H276V341.3z M275.1,333.3h-14v-2h14V333.3z"/>
	<path d="M286.4,333.9c-0.5,2.7-1.4,7.7-1.4,11c0,1.4,0,2.7,0.2,4c0.5-1.3,1.3-3.1,1.6-4.1l1.3,0.9c-0.7,2-1.8,5-2,6.5
		c0,0.4-0.2,0.9-0.2,1.3c0,0.4,0,0.7,0,1.1l-2.2,0.2c-0.5-2-1.1-5.4-1.1-9.2c0-4.3,0.9-9.2,1.3-11.5c0.2-0.7,0.2-1.4,0.2-2l2.5,0.2
		C286.8,332.4,286.4,333.3,286.4,333.9z M293.1,348.6c0,1.3,0.9,2.5,4.9,2.5c2.5,0,4.9-0.2,7.2-0.7v2.3c-1.8,0.4-4.3,0.5-7.2,0.5
		c-4.9,0-7-1.6-7-4.3c0-0.9,0.2-2,0.5-3.4l2.2,0.2C293.3,347,293.1,347.7,293.1,348.6z M304.2,334.2v2.3c-3.1,0.4-8.6,0.4-11.9,0
		v-2.3C295.6,334.8,301.4,334.6,304.2,334.2z"/>
	<path d="M314.5,334.4c1.8-0.2,7.4-0.7,12.6-1.3c3.1-0.4,5.8-0.4,7.7-0.5v2.3c-1.6,0-4.1,0-5.6,0.5c-4.1,1.3-6.7,5.8-6.7,9.2
		c0,5.6,5.2,7.4,9.9,7.6l-0.9,2.3c-5.4-0.2-11.3-3.1-11.3-9.5c0-4.5,2.7-8.1,5.4-9.7c-3.1,0.4-10.4,1.1-13.5,1.6l-0.2-2.5
		C312.9,334.4,314,334.4,314.5,334.4z"/>
	<path d="M353.6,329.7c7.2,0,13,5.8,13,13c0,7.2-5.8,13-13,13c-7.2,0-13-5.8-13-13C340.6,335.5,346.4,329.7,353.6,329.7z"/>
	<path d="M385.4,329.7c7.2,0,13,5.8,13,13c0,7.2-5.8,13-13,13s-13-5.8-13-13C372.5,335.5,378.2,329.7,385.4,329.7z"/>
	<path d="M409,333.9c-0.5,2.7-1.4,7.7-1.4,11c0,1.4,0,2.7,0.2,4c0.5-1.3,1.3-3.1,1.6-4.1l1.3,0.9c-0.7,2-1.8,5-2,6.5
		c0,0.4-0.2,0.9-0.2,1.3c0,0.4,0,0.7,0,1.1l-2.2,0.2c-0.5-2-1.1-5.4-1.1-9.2c0-4.3,0.9-9.2,1.3-11.5c0.2-0.7,0.2-1.4,0.2-2l2.5,0.2
		C409.4,332.4,409.2,333.3,409,333.9z M415.7,348.6c0,1.3,0.9,2.5,4.9,2.5c2.5,0,4.9-0.2,7.2-0.7v2.3c-1.8,0.4-4.3,0.5-7.2,0.5
		c-4.9,0-7-1.6-7-4.3c0-0.9,0.2-2,0.5-3.4l2.2,0.2C415.8,347,415.7,347.7,415.7,348.6z M426.8,334.2v2.3c-3.1,0.4-8.6,0.4-11.9,0
		v-2.3C418.2,334.8,423.9,334.6,426.8,334.2z"/>
	<path d="M443.6,336.4c-0.9,1.4-2,2.9-3.2,4.3v15.1h-2.2v-12.8c-1.1,1.1-2.2,2.2-3.2,3.1c-0.4-0.4-1.1-1.4-1.4-1.8
		c2.9-2.2,6.1-5.4,8.1-8.6L443.6,336.4z M442.5,330.3c-1.8,2.5-4.9,5.4-7.4,7.2c-0.4-0.5-0.9-1.3-1.3-1.6c2.3-1.6,5.2-4.1,6.7-6.3
		L442.5,330.3z M460.1,341.3h-4.3v11.9c0,1.3-0.4,2-1.3,2.3c-0.9,0.4-2.5,0.4-5.4,0.4c0-0.5-0.4-1.4-0.7-2.2c2,0,4,0,4.5,0
		s0.7-0.2,0.7-0.7v-11.9h-9.5v-2h16.2v2.2H460.1z M459.4,333.3h-14v-2h14V333.3z"/>
	<path d="M470.2,341.4c2-0.7,6.8-2.3,10.3-2.3c4.1,0,7,2.5,7,6.5c0,5.6-5.4,8.3-13.1,8.8l-0.9-2.2c6.3-0.2,11.7-2,11.7-6.7
		c0-2.3-2-4.3-4.9-4.3c-3.6,0-9.9,2.7-11.7,3.4l-0.9-2.3C468.2,342,469.1,341.6,470.2,341.4z"/>
	<path d="M494.5,334.4c1.8-0.2,7.4-0.7,12.6-1.3c3.1-0.4,5.8-0.4,7.7-0.5v2.3c-1.6,0-4.1,0-5.6,0.5c-4.1,1.3-6.7,5.8-6.7,9.2
		c0,5.6,5.2,7.4,9.9,7.6l-0.9,2.3c-5.4-0.2-11.3-3.1-11.3-9.5c0-4.5,2.7-8.1,5.4-9.7c-3.1,0.4-10.4,1.1-13.5,1.6l-0.2-2.5
		C493.1,334.4,494,334.4,494.5,334.4z"/>
	<path d="M532.1,331l2.5-0.4c0.2,1.1,0.4,2.3,0.7,3.4c2-0.2,4.1-0.7,5.9-1.3l0.4,2.2c-1.6,0.5-3.6,0.9-5.8,1.1
		c0.2,0.7,0.4,1.4,0.7,2c0.2,0.5,0.4,1.1,0.7,1.8c2.3-0.4,4.3-0.7,5.8-1.3l0.4,2.2c-1.4,0.4-3.2,0.7-5.2,1.1c0.5,1.3,1.3,2.5,2,3.6
		c0.4,0.5,0.7,0.9,1.1,1.3l-1.3,1.8c-1.6-0.4-4.3-0.7-6.3-0.9l0.2-1.8c1.4,0.2,3.4,0.4,4.3,0.5c-0.9-1.3-1.6-2.7-2.2-4.1
		c-3.6,0.4-8.3,0.4-12.6,0l-0.2-2.2c4.3,0.5,8.6,0.4,11.9,0.2c-0.2-0.5-0.4-1.1-0.5-1.4c-0.4-0.7-0.5-1.6-0.7-2.2
		c-2.9,0.2-6.3,0.2-9.9-0.2l-0.2-2.2c3.4,0.4,6.7,0.5,9.5,0.4c0-0.2-0.2-0.5-0.2-0.7C532.7,332.6,532.5,331.7,532.1,331z
		 M526.2,349.2c0,2.3,2.2,3.6,6.7,3.6c2.7,0,4.9-0.2,6.8-0.5v2.3c-2,0.4-4.3,0.5-6.7,0.5c-5.6,0-8.8-1.6-8.8-5.4
		c0-1.6,0.5-2.9,1.1-4.1l2.2,0.5C526.5,347,526.2,347.9,526.2,349.2z"/>
	<path d="M563.4,332.6c0,0.4,0,1.1,0,1.8c2.5-0.2,5.2-0.4,7.7-0.7v2.2c-2.3,0.2-5,0.5-7.7,0.7c0,1.3,0,2.7,0,3.6c0,0.2,0,0.2,0,0.4
		c2.9-0.2,5.4-0.4,8.1-0.7v2.2c-2.7,0.4-5.2,0.5-7.9,0.7c0,1.4,0.2,3.1,0.2,4.5c3.8,1.1,6.8,3.1,8.5,4.5l-1.3,2
		c-1.6-1.6-4.1-3.2-7-4.3c0,0.7,0,1.3,0,1.8c0,2-1.3,4-5,4c-4.1,0-6.5-1.4-6.5-4.3c0-2.7,2.5-4.3,6.7-4.3c0.9,0,1.6,0,2.3,0.2
		c0-1.3,0-2.7-0.2-4c-0.5,0-1.1,0-1.6,0c-2,0-5-0.2-7.2-0.4v-2.2c2.2,0.4,5.4,0.5,7.2,0.5c0.5,0,1.1,0,1.6,0c0-0.2,0-0.4,0-0.4
		c0-1.1,0-2.3,0-3.6c-0.4,0-0.9,0-1.3,0c-2,0-5.6-0.4-7.4-0.5v-2.2c1.8,0.4,5.4,0.7,7.4,0.7c0.4,0,0.9,0,1.3,0c0-0.7,0-1.4,0-2
		c0-0.5,0-1.3-0.2-1.8h2.5C563.6,331.4,563.4,331.9,563.4,332.6z M558.6,353c1.6,0,3.1-0.5,3.1-2.5c0-0.5,0-1.3,0-2
		c-0.9-0.2-1.8-0.4-2.9-0.4c-2.7,0-4.3,1.1-4.3,2.3C554.4,351.7,555.7,353,558.6,353z"/>
	<path d="M584.5,334.1c-0.2,3.2-0.4,10.1-0.4,14.4c0,3.2,2,4.3,4.7,4.3c5.2,0,8.3-2.9,10.3-5.9l1.6,2c-2,2.7-5.8,6.3-12.1,6.3
		c-4.1,0-7-1.8-7-6.5c0-4.3,0.4-11.5,0.4-14.6c0-1.1,0-2.2-0.2-2.9h2.9C584.5,332.1,584.5,333.2,584.5,334.1z"/>
	<path d="M616.2,333.3c-0.2,0.5-0.2,1.4-0.4,2.2c1.8-0.2,3.8-0.5,5.6-1.1v2.3c-1.8,0.4-4,0.7-5.9,0.9c-0.2,1.3-0.5,2.5-0.9,3.8
		c-1.1,4.1-3.1,10.1-4.5,13.1l-2.5-0.9c1.8-2.9,3.8-8.8,4.9-13c0.2-0.9,0.5-2,0.7-3.1c-0.9,0-1.8,0-2.7,0c-1.3,0-2.3,0-3.4-0.2v-2.2
		c1.4,0.2,2.3,0.2,3.4,0.2c0.9,0,2,0,3.1-0.2c0.2-1.1,0.4-2,0.4-2.5c0.2-0.7,0.2-1.8,0-2.3l2.7,0.2
		C616.5,331.5,616.4,332.6,616.2,333.3z M619.6,349.4c0,1.4,0.7,2.7,4.9,2.7c1.8,0,3.8-0.2,5.6-0.5v2.3c-1.6,0.2-3.4,0.4-5.6,0.4
		c-4.5,0-7-1.4-7-4.3c0-1.1,0.2-2.2,0.4-3.4l2.2,0.2C619.8,347.7,619.6,348.6,619.6,349.4z M624.8,339.5c1.6,0,3.4,0,5,0.2v2.2
		c-1.4-0.2-3.2-0.4-4.9-0.4c-1.8,0-3.6,0-5.4,0.4v-2.2C621,339.6,622.8,339.5,624.8,339.5z"/>
	<path d="M645.7,351c0,2.5-2,4.3-4.3,4.3c-2.3,0-4.3-2-4.3-4.3s2-4.3,4.3-4.3C643.7,346.7,645.7,348.6,645.7,351z M644.3,351
		c0-1.6-1.3-2.9-2.9-2.9s-2.9,1.3-2.9,2.9s1.3,2.9,2.9,2.9C642.8,353.9,644.3,352.6,644.3,351z"/>
</g>
<line class="st0" x1="0" y1="387.9" x2="675" y2="387.9"/>
<g>
	<path d="M0.6,433.9c4.1-4,6.8-6.7,6.8-9c0-1.6-0.9-2.5-2.3-2.5c-1.1,0-2.2,0.7-2.9,1.6l-1.8-1.8c1.4-1.4,2.9-2.3,5-2.3
		c3.1,0,5,2,5,4.9c0,2.7-2.5,5.6-5.4,8.5c0.7,0,1.8-0.2,2.7-0.2h3.4v2.7H0.6V433.9z"/>
	<path d="M15.3,428c0-5.2,2.2-8.1,5.4-8.1s5.4,2.7,5.4,8.1c0,5.2-2.2,8.1-5.4,8.1S15.3,433.2,15.3,428z M23.3,428
		c0-4.3-1.1-5.6-2.3-5.6c-1.3,0-2.3,1.3-2.3,5.6c0,4.3,1.1,5.8,2.3,5.8C22.2,433.7,23.3,432.3,23.3,428z"/>
	<path d="M30.1,433.9c4.1-4,6.8-6.7,6.8-9c0-1.6-0.9-2.5-2.3-2.5c-1.1,0-2.2,0.7-2.9,1.6l-1.8-1.8c1.4-1.4,2.9-2.3,5-2.3
		c3.1,0,5,2,5,4.9c0,2.7-2.5,5.6-5.4,8.5c0.7,0,1.8-0.2,2.7-0.2h3.4v2.7H30.1V433.9z"/>
	<path d="M44.9,433.7l1.4-2c0.9,0.9,2.2,1.6,3.6,1.6c1.6,0,2.7-0.7,2.7-2.2s-0.9-2.3-4.3-2.3v-2.3c2.9,0,4-0.9,4-2.3
		c0-1.3-0.7-2-2.2-2c-1.1,0-2.2,0.5-3.1,1.4l-1.6-2c1.3-1.1,2.9-1.8,4.7-1.8c3.1,0,5.2,1.4,5.2,4.1c0,1.6-1.1,2.9-2.7,3.6v0.2
		c1.8,0.5,3.2,1.8,3.2,3.8c0,2.9-2.5,4.5-5.6,4.5C47.7,436.1,45.9,435.2,44.9,433.7z"/>
	<path d="M60.5,433.9c0-1.3,0.9-2.2,2-2.2s2,0.9,2,2.2c0,1.1-0.9,2.2-2,2.2S60.5,435.2,60.5,433.9z"/>
	<path d="M68.8,428c0-5.2,2.2-8.1,5.4-8.1s5.4,2.7,5.4,8.1c0,5.2-2.2,8.1-5.4,8.1C71,436.1,68.8,433.2,68.8,428z M76.5,428
		c0-4.3-1.1-5.6-2.3-5.6s-2.5,1.3-2.5,5.6c0,4.3,1.1,5.8,2.3,5.8S76.5,432.3,76.5,428z"/>
	<path d="M90.8,422.7h-7.2v-2.5h10.6v2c-3.6,4.5-4.1,7.6-4.5,13.7h-3.2C86.6,430.3,87.7,426.9,90.8,422.7z"/>
	<path d="M97.1,433.9c0-1.3,0.9-2.2,2-2.2c1.1,0,2,0.9,2,2.2c0,1.1-0.9,2.2-2,2.2C98,436.1,97.1,435.2,97.1,433.9z"/>
	<path d="M105.3,428c0-5.2,2.2-8.1,5.4-8.1s5.4,2.7,5.4,8.1c0,5.2-2.2,8.1-5.4,8.1S105.3,433.2,105.3,428z M113.1,428
		c0-4.3-1.1-5.6-2.3-5.6s-2.3,1.3-2.3,5.6c0,4.3,1.1,5.8,2.3,5.8S113.1,432.3,113.1,428z"/>
	<path d="M120.3,433.2h3.4v-9.7h-2.9v-2c1.6-0.4,2.7-0.7,3.8-1.3h2.3v13h3.1v2.5h-9.7V433.2z"/>
</g>
<g>
	<path d="M15,469.2c3.1,4.1,8.1,8.3,12.6,10.4c-0.5,0.5-1.1,1.3-1.4,1.8c-4.3-2.5-9.4-6.7-12.1-10.1c-2.3,3.4-7,7.6-11.9,10.3
		c-0.2-0.5-0.9-1.3-1.4-1.6c4.9-2.7,9.7-7,12.1-10.8C12.8,469.2,15,469.2,15,469.2z M23.8,491c0,1.1-0.2,1.8-1.1,2.2
		c-0.9,0.4-2.3,0.4-4.5,0.4c-0.2-0.7-0.5-1.4-0.7-2c1.6,0,3.2,0,3.8,0s0.7-0.2,0.7-0.5V485h-8.6v10.4H11v-10.3H3.5v-2h20.3V491z
		 M20.2,477.6v2H8.1v-2H20.2z"/>
	<path d="M41.1,477.6h5v2h-5v0.7c1.1,1.1,4.1,4.7,4.9,5.6l-1.3,1.8c-0.7-1.1-2.3-3.2-3.6-4.9v12.6h-2.2v-12.6
		c-1.4,3.4-3.2,6.7-5,8.6c-0.2-0.5-0.7-1.4-1.3-2c2.2-2.2,4.5-6.1,5.8-9.7h-5v-2h5.6V473c-1.6,0.2-3.2,0.5-4.7,0.7
		c-0.2-0.5-0.4-1.3-0.5-1.6c3.8-0.5,8.3-1.4,10.8-2.3l1.4,1.6c-1.4,0.2-3.1,0.7-4.9,1.1V477.6z M57.6,471.9V494h-2.2v-2.2H49v2.3
		h-2.2v-22.3H57.6z M55.5,489.7v-15.8H49v15.8H55.5z"/>
	<path d="M66.8,490.4l1.3-1.6c1.4,1.4,3.2,2.7,6.1,2.7c2.9,0,5.2-1.8,5.2-5c0-2.9-2.2-4.9-5-4.9c-2,0-3.2,0.4-4.7,1.4l-1.4-0.9
		l0.7-10.1h12.4v2.3H71.3l-0.5,6.3c1.3-0.7,2.5-1.1,4.3-1.1c4,0,7.2,2.2,7.2,6.7c0,4.7-3.8,7.2-7.7,7.2
		C70.8,493.7,68.4,492.2,66.8,490.4z"/>
	<path d="M116.9,488.8h-10.4v6.7h-2.2v-6.7H90.9v-2.2h4.7v-7.7h8.6v-4.3h-7c-1.3,2.2-2.9,4.1-4.3,5.8c-0.4-0.4-1.3-1.1-1.8-1.4
		c2.7-2.3,5-6.1,6.5-9.9l2.2,0.5c-0.4,1.1-0.9,2-1.3,3.1h17.1v2.2h-9.2v4.3h8.5v2h-8.5v5.8h10.4V488.8z M104.3,486.8v-5.8h-6.5v5.8
		H104.3z"/>
	<path d="M126.2,473.9v6.3c0,4.5-0.4,11-2.9,15.3c-0.4-0.4-1.3-0.9-1.8-1.3c2.3-4.1,2.5-9.9,2.5-14v-8.1h10.6v-2.9h2.2v2.9h10.8v1.8
		H126.2z M145.5,486.1c-1.3,2.5-3.2,4.3-5.8,5.8c2.5,0.9,5.4,1.4,8.5,1.8c-0.5,0.4-1.1,1.3-1.3,1.8c-3.6-0.5-6.7-1.3-9.5-2.5
		c-3.1,1.3-6.5,2-10.1,2.5c-0.2-0.5-0.5-1.3-0.9-1.8c3.1-0.4,6.1-0.9,8.8-1.8c-1.8-1.1-3.4-2.5-4.5-4.1l1.1-0.4h-4.3v-1.8h16.2h0.4
		L145.5,486.1z M131.8,483.8v-4.7h-4.5v-1.8h4.5v-2.5h2v2.5h7v-2.5h2.2v2.5h4.7v1.8H143v4.7H131.8z M132.9,487.2
		c1.1,1.4,2.7,2.7,4.7,3.6c2-0.9,3.6-2.2,4.9-3.6H132.9z M133.8,478.9v3.1h7v-3.1H133.8z"/>
	<path d="M164,487.2c-0.7-0.9-2.3-2.5-3.6-3.6v11.9h-2.2v-11.2c-1.4,1.4-2.9,2.7-4.3,3.6c-0.2-0.5-0.7-1.4-1.1-2c3.4-2,7-5.6,9-9.4
		h-7.9v-2h4.5v-5.4h2.2v5.4h2.5h0.4l1.3,0.7c-0.9,2.2-2.2,4.3-3.8,6.3c1.4,1.1,4,3.2,4.7,4L164,487.2z M180,492.6v2.2h-16.2v-2.2
		h7.2v-11.9h-6.1v-2.2h6.1v-9.2h2.2v9.2h6.1v2.2h-6.1v11.9H180z"/>
	<path d="M194.3,490.6l2,1.3c-2.3,1.4-5.9,2.9-9,3.6c-0.4-0.4-1.1-1.1-1.6-1.6C188.5,493.1,192.3,491.9,194.3,490.6h-5.6v-12.4H209
		v12.4H194.3z M207.9,476.7h-18v-6.5h18V476.7z M190.8,482h16v-2h-16V482z M190.8,485.6h16v-2h-16V485.6z M190.8,489.2h16V487h-16
		V489.2z M205.6,472.1h-13.7v3.1h13.7V472.1z M202.9,490.8c2.9,0.9,6.8,2.3,9,3.2l-1.8,1.6c-2.2-1.1-5.9-2.5-9-3.4L202.9,490.8z"/>
	<path d="M228.8,480.5c-0.2,9.7-0.4,13-1.1,13.9c-0.4,0.7-0.9,0.9-1.6,0.9s-1.8,0-3.1,0c0-0.5-0.2-1.4-0.5-2
		c1.3,0.2,2.2,0.2,2.7,0.2c0.4,0,0.7,0,0.9-0.4c0.5-0.7,0.7-3.6,0.9-11.7h-3.6c-0.2,4.5-0.9,9.5-4.1,14c-0.4-0.4-1.1-0.9-1.6-1.3
		c3.4-4.7,3.8-10.3,3.8-14.6v-4h-3.2v-1.8h5v-4.7h2v4.7h4.7v2h-6.5v3.8h5.4C228.8,479.6,228.8,480.5,228.8,480.5z M233,474.9
		c-0.9,1.6-1.8,3.1-2.9,4.3c-0.4-0.4-1.3-1.1-1.8-1.4c2.2-2.2,3.8-5.4,4.7-8.8l2.2,0.4c-0.4,1.1-0.7,2.3-1.1,3.4h9.9v2h-11V474.9z
		 M244.5,482c-1.4,1.4-3.4,2.9-5,4.1c1.3,3.2,2.9,5.9,5.2,7.6c-0.5,0.4-1.1,1.3-1.4,1.8c-4-2.9-5.9-8.3-7-14.8
		c-0.7,0.4-1.3,0.5-2,0.7v14h-2v-13.3c-0.5,0.2-1.1,0.4-1.6,0.5c-0.2-0.5-0.7-1.3-1.3-1.8c4-0.9,9.5-3.1,12.1-5l1.4,1.1
		c-1.3,0.9-3.1,2-5,2.9c0.2,1.6,0.5,3.1,1.1,4.5c1.4-1.1,3.1-2.5,4.1-3.6L244.5,482z"/>
	<path d="M259.4,476c-0.9,1.4-2,2.9-3.2,4.3v15.1H254v-12.8c-1.1,1.1-2.2,2.2-3.2,3.1c-0.4-0.4-1.1-1.4-1.4-1.8
		c2.9-2.2,6.1-5.4,8.1-8.6L259.4,476z M258.3,469.9c-1.8,2.5-4.9,5.4-7.4,7.2c-0.4-0.5-0.9-1.3-1.3-1.6c2.3-1.6,5.2-4.1,6.7-6.3
		L258.3,469.9z M276,480.9h-4.5v11.9c0,1.3-0.4,2-1.3,2.3c-0.9,0.4-2.5,0.4-5.4,0.4c0-0.5-0.4-1.4-0.7-2.2c2,0,4,0,4.5,0
		s0.7-0.2,0.7-0.7v-11.9h-9.5v-2H276V480.9z M275.1,473h-14v-2h14V473z"/>
	<path d="M286.4,473.5c-0.5,2.7-1.4,7.7-1.4,11c0,1.4,0,2.7,0.2,4c0.5-1.3,1.3-3.1,1.6-4.1l1.3,0.9c-0.7,2-1.8,5-2,6.5
		c0,0.4-0.2,0.9-0.2,1.3c0,0.4,0,0.7,0,1.1l-2.2,0.2c-0.5-2-1.1-5.4-1.1-9.2c0-4.3,0.9-9.2,1.3-11.5c0.2-0.7,0.2-1.4,0.2-2l2.5,0.2
		C286.8,472.1,286.4,473,286.4,473.5z M293.1,488.3c0,1.3,0.9,2.5,4.9,2.5c2.5,0,4.9-0.2,7.2-0.7v2.3c-1.8,0.4-4.3,0.5-7.2,0.5
		c-4.9,0-7-1.6-7-4.3c0-0.9,0.2-2,0.5-3.4l2.2,0.2C293.3,486.6,293.1,487.4,293.1,488.3z M304.2,473.9v2.3c-3.1,0.4-8.6,0.4-11.9,0
		v-2.3C295.6,474.4,301.4,474.2,304.2,473.9z"/>
	<path d="M314.5,474c1.8-0.2,7.4-0.7,12.6-1.3c3.1-0.4,5.8-0.4,7.7-0.5v2.3c-1.6,0-4.1,0-5.6,0.5c-4.1,1.3-6.7,5.8-6.7,9.2
		c0,5.6,5.2,7.4,9.9,7.6l-0.9,2.3c-5.4-0.2-11.3-3.1-11.3-9.5c0-4.5,2.7-8.1,5.4-9.7c-3.1,0.4-10.4,1.1-13.5,1.6L312,474
		C312.9,474,314,474,314.5,474z"/>
	<path d="M353.6,469.4c7.2,0,13,5.8,13,13c0,7.2-5.8,13-13,13c-7.2,0-13-5.8-13-13C340.6,475.1,346.4,469.4,353.6,469.4z"/>
	<path d="M385.4,469.4c7.2,0,13,5.8,13,13c0,7.2-5.8,13-13,13s-13-5.8-13-13C372.5,475.1,378.2,469.4,385.4,469.4z"/>
	<path d="M409,473.5c-0.5,2.7-1.4,7.7-1.4,11c0,1.4,0,2.7,0.2,4c0.5-1.3,1.3-3.1,1.6-4.1l1.3,0.9c-0.7,2-1.8,5-2,6.5
		c0,0.4-0.2,0.9-0.2,1.3c0,0.4,0,0.7,0,1.1l-2.2,0.2c-0.5-2-1.1-5.4-1.1-9.2c0-4.3,0.9-9.2,1.3-11.5c0.2-0.7,0.2-1.4,0.2-2l2.5,0.2
		C409.4,472.1,409.2,473,409,473.5z M415.7,488.3c0,1.3,0.9,2.5,4.9,2.5c2.5,0,4.9-0.2,7.2-0.7v2.3c-1.8,0.4-4.3,0.5-7.2,0.5
		c-4.9,0-7-1.6-7-4.3c0-0.9,0.2-2,0.5-3.4l2.2,0.2C415.8,486.6,415.7,487.4,415.7,488.3z M426.8,473.9v2.3c-3.1,0.4-8.6,0.4-11.9,0
		v-2.3C418.2,474.4,423.9,474.2,426.8,473.9z"/>
	<path d="M443.6,476c-0.9,1.4-2,2.9-3.2,4.3v15.1h-2.2v-12.8c-1.1,1.1-2.2,2.2-3.2,3.1c-0.4-0.4-1.1-1.4-1.4-1.8
		c2.9-2.2,6.1-5.4,8.1-8.6L443.6,476z M442.5,469.9c-1.8,2.5-4.9,5.4-7.4,7.2c-0.4-0.5-0.9-1.3-1.3-1.6c2.3-1.6,5.2-4.1,6.7-6.3
		L442.5,469.9z M460.1,480.9h-4.3v11.9c0,1.3-0.4,2-1.3,2.3c-0.9,0.4-2.5,0.4-5.4,0.4c0-0.5-0.4-1.4-0.7-2.2c2,0,4,0,4.5,0
		s0.7-0.2,0.7-0.7v-11.9h-9.5v-2h16.2v2.2H460.1z M459.4,473h-14v-2h14V473z"/>
	<path d="M470.2,481.1c2-0.7,6.8-2.3,10.3-2.3c4.1,0,7,2.5,7,6.5c0,5.6-5.4,8.3-13.1,8.8l-0.9-2.2c6.3-0.2,11.7-2,11.7-6.7
		c0-2.3-2-4.3-4.9-4.3c-3.6,0-9.9,2.7-11.7,3.4l-0.9-2.3C468.2,481.6,469.1,481.2,470.2,481.1z"/>
	<path d="M494.5,474c1.8-0.2,7.4-0.7,12.6-1.3c3.1-0.4,5.8-0.4,7.7-0.5v2.3c-1.6,0-4.1,0-5.6,0.5c-4.1,1.3-6.7,5.8-6.7,9.2
		c0,5.6,5.2,7.4,9.9,7.6l-0.9,2.3c-5.4-0.2-11.3-3.1-11.3-9.5c0-4.5,2.7-8.1,5.4-9.7c-3.1,0.4-10.4,1.1-13.5,1.6L492,474
		C493.1,474,494,474,494.5,474z"/>
	<path d="M532.1,470.6l2.5-0.4c0.2,1.1,0.4,2.3,0.7,3.4c2-0.2,4.1-0.7,5.9-1.3l0.4,2.2c-1.6,0.5-3.6,0.9-5.8,1.1
		c0.2,0.7,0.4,1.4,0.7,2c0.2,0.5,0.4,1.1,0.7,1.8c2.3-0.4,4.3-0.7,5.8-1.3l0.4,2.2c-1.4,0.4-3.2,0.7-5.2,1.1c0.5,1.3,1.3,2.5,2,3.6
		c0.4,0.5,0.7,0.9,1.1,1.3l-1.3,1.8c-1.6-0.4-4.3-0.7-6.3-0.9l0.2-1.8c1.4,0.2,3.4,0.4,4.3,0.5c-0.9-1.3-1.6-2.7-2.2-4.1
		c-3.6,0.4-8.3,0.4-12.6,0l-0.2-2.2c4.3,0.5,8.6,0.4,11.9,0.2c-0.2-0.5-0.4-1.1-0.5-1.4c-0.4-0.7-0.5-1.6-0.7-2.2
		c-2.9,0.2-6.3,0.2-9.9-0.2l-0.2-2.2c3.4,0.4,6.7,0.5,9.5,0.4c0-0.2-0.2-0.5-0.2-0.7C532.7,472.2,532.5,471.3,532.1,470.6z
		 M526.2,488.8c0,2.3,2.2,3.6,6.7,3.6c2.7,0,4.9-0.2,6.8-0.5v2.3c-2,0.4-4.3,0.5-6.7,0.5c-5.6,0-8.8-1.6-8.8-5.4
		c0-1.6,0.5-2.9,1.1-4.1l2.2,0.5C526.5,486.6,526.2,487.5,526.2,488.8z"/>
	<path d="M563.4,472.2c0,0.4,0,1.1,0,1.8c2.5-0.2,5.2-0.4,7.7-0.7v2.2c-2.3,0.2-5,0.5-7.7,0.7c0,1.3,0,2.7,0,3.6c0,0.2,0,0.2,0,0.4
		c2.9-0.2,5.4-0.4,8.1-0.7v2.2c-2.7,0.4-5.2,0.5-7.9,0.7c0,1.4,0.2,3.1,0.2,4.5c3.8,1.1,6.8,3.1,8.5,4.5l-1.3,2
		c-1.6-1.6-4.1-3.2-7-4.3c0,0.7,0,1.3,0,1.8c0,2-1.3,4-5,4c-4.1,0-6.5-1.4-6.5-4.3c0-2.7,2.5-4.3,6.7-4.3c0.9,0,1.6,0,2.3,0.2
		c0-1.3,0-2.7-0.2-4c-0.5,0-1.1,0-1.6,0c-2,0-5-0.2-7.2-0.4v-2.2c2.2,0.4,5.4,0.5,7.2,0.5c0.5,0,1.1,0,1.6,0c0-0.2,0-0.4,0-0.4
		c0-1.1,0-2.3,0-3.6c-0.4,0-0.9,0-1.3,0c-2,0-5.6-0.4-7.4-0.5v-2.2c1.8,0.4,5.4,0.7,7.4,0.7c0.4,0,0.9,0,1.3,0c0-0.7,0-1.4,0-2
		c0-0.5,0-1.3-0.2-1.8h2.5C563.6,471,563.4,471.5,563.4,472.2z M558.6,492.6c1.6,0,3.1-0.5,3.1-2.5c0-0.5,0-1.3,0-2
		c-0.9-0.2-1.8-0.4-2.9-0.4c-2.7,0-4.3,1.1-4.3,2.3C554.4,491.3,555.7,492.6,558.6,492.6z"/>
	<path d="M584.5,473.7c-0.2,3.2-0.4,10.1-0.4,14.4c0,3.2,2,4.3,4.7,4.3c5.2,0,8.3-2.9,10.3-5.9l1.6,2c-2,2.7-5.8,6.3-12.1,6.3
		c-4.1,0-7-1.8-7-6.5c0-4.3,0.4-11.5,0.4-14.6c0-1.1,0-2.2-0.2-2.9h2.9C584.5,471.7,584.5,472.8,584.5,473.7z"/>
	<path d="M616.2,473c-0.2,0.5-0.2,1.4-0.4,2.2c1.8-0.2,3.8-0.5,5.6-1.1v2.3c-1.8,0.4-4,0.7-5.9,0.9c-0.2,1.3-0.5,2.5-0.9,3.8
		c-1.1,4.1-3.1,10.1-4.5,13.1l-2.5-0.9c1.8-2.9,3.8-8.8,4.9-13c0.2-0.9,0.5-2,0.7-3.1c-0.9,0-1.8,0-2.7,0c-1.3,0-2.3,0-3.4-0.2v-2.2
		c1.4,0.2,2.3,0.2,3.4,0.2c0.9,0,2,0,3.1-0.2c0.2-1.1,0.4-2,0.4-2.5c0.2-0.7,0.2-1.8,0-2.3l2.7,0.2
		C616.5,471.2,616.4,472.2,616.2,473z M619.6,489c0,1.4,0.7,2.7,4.9,2.7c1.8,0,3.8-0.2,5.6-0.5v2.3c-1.6,0.2-3.4,0.4-5.6,0.4
		c-4.5,0-7-1.4-7-4.3c0-1.1,0.2-2.2,0.4-3.4l2.2,0.2C619.8,487.4,619.6,488.3,619.6,489z M624.8,479.1c1.6,0,3.4,0,5,0.2v2.2
		c-1.4-0.2-3.2-0.4-4.9-0.4c-1.8,0-3.6,0-5.4,0.4v-2.2C621,479.3,622.8,479.1,624.8,479.1z"/>
	<path d="M645.7,490.6c0,2.5-2,4.3-4.3,4.3c-2.3,0-4.3-2-4.3-4.3s2-4.3,4.3-4.3C643.7,486.3,645.7,488.3,645.7,490.6z M644.3,490.6
		c0-1.6-1.3-2.9-2.9-2.9s-2.9,1.3-2.9,2.9s1.3,2.9,2.9,2.9C642.8,493.5,644.3,492.2,644.3,490.6z"/>
</g>
<line class="st0" x1="0" y1="527.6" x2="675" y2="527.6"/>
<g>
	<path d="M0.6,573.5c4.1-4,6.8-6.7,6.8-9c0-1.6-0.9-2.5-2.3-2.5c-1.1,0-2.2,0.7-2.9,1.6l-1.8-1.8c1.4-1.4,2.9-2.3,5-2.3
		c3.1,0,5,2,5,4.9c0,2.7-2.5,5.6-5.4,8.5c0.7,0,1.8-0.2,2.7-0.2h3.4v2.7H0.6V573.5z"/>
	<path d="M15.3,567.6c0-5.2,2.2-8.1,5.4-8.1s5.4,2.7,5.4,8.1c0,5.2-2.2,8.1-5.4,8.1S15.3,572.8,15.3,567.6z M23.3,567.6
		c0-4.3-1.1-5.6-2.3-5.6c-1.3,0-2.3,1.3-2.3,5.6s1.1,5.8,2.3,5.8C22.2,573.3,23.3,571.9,23.3,567.6z"/>
	<path d="M30.1,573.5c4.1-4,6.8-6.7,6.8-9c0-1.6-0.9-2.5-2.3-2.5c-1.1,0-2.2,0.7-2.9,1.6l-1.8-1.8c1.4-1.4,2.9-2.3,5-2.3
		c3.1,0,5,2,5,4.9c0,2.7-2.5,5.6-5.4,8.5c0.7,0,1.8-0.2,2.7-0.2h3.4v2.7H30.1V573.5z"/>
	<path d="M44.9,573.3l1.4-2c0.9,0.9,2.2,1.6,3.6,1.6c1.6,0,2.7-0.7,2.7-2.2c0-1.4-0.9-2.3-4.3-2.3v-2.3c2.9,0,4-0.9,4-2.3
		c0-1.3-0.7-2-2.2-2c-1.1,0-2.2,0.5-3.1,1.4l-1.6-2c1.3-1.1,2.9-1.8,4.7-1.8c3.1,0,5.2,1.4,5.2,4.1c0,1.6-1.1,2.9-2.7,3.6v0.2
		c1.8,0.5,3.2,1.8,3.2,3.8c0,2.9-2.5,4.5-5.6,4.5C47.7,575.7,45.9,574.8,44.9,573.3z"/>
	<path d="M60.5,573.5c0-1.3,0.9-2.2,2-2.2s2,0.9,2,2.2c0,1.1-0.9,2.2-2,2.2S60.5,574.8,60.5,573.5z"/>
	<path d="M68.8,567.6c0-5.2,2.2-8.1,5.4-8.1s5.4,2.7,5.4,8.1c0,5.2-2.2,8.1-5.4,8.1C71,575.7,68.8,572.8,68.8,567.6z M76.5,567.6
		c0-4.3-1.1-5.6-2.3-5.6s-2.5,1.3-2.5,5.6s1.1,5.8,2.3,5.8S76.5,571.9,76.5,567.6z"/>
	<path d="M90.8,562.4h-7.2v-2.5h10.6v2c-3.6,4.5-4.1,7.6-4.5,13.7h-3.2C86.6,569.9,87.7,566.5,90.8,562.4z"/>
	<path d="M97.1,573.5c0-1.3,0.9-2.2,2-2.2c1.1,0,2,0.9,2,2.2c0,1.1-0.9,2.2-2,2.2C98,575.7,97.1,574.8,97.1,573.5z"/>
	<path d="M105.3,567.6c0-5.2,2.2-8.1,5.4-8.1s5.4,2.7,5.4,8.1c0,5.2-2.2,8.1-5.4,8.1S105.3,572.8,105.3,567.6z M113.1,567.6
		c0-4.3-1.1-5.6-2.3-5.6s-2.3,1.3-2.3,5.6s1.1,5.8,2.3,5.8S113.1,571.9,113.1,567.6z"/>
	<path d="M120.3,572.8h3.4v-9.7h-2.9v-2c1.6-0.4,2.7-0.7,3.8-1.3h2.3v13h3.1v2.5h-9.7V572.8z"/>
</g>
<g>
	<path d="M15,608.8c3.1,4.1,8.1,8.3,12.6,10.4c-0.5,0.5-1.1,1.3-1.4,1.8c-4.3-2.5-9.4-6.7-12.1-10.1c-2.3,3.4-7,7.6-11.9,10.3
		c-0.2-0.5-0.9-1.3-1.4-1.6c4.9-2.7,9.7-7,12.1-10.8C12.8,608.8,15,608.8,15,608.8z M23.8,630.6c0,1.1-0.2,1.8-1.1,2.2
		c-0.9,0.4-2.3,0.4-4.5,0.4c-0.2-0.7-0.5-1.4-0.7-2c1.6,0,3.2,0,3.8,0s0.7-0.2,0.7-0.5v-5.9h-8.6v10.4H11v-10.3H3.5v-2h20.3V630.6z
		 M20.2,617.3v2H8.1v-2H20.2z"/>
	<path d="M41.1,617.3h5v2h-5v0.7c1.1,1.1,4.1,4.7,4.9,5.6l-1.3,1.8c-0.7-1.1-2.3-3.2-3.6-4.9v12.6h-2.2v-12.6
		c-1.4,3.4-3.2,6.7-5,8.6c-0.2-0.5-0.7-1.4-1.3-2c2.2-2.2,4.5-6.1,5.8-9.7h-5v-2h5.6v-4.9c-1.6,0.2-3.2,0.5-4.7,0.7
		c-0.2-0.5-0.4-1.3-0.5-1.6c3.8-0.5,8.3-1.4,10.8-2.3l1.4,1.6c-1.4,0.2-3.1,0.7-4.9,1.1V617.3z M57.6,611.5v22.1h-2.2v-2.2H49v2.3
		h-2.2v-22.3H57.6z M55.5,629.3v-15.8H49v15.8H55.5z"/>
	<path d="M66.8,630l1.3-1.6c1.4,1.4,3.2,2.7,6.1,2.7c2.9,0,5.2-1.8,5.2-5c0-2.9-2.2-4.9-5-4.9c-2,0-3.2,0.4-4.7,1.4l-1.4-0.9
		l0.7-10.1h12.4v2.3H71.3l-0.5,6.3c1.3-0.7,2.5-1.1,4.3-1.1c4,0,7.2,2.2,7.2,6.7c0,4.7-3.8,7.2-7.7,7.2
		C70.8,633.3,68.4,631.8,66.8,630z"/>
	<path d="M116.9,628.4h-10.4v6.7h-2.2v-6.7H90.9v-2.2h4.7v-7.7h8.6v-4.3h-7c-1.3,2.2-2.9,4.1-4.3,5.8c-0.4-0.4-1.3-1.1-1.8-1.4
		c2.7-2.3,5-6.1,6.5-9.9l2.2,0.5c-0.4,1.1-0.9,2-1.3,3.1h17.1v2.2h-9.2v4.3h8.5v2h-8.5v5.8h10.4V628.4z M104.3,626.4v-5.8h-6.5v5.8
		H104.3z"/>
	<path d="M126.2,613.5v6.3c0,4.5-0.4,11-2.9,15.3c-0.4-0.4-1.3-0.9-1.8-1.3c2.3-4.1,2.5-9.9,2.5-14v-8.1h10.6v-2.9h2.2v2.9h10.8v1.8
		H126.2z M145.5,625.7c-1.3,2.5-3.2,4.3-5.8,5.8c2.5,0.9,5.4,1.4,8.5,1.8c-0.5,0.4-1.1,1.3-1.3,1.8c-3.6-0.5-6.7-1.3-9.5-2.5
		c-3.1,1.3-6.5,2-10.1,2.5c-0.2-0.5-0.5-1.3-0.9-1.8c3.1-0.4,6.1-0.9,8.8-1.8c-1.8-1.1-3.4-2.5-4.5-4.1l1.1-0.4h-4.3v-1.8h16.2h0.4
		L145.5,625.7z M131.8,623.4v-4.7h-4.5v-1.8h4.5v-2.5h2v2.5h7v-2.5h2.2v2.5h4.7v1.8H143v4.7H131.8z M132.9,626.8
		c1.1,1.4,2.7,2.7,4.7,3.6c2-0.9,3.6-2.2,4.9-3.6H132.9z M133.8,618.5v3.1h7v-3.1H133.8z"/>
	<path d="M164,626.8c-0.7-0.9-2.3-2.5-3.6-3.6v11.9h-2.2v-11.2c-1.4,1.4-2.9,2.7-4.3,3.6c-0.2-0.5-0.7-1.4-1.1-2c3.4-2,7-5.6,9-9.4
		h-7.9v-2h4.5v-5.4h2.2v5.4h2.5h0.4l1.3,0.7c-0.9,2.2-2.2,4.3-3.8,6.3c1.4,1.1,4,3.2,4.7,4L164,626.8z M180,632.2v2.2h-16.2v-2.2
		h7.2v-11.9h-6.1v-2.2h6.1V609h2.2v9.2h6.1v2.2h-6.1v11.9H180z"/>
	<path d="M194.3,630.2l2,1.3c-2.3,1.4-5.9,2.9-9,3.6c-0.4-0.4-1.1-1.1-1.6-1.6C188.5,632.7,192.3,631.5,194.3,630.2h-5.6v-12.4H209
		v12.4H194.3z M207.9,616.4h-18v-6.5h18V616.4z M190.8,621.6h16v-2h-16V621.6z M190.8,625.2h16v-2h-16V625.2z M190.8,628.8h16v-2.2
		h-16V628.8z M205.6,611.7h-13.7v3.1h13.7V611.7z M202.9,630.4c2.9,0.9,6.8,2.3,9,3.2l-1.8,1.6c-2.2-1.1-5.9-2.5-9-3.4L202.9,630.4z
		"/>
	<path d="M228.8,620.1c-0.2,9.7-0.4,13-1.1,13.9c-0.4,0.7-0.9,0.9-1.6,0.9s-1.8,0-3.1,0c0-0.5-0.2-1.4-0.5-2
		c1.3,0.2,2.2,0.2,2.7,0.2c0.4,0,0.7,0,0.9-0.4c0.5-0.7,0.7-3.6,0.9-11.7h-3.6c-0.2,4.5-0.9,9.5-4.1,14c-0.4-0.4-1.1-0.9-1.6-1.3
		c3.4-4.7,3.8-10.3,3.8-14.6v-4h-3.2v-1.8h5v-4.7h2v4.7h4.7v2h-6.5v3.8h5.4C228.8,619.2,228.8,620.1,228.8,620.1z M233,614.6
		c-0.9,1.6-1.8,3.1-2.9,4.3c-0.4-0.4-1.3-1.1-1.8-1.4c2.2-2.2,3.8-5.4,4.7-8.8l2.2,0.4c-0.4,1.1-0.7,2.3-1.1,3.4h9.9v2h-11V614.6z
		 M244.5,621.6c-1.4,1.4-3.4,2.9-5,4.1c1.3,3.2,2.9,5.9,5.2,7.6c-0.5,0.4-1.1,1.3-1.4,1.8c-4-2.9-5.9-8.3-7-14.8
		c-0.7,0.4-1.3,0.5-2,0.7v14h-2v-13.3c-0.5,0.2-1.1,0.4-1.6,0.5c-0.2-0.5-0.7-1.3-1.3-1.8c4-0.9,9.5-3.1,12.1-5l1.4,1.1
		c-1.3,0.9-3.1,2-5,2.9c0.2,1.6,0.5,3.1,1.1,4.5c1.4-1.1,3.1-2.5,4.1-3.6L244.5,621.6z"/>
	<path d="M259.4,615.6c-0.9,1.4-2,2.9-3.2,4.3v15.1H254v-12.8c-1.1,1.1-2.2,2.2-3.2,3.1c-0.4-0.4-1.1-1.4-1.4-1.8
		c2.9-2.2,6.1-5.4,8.1-8.6L259.4,615.6z M258.3,609.5c-1.8,2.5-4.9,5.4-7.4,7.2c-0.4-0.5-0.9-1.3-1.3-1.6c2.3-1.6,5.2-4.1,6.7-6.3
		L258.3,609.5z M276,620.5h-4.5v11.9c0,1.3-0.4,2-1.3,2.3c-0.9,0.4-2.5,0.4-5.4,0.4c0-0.5-0.4-1.4-0.7-2.2c2,0,4,0,4.5,0
		s0.7-0.2,0.7-0.7v-11.9h-9.5v-2H276V620.5z M275.1,612.6h-14v-2h14V612.6z"/>
	<path d="M286.4,613.1c-0.5,2.7-1.4,7.7-1.4,11c0,1.4,0,2.7,0.2,4c0.5-1.3,1.3-3.1,1.6-4.1l1.3,0.9c-0.7,2-1.8,5-2,6.5
		c0,0.4-0.2,0.9-0.2,1.3c0,0.4,0,0.7,0,1.1l-2.2,0.2c-0.5-2-1.1-5.4-1.1-9.2c0-4.3,0.9-9.2,1.3-11.5c0.2-0.7,0.2-1.4,0.2-2l2.5,0.2
		C286.8,611.7,286.4,612.6,286.4,613.1z M293.1,627.9c0,1.3,0.9,2.5,4.9,2.5c2.5,0,4.9-0.2,7.2-0.7v2.3c-1.8,0.4-4.3,0.5-7.2,0.5
		c-4.9,0-7-1.6-7-4.3c0-0.9,0.2-2,0.5-3.4l2.2,0.2C293.3,626.3,293.1,627,293.1,627.9z M304.2,613.5v2.3c-3.1,0.4-8.6,0.4-11.9,0
		v-2.3C295.6,614,301.4,613.8,304.2,613.5z"/>
	<path d="M314.5,613.7c1.8-0.2,7.4-0.7,12.6-1.3c3.1-0.4,5.8-0.4,7.7-0.5v2.3c-1.6,0-4.1,0-5.6,0.5c-4.1,1.3-6.7,5.8-6.7,9.2
		c0,5.6,5.2,7.4,9.9,7.6l-0.9,2.3c-5.4-0.2-11.3-3.1-11.3-9.5c0-4.5,2.7-8.1,5.4-9.7c-3.1,0.4-10.4,1.1-13.5,1.6l-0.2-2.5
		C312.9,613.7,314,613.7,314.5,613.7z"/>
	<path d="M353.6,609c7.2,0,13,5.8,13,13c0,7.2-5.8,13-13,13c-7.2,0-13-5.8-13-13C340.6,614.7,346.4,609,353.6,609z"/>
	<path d="M385.4,609c7.2,0,13,5.8,13,13c0,7.2-5.8,13-13,13s-13-5.8-13-13C372.5,614.7,378.2,609,385.4,609z"/>
	<path d="M409,613.1c-0.5,2.7-1.4,7.7-1.4,11c0,1.4,0,2.7,0.2,4c0.5-1.3,1.3-3.1,1.6-4.1l1.3,0.9c-0.7,2-1.8,5-2,6.5
		c0,0.4-0.2,0.9-0.2,1.3c0,0.4,0,0.7,0,1.1l-2.2,0.2c-0.5-2-1.1-5.4-1.1-9.2c0-4.3,0.9-9.2,1.3-11.5c0.2-0.7,0.2-1.4,0.2-2l2.5,0.2
		C409.4,611.7,409.2,612.6,409,613.1z M415.7,627.9c0,1.3,0.9,2.5,4.9,2.5c2.5,0,4.9-0.2,7.2-0.7v2.3c-1.8,0.4-4.3,0.5-7.2,0.5
		c-4.9,0-7-1.6-7-4.3c0-0.9,0.2-2,0.5-3.4l2.2,0.2C415.8,626.3,415.7,627,415.7,627.9z M426.8,613.5v2.3c-3.1,0.4-8.6,0.4-11.9,0
		v-2.3C418.2,614,423.9,613.8,426.8,613.5z"/>
	<path d="M443.6,615.6c-0.9,1.4-2,2.9-3.2,4.3v15.1h-2.2v-12.8c-1.1,1.1-2.2,2.2-3.2,3.1c-0.4-0.4-1.1-1.4-1.4-1.8
		c2.9-2.2,6.1-5.4,8.1-8.6L443.6,615.6z M442.5,609.5c-1.8,2.5-4.9,5.4-7.4,7.2c-0.4-0.5-0.9-1.3-1.3-1.6c2.3-1.6,5.2-4.1,6.7-6.3
		L442.5,609.5z M460.1,620.5h-4.3v11.9c0,1.3-0.4,2-1.3,2.3c-0.9,0.4-2.5,0.4-5.4,0.4c0-0.5-0.4-1.4-0.7-2.2c2,0,4,0,4.5,0
		s0.7-0.2,0.7-0.7v-11.9h-9.5v-2h16.2v2.2H460.1z M459.4,612.6h-14v-2h14V612.6z"/>
	<path d="M470.2,620.7c2-0.7,6.8-2.3,10.3-2.3c4.1,0,7,2.5,7,6.5c0,5.6-5.4,8.3-13.1,8.8l-0.9-2.2c6.3-0.2,11.7-2,11.7-6.7
		c0-2.3-2-4.3-4.9-4.3c-3.6,0-9.9,2.7-11.7,3.4l-0.9-2.3C468.2,621.2,469.1,620.9,470.2,620.7z"/>
	<path d="M494.5,613.7c1.8-0.2,7.4-0.7,12.6-1.3c3.1-0.4,5.8-0.4,7.7-0.5v2.3c-1.6,0-4.1,0-5.6,0.5c-4.1,1.3-6.7,5.8-6.7,9.2
		c0,5.6,5.2,7.4,9.9,7.6l-0.9,2.3c-5.4-0.2-11.3-3.1-11.3-9.5c0-4.5,2.7-8.1,5.4-9.7c-3.1,0.4-10.4,1.1-13.5,1.6l-0.2-2.5
		C493.1,613.7,494,613.7,494.5,613.7z"/>
	<path d="M532.1,610.2l2.5-0.4c0.2,1.1,0.4,2.3,0.7,3.4c2-0.2,4.1-0.7,5.9-1.3l0.4,2.2c-1.6,0.5-3.6,0.9-5.8,1.1
		c0.2,0.7,0.4,1.4,0.7,2c0.2,0.5,0.4,1.1,0.7,1.8c2.3-0.4,4.3-0.7,5.8-1.3l0.4,2.2c-1.4,0.4-3.2,0.7-5.2,1.1c0.5,1.3,1.3,2.5,2,3.6
		c0.4,0.5,0.7,0.9,1.1,1.3l-1.3,1.8c-1.6-0.4-4.3-0.7-6.3-0.9l0.2-1.8c1.4,0.2,3.4,0.4,4.3,0.5c-0.9-1.3-1.6-2.7-2.2-4.1
		c-3.6,0.4-8.3,0.4-12.6,0l-0.2-2.2c4.3,0.5,8.6,0.4,11.9,0.2c-0.2-0.5-0.4-1.1-0.5-1.4c-0.4-0.7-0.5-1.6-0.7-2.2
		c-2.9,0.2-6.3,0.2-9.9-0.2l-0.2-2.2c3.4,0.4,6.7,0.5,9.5,0.4c0-0.2-0.2-0.5-0.2-0.7C532.7,611.9,532.5,611,532.1,610.2z
		 M526.2,628.4c0,2.3,2.2,3.6,6.7,3.6c2.7,0,4.9-0.2,6.8-0.5v2.3c-2,0.4-4.3,0.5-6.7,0.5c-5.6,0-8.8-1.6-8.8-5.4
		c0-1.6,0.5-2.9,1.1-4.1l2.2,0.5C526.5,626.3,526.2,627.2,526.2,628.4z"/>
	<path d="M563.4,611.9c0,0.4,0,1.1,0,1.8c2.5-0.2,5.2-0.4,7.7-0.7v2.2c-2.3,0.2-5,0.5-7.7,0.7c0,1.3,0,2.7,0,3.6c0,0.2,0,0.2,0,0.4
		c2.9-0.2,5.4-0.4,8.1-0.7v2.2c-2.7,0.4-5.2,0.5-7.9,0.7c0,1.4,0.2,3.1,0.2,4.5c3.8,1.1,6.8,3.1,8.5,4.5l-1.3,2
		c-1.6-1.6-4.1-3.2-7-4.3c0,0.7,0,1.3,0,1.8c0,2-1.3,4-5,4c-4.1,0-6.5-1.4-6.5-4.3c0-2.7,2.5-4.3,6.7-4.3c0.9,0,1.6,0,2.3,0.2
		c0-1.3,0-2.7-0.2-4c-0.5,0-1.1,0-1.6,0c-2,0-5-0.2-7.2-0.4v-2.2c2.2,0.4,5.4,0.5,7.2,0.5c0.5,0,1.1,0,1.6,0c0-0.2,0-0.4,0-0.4
		c0-1.1,0-2.3,0-3.6c-0.4,0-0.9,0-1.3,0c-2,0-5.6-0.4-7.4-0.5v-2.2c1.8,0.4,5.4,0.7,7.4,0.7c0.4,0,0.9,0,1.3,0c0-0.7,0-1.4,0-2
		c0-0.5,0-1.3-0.2-1.8h2.5C563.6,610.6,563.4,611.1,563.4,611.9z M558.6,632.2c1.6,0,3.1-0.5,3.1-2.5c0-0.5,0-1.3,0-2
		c-0.9-0.2-1.8-0.4-2.9-0.4c-2.7,0-4.3,1.1-4.3,2.3S555.7,632.2,558.6,632.2z"/>
	<path d="M584.5,613.3c-0.2,3.2-0.4,10.1-0.4,14.4c0,3.2,2,4.3,4.7,4.3c5.2,0,8.3-2.9,10.3-5.9l1.6,2c-2,2.7-5.8,6.3-12.1,6.3
		c-4.1,0-7-1.8-7-6.5c0-4.3,0.4-11.5,0.4-14.6c0-1.1,0-2.2-0.2-2.9h2.9C584.5,611.3,584.5,612.4,584.5,613.3z"/>
	<path d="M616.2,612.6c-0.2,0.5-0.2,1.4-0.4,2.2c1.8-0.2,3.8-0.5,5.6-1.1v2.3c-1.8,0.4-4,0.7-5.9,0.9c-0.2,1.3-0.5,2.5-0.9,3.8
		c-1.1,4.1-3.1,10.1-4.5,13.1l-2.5-0.9c1.8-2.9,3.8-8.8,4.9-13c0.2-0.9,0.5-2,0.7-3.1c-0.9,0-1.8,0-2.7,0c-1.3,0-2.3,0-3.4-0.2v-2.2
		c1.4,0.2,2.3,0.2,3.4,0.2c0.9,0,2,0,3.1-0.2c0.2-1.1,0.4-2,0.4-2.5c0.2-0.7,0.2-1.8,0-2.3l2.7,0.2
		C616.5,610.8,616.4,611.9,616.2,612.6z M619.6,628.6c0,1.4,0.7,2.7,4.9,2.7c1.8,0,3.8-0.2,5.6-0.5v2.3c-1.6,0.2-3.4,0.4-5.6,0.4
		c-4.5,0-7-1.4-7-4.3c0-1.1,0.2-2.2,0.4-3.4l2.2,0.2C619.8,627,619.6,627.9,619.6,628.6z M624.8,618.7c1.6,0,3.4,0,5,0.2v2.2
		c-1.4-0.2-3.2-0.4-4.9-0.4c-1.8,0-3.6,0-5.4,0.4v-2.2C621,618.9,622.8,618.7,624.8,618.7z"/>
	<path d="M645.7,630.2c0,2.5-2,4.3-4.3,4.3c-2.3,0-4.3-2-4.3-4.3s2-4.3,4.3-4.3C643.7,625.9,645.7,627.9,645.7,630.2z M644.3,630.2
		c0-1.6-1.3-2.9-2.9-2.9s-2.9,1.3-2.9,2.9s1.3,2.9,2.9,2.9C642.8,633.1,644.3,631.8,644.3,630.2z"/>
</g>
<line class="st0" x1="0" y1="667.2" x2="675" y2="667.2"/>
<g>
	<path d="M0.6,713.1c4.1-4,6.8-6.7,6.8-9c0-1.6-0.9-2.5-2.3-2.5c-1.1,0-2.2,0.7-2.9,1.6l-1.8-1.8c1.4-1.4,2.9-2.3,5-2.3
		c3.1,0,5,2,5,4.9c0,2.7-2.5,5.6-5.4,8.5c0.7,0,1.8-0.2,2.7-0.2h3.4v2.7H0.6V713.1z"/>
	<path d="M15.3,707.2c0-5.2,2.2-8.1,5.4-8.1s5.4,2.7,5.4,8.1c0,5.2-2.2,8.1-5.4,8.1S15.3,712.4,15.3,707.2z M23.3,707.2
		c0-4.3-1.1-5.6-2.3-5.6c-1.3,0-2.3,1.3-2.3,5.6s1.1,5.8,2.3,5.8C22.2,713,23.3,711.5,23.3,707.2z"/>
	<path d="M30.1,713.1c4.1-4,6.8-6.7,6.8-9c0-1.6-0.9-2.5-2.3-2.5c-1.1,0-2.2,0.7-2.9,1.6l-1.8-1.8c1.4-1.4,2.9-2.3,5-2.3
		c3.1,0,5,2,5,4.9c0,2.7-2.5,5.6-5.4,8.5c0.7,0,1.8-0.2,2.7-0.2h3.4v2.7H30.1V713.1z"/>
	<path d="M44.9,713l1.4-2c0.9,0.9,2.2,1.6,3.6,1.6c1.6,0,2.7-0.7,2.7-2.2s-0.9-2.3-4.3-2.3v-2.3c2.9,0,4-0.9,4-2.3
		c0-1.3-0.7-2-2.2-2c-1.1,0-2.2,0.5-3.1,1.4l-1.6-2c1.3-1.1,2.9-1.8,4.7-1.8c3.1,0,5.2,1.4,5.2,4.1c0,1.6-1.1,2.9-2.7,3.6v0.2
		c1.8,0.5,3.2,1.8,3.2,3.8c0,2.9-2.5,4.5-5.6,4.5C47.7,715.3,45.9,714.4,44.9,713z"/>
	<path d="M60.5,713.1c0-1.3,0.9-2.2,2-2.2s2,0.9,2,2.2c0,1.1-0.9,2.2-2,2.2S60.5,714.4,60.5,713.1z"/>
	<path d="M68.8,707.2c0-5.2,2.2-8.1,5.4-8.1s5.4,2.7,5.4,8.1c0,5.2-2.2,8.1-5.4,8.1C71,715.3,68.8,712.4,68.8,707.2z M76.5,707.2
		c0-4.3-1.1-5.6-2.3-5.6s-2.5,1.3-2.5,5.6s1.1,5.8,2.3,5.8S76.5,711.5,76.5,707.2z"/>
	<path d="M90.8,702h-7.2v-2.5h10.6v2c-3.6,4.5-4.1,7.6-4.5,13.7h-3.2C86.6,709.5,87.7,706.1,90.8,702z"/>
	<path d="M97.1,713.1c0-1.3,0.9-2.2,2-2.2c1.1,0,2,0.9,2,2.2c0,1.1-0.9,2.2-2,2.2C98,715.3,97.1,714.4,97.1,713.1z"/>
	<path d="M105.3,707.2c0-5.2,2.2-8.1,5.4-8.1s5.4,2.7,5.4,8.1c0,5.2-2.2,8.1-5.4,8.1S105.3,712.4,105.3,707.2z M113.1,707.2
		c0-4.3-1.1-5.6-2.3-5.6s-2.3,1.3-2.3,5.6s1.1,5.8,2.3,5.8S113.1,711.5,113.1,707.2z"/>
	<path d="M120.3,712.4h3.4v-9.7h-2.9v-2c1.6-0.4,2.7-0.7,3.8-1.3h2.3v13h3.1v2.5h-9.7V712.4z"/>
</g>
<g>
	<path d="M15,748.4c3.1,4.1,8.1,8.3,12.6,10.4c-0.5,0.5-1.1,1.3-1.4,1.8c-4.3-2.5-9.4-6.7-12.1-10.1c-2.3,3.4-7,7.6-11.9,10.3
		c-0.2-0.5-0.9-1.3-1.4-1.6c4.9-2.7,9.7-7,12.1-10.8C12.8,748.4,15,748.4,15,748.4z M23.8,770.2c0,1.1-0.2,1.8-1.1,2.2
		c-0.9,0.4-2.3,0.4-4.5,0.4c-0.2-0.7-0.5-1.4-0.7-2c1.6,0,3.2,0,3.8,0s0.7-0.2,0.7-0.5v-5.9h-8.6v10.4H11v-10.3H3.5v-2h20.3V770.2z
		 M20.2,756.9v2H8.1v-2H20.2z"/>
	<path d="M41.1,756.9h5v2h-5v0.7c1.1,1.1,4.1,4.7,4.9,5.6l-1.3,1.8c-0.7-1.1-2.3-3.2-3.6-4.9v12.6h-2.2v-12.6
		c-1.4,3.4-3.2,6.7-5,8.6c-0.2-0.5-0.7-1.4-1.3-2c2.2-2.2,4.5-6.1,5.8-9.7h-5v-2h5.6v-4.9c-1.6,0.2-3.2,0.5-4.7,0.7
		c-0.2-0.5-0.4-1.3-0.5-1.6c3.8-0.5,8.3-1.4,10.8-2.3l1.4,1.6c-1.4,0.2-3.1,0.7-4.9,1.1V756.9z M57.6,751.1v22.1h-2.2v-2.2H49v2.3
		h-2.2v-22.3H57.6z M55.5,768.9v-15.8H49v15.8H55.5z"/>
	<path d="M66.8,769.7l1.3-1.6c1.4,1.4,3.2,2.7,6.1,2.7c2.9,0,5.2-1.8,5.2-5c0-2.9-2.2-4.9-5-4.9c-2,0-3.2,0.4-4.7,1.4l-1.4-0.9
		l0.7-10.1h12.4v2.3H71.3l-0.5,6.3c1.3-0.7,2.5-1.1,4.3-1.1c4,0,7.2,2.2,7.2,6.7c0,4.7-3.8,7.2-7.7,7.2
		C70.8,772.9,68.4,771.5,66.8,769.7z"/>
	<path d="M116.9,768h-10.4v6.7h-2.2V768H90.9v-2.2h4.7v-7.7h8.6v-4.3h-7c-1.3,2.2-2.9,4.1-4.3,5.8c-0.4-0.4-1.3-1.1-1.8-1.4
		c2.7-2.3,5-6.1,6.5-9.9l2.2,0.5c-0.4,1.1-0.9,2-1.3,3.1h17.1v2.2h-9.2v4.3h8.5v2h-8.5v5.8h10.4V768z M104.3,766.1v-5.8h-6.5v5.8
		H104.3z"/>
	<path d="M126.2,753.1v6.3c0,4.5-0.4,11-2.9,15.3c-0.4-0.4-1.3-0.9-1.8-1.3c2.3-4.1,2.5-9.9,2.5-14v-8.1h10.6v-2.9h2.2v2.9h10.8v1.8
		H126.2z M145.5,765.3c-1.3,2.5-3.2,4.3-5.8,5.8c2.5,0.9,5.4,1.4,8.5,1.8c-0.5,0.4-1.1,1.3-1.3,1.8c-3.6-0.5-6.7-1.3-9.5-2.5
		c-3.1,1.3-6.5,2-10.1,2.5c-0.2-0.5-0.5-1.3-0.9-1.8c3.1-0.4,6.1-0.9,8.8-1.8c-1.8-1.1-3.4-2.5-4.5-4.1l1.1-0.4h-4.3v-1.8h16.2h0.4
		L145.5,765.3z M131.8,763v-4.7h-4.5v-1.8h4.5V754h2v2.5h7V754h2.2v2.5h4.7v1.8H143v4.7H131.8z M132.9,766.4
		c1.1,1.4,2.7,2.7,4.7,3.6c2-0.9,3.6-2.2,4.9-3.6H132.9z M133.8,758.1v3.1h7v-3.1H133.8z"/>
	<path d="M164,766.4c-0.7-0.9-2.3-2.5-3.6-3.6v11.9h-2.2v-11.2c-1.4,1.4-2.9,2.7-4.3,3.6c-0.2-0.5-0.7-1.4-1.1-2c3.4-2,7-5.6,9-9.4
		h-7.9v-2h4.5v-5.4h2.2v5.4h2.5h0.4l1.3,0.7c-0.9,2.2-2.2,4.3-3.8,6.3c1.4,1.1,4,3.2,4.7,4L164,766.4z M180,771.8v2.2h-16.2v-2.2
		h7.2v-11.9h-6.1v-2.2h6.1v-9.2h2.2v9.2h6.1v2.2h-6.1v11.9H180z"/>
	<path d="M194.3,769.8l2,1.3c-2.3,1.4-5.9,2.9-9,3.6c-0.4-0.4-1.1-1.1-1.6-1.6C188.5,772.4,192.3,771.1,194.3,769.8h-5.6v-12.4H209
		v12.4H194.3z M207.9,756h-18v-6.5h18V756z M190.8,761.2h16v-2h-16V761.2z M190.8,764.8h16v-2h-16V764.8z M190.8,768.4h16v-2.2h-16
		V768.4z M205.6,751.3h-13.7v3.1h13.7V751.3z M202.9,770c2.9,0.9,6.8,2.3,9,3.2l-1.8,1.6c-2.2-1.1-5.9-2.5-9-3.4L202.9,770z"/>
	<path d="M228.8,759.8c-0.2,9.7-0.4,13-1.1,13.9c-0.4,0.7-0.9,0.9-1.6,0.9s-1.8,0-3.1,0c0-0.5-0.2-1.4-0.5-2
		c1.3,0.2,2.2,0.2,2.7,0.2c0.4,0,0.7,0,0.9-0.4c0.5-0.7,0.7-3.6,0.9-11.7h-3.6c-0.2,4.5-0.9,9.5-4.1,14c-0.4-0.4-1.1-0.9-1.6-1.3
		c3.4-4.7,3.8-10.3,3.8-14.6v-4h-3.2v-1.8h5v-4.7h2v4.7h4.7v2h-6.5v3.8h5.4C228.8,758.9,228.8,759.8,228.8,759.8z M233,754.2
		c-0.9,1.6-1.8,3.1-2.9,4.3c-0.4-0.4-1.3-1.1-1.8-1.4c2.2-2.2,3.8-5.4,4.7-8.8l2.2,0.4c-0.4,1.1-0.7,2.3-1.1,3.4h9.9v2h-11V754.2z
		 M244.5,761.2c-1.4,1.4-3.4,2.9-5,4.1c1.3,3.2,2.9,5.9,5.2,7.6c-0.5,0.4-1.1,1.3-1.4,1.8c-4-2.9-5.9-8.3-7-14.8
		c-0.7,0.4-1.3,0.5-2,0.7v14h-2v-13.3c-0.5,0.2-1.1,0.4-1.6,0.5c-0.2-0.5-0.7-1.3-1.3-1.8c4-0.9,9.5-3.1,12.1-5l1.4,1.1
		c-1.3,0.9-3.1,2-5,2.9c0.2,1.6,0.5,3.1,1.1,4.5c1.4-1.1,3.1-2.5,4.1-3.6L244.5,761.2z"/>
	<path d="M259.4,755.3c-0.9,1.4-2,2.9-3.2,4.3v15.1H254v-12.8c-1.1,1.1-2.2,2.2-3.2,3.1c-0.4-0.4-1.1-1.4-1.4-1.8
		c2.9-2.2,6.1-5.4,8.1-8.6L259.4,755.3z M258.3,749.1c-1.8,2.5-4.9,5.4-7.4,7.2c-0.4-0.5-0.9-1.3-1.3-1.6c2.3-1.6,5.2-4.1,6.7-6.3
		L258.3,749.1z M276,760.1h-4.5V772c0,1.3-0.4,2-1.3,2.3c-0.9,0.4-2.5,0.4-5.4,0.4c0-0.5-0.4-1.4-0.7-2.2c2,0,4,0,4.5,0
		s0.7-0.2,0.7-0.7v-11.9h-9.5v-2H276V760.1z M275.1,752.2h-14v-2h14V752.2z"/>
	<path d="M286.4,752.7c-0.5,2.7-1.4,7.7-1.4,11c0,1.4,0,2.7,0.2,4c0.5-1.3,1.3-3.1,1.6-4.1l1.3,0.9c-0.7,2-1.8,5-2,6.5
		c0,0.4-0.2,0.9-0.2,1.3c0,0.4,0,0.7,0,1.1l-2.2,0.2c-0.5-2-1.1-5.4-1.1-9.2c0-4.3,0.9-9.2,1.3-11.5c0.2-0.7,0.2-1.4,0.2-2l2.5,0.2
		C286.8,751.3,286.4,752.2,286.4,752.7z M293.1,767.5c0,1.3,0.9,2.5,4.9,2.5c2.5,0,4.9-0.2,7.2-0.7v2.3c-1.8,0.4-4.3,0.5-7.2,0.5
		c-4.9,0-7-1.6-7-4.3c0-0.9,0.2-2,0.5-3.4l2.2,0.2C293.3,765.9,293.1,766.6,293.1,767.5z M304.2,753.1v2.3c-3.1,0.4-8.6,0.4-11.9,0
		v-2.3C295.6,753.6,301.4,753.5,304.2,753.1z"/>
	<path d="M314.5,753.3c1.8-0.2,7.4-0.7,12.6-1.3c3.1-0.4,5.8-0.4,7.7-0.5v2.3c-1.6,0-4.1,0-5.6,0.5c-4.1,1.3-6.7,5.8-6.7,9.2
		c0,5.6,5.2,7.4,9.9,7.6l-0.9,2.3c-5.4-0.2-11.3-3.1-11.3-9.5c0-4.5,2.7-8.1,5.4-9.7c-3.1,0.4-10.4,1.1-13.5,1.6l-0.2-2.5
		C312.9,753.3,314,753.3,314.5,753.3z"/>
	<path d="M353.6,748.6c7.2,0,13,5.8,13,13c0,7.2-5.8,13-13,13c-7.2,0-13-5.8-13-13C340.6,754.4,346.4,748.6,353.6,748.6z"/>
	<path d="M385.4,748.6c7.2,0,13,5.8,13,13c0,7.2-5.8,13-13,13s-13-5.8-13-13C372.5,754.4,378.2,748.6,385.4,748.6z"/>
	<path d="M409,752.7c-0.5,2.7-1.4,7.7-1.4,11c0,1.4,0,2.7,0.2,4c0.5-1.3,1.3-3.1,1.6-4.1l1.3,0.9c-0.7,2-1.8,5-2,6.5
		c0,0.4-0.2,0.9-0.2,1.3c0,0.4,0,0.7,0,1.1l-2.2,0.2c-0.5-2-1.1-5.4-1.1-9.2c0-4.3,0.9-9.2,1.3-11.5c0.2-0.7,0.2-1.4,0.2-2l2.5,0.2
		C409.4,751.3,409.2,752.2,409,752.7z M415.7,767.5c0,1.3,0.9,2.5,4.9,2.5c2.5,0,4.9-0.2,7.2-0.7v2.3c-1.8,0.4-4.3,0.5-7.2,0.5
		c-4.9,0-7-1.6-7-4.3c0-0.9,0.2-2,0.5-3.4l2.2,0.2C415.8,765.9,415.7,766.6,415.7,767.5z M426.8,753.1v2.3c-3.1,0.4-8.6,0.4-11.9,0
		v-2.3C418.2,753.6,423.9,753.5,426.8,753.1z"/>
	<path d="M443.6,755.3c-0.9,1.4-2,2.9-3.2,4.3v15.1h-2.2v-12.8c-1.1,1.1-2.2,2.2-3.2,3.1c-0.4-0.4-1.1-1.4-1.4-1.8
		c2.9-2.2,6.1-5.4,8.1-8.6L443.6,755.3z M442.5,749.1c-1.8,2.5-4.9,5.4-7.4,7.2c-0.4-0.5-0.9-1.3-1.3-1.6c2.3-1.6,5.2-4.1,6.7-6.3
		L442.5,749.1z M460.1,760.1h-4.3V772c0,1.3-0.4,2-1.3,2.3c-0.9,0.4-2.5,0.4-5.4,0.4c0-0.5-0.4-1.4-0.7-2.2c2,0,4,0,4.5,0
		s0.7-0.2,0.7-0.7v-11.9h-9.5v-2h16.2v2.2H460.1z M459.4,752.2h-14v-2h14V752.2z"/>
	<path d="M470.2,760.3c2-0.7,6.8-2.3,10.3-2.3c4.1,0,7,2.5,7,6.5c0,5.6-5.4,8.3-13.1,8.8l-0.9-2.2c6.3-0.2,11.7-2,11.7-6.7
		c0-2.3-2-4.3-4.9-4.3c-3.6,0-9.9,2.7-11.7,3.4l-0.9-2.3C468.2,760.8,469.1,760.5,470.2,760.3z"/>
	<path d="M494.5,753.3c1.8-0.2,7.4-0.7,12.6-1.3c3.1-0.4,5.8-0.4,7.7-0.5v2.3c-1.6,0-4.1,0-5.6,0.5c-4.1,1.3-6.7,5.8-6.7,9.2
		c0,5.6,5.2,7.4,9.9,7.6l-0.9,2.3c-5.4-0.2-11.3-3.1-11.3-9.5c0-4.5,2.7-8.1,5.4-9.7c-3.1,0.4-10.4,1.1-13.5,1.6l-0.2-2.5
		C493.1,753.3,494,753.3,494.5,753.3z"/>
	<path d="M532.1,749.9l2.5-0.4c0.2,1.1,0.4,2.3,0.7,3.4c2-0.2,4.1-0.7,5.9-1.3l0.4,2.2c-1.6,0.5-3.6,0.9-5.8,1.1
		c0.2,0.7,0.4,1.4,0.7,2c0.2,0.5,0.4,1.1,0.7,1.8c2.3-0.4,4.3-0.7,5.8-1.3l0.4,2.2c-1.4,0.4-3.2,0.7-5.2,1.1c0.5,1.3,1.3,2.5,2,3.6
		c0.4,0.5,0.7,0.9,1.1,1.3l-1.3,1.8c-1.6-0.4-4.3-0.7-6.3-0.9l0.2-1.8c1.4,0.2,3.4,0.4,4.3,0.5c-0.9-1.3-1.6-2.7-2.2-4.1
		c-3.6,0.4-8.3,0.4-12.6,0l-0.2-2.2c4.3,0.5,8.6,0.4,11.9,0.2c-0.2-0.5-0.4-1.1-0.5-1.4c-0.4-0.7-0.5-1.6-0.7-2.2
		c-2.9,0.2-6.3,0.2-9.9-0.2l-0.2-2.2c3.4,0.4,6.7,0.5,9.5,0.4c0-0.2-0.2-0.5-0.2-0.7C532.7,751.5,532.5,750.6,532.1,749.9z
		 M526.2,768c0,2.3,2.2,3.6,6.7,3.6c2.7,0,4.9-0.2,6.8-0.5v2.3c-2,0.4-4.3,0.5-6.7,0.5c-5.6,0-8.8-1.6-8.8-5.4
		c0-1.6,0.5-2.9,1.1-4.1l2.2,0.5C526.5,765.9,526.2,766.8,526.2,768z"/>
	<path d="M563.4,751.5c0,0.4,0,1.1,0,1.8c2.5-0.2,5.2-0.4,7.7-0.7v2.2c-2.3,0.2-5,0.5-7.7,0.7c0,1.3,0,2.7,0,3.6c0,0.2,0,0.2,0,0.4
		c2.9-0.2,5.4-0.4,8.1-0.7v2.2c-2.7,0.4-5.2,0.5-7.9,0.7c0,1.4,0.2,3.1,0.2,4.5c3.8,1.1,6.8,3.1,8.5,4.5l-1.3,2
		c-1.6-1.6-4.1-3.2-7-4.3c0,0.7,0,1.3,0,1.8c0,2-1.3,4-5,4c-4.1,0-6.5-1.4-6.5-4.3c0-2.7,2.5-4.3,6.7-4.3c0.9,0,1.6,0,2.3,0.2
		c0-1.3,0-2.7-0.2-4c-0.5,0-1.1,0-1.6,0c-2,0-5-0.2-7.2-0.4V759c2.2,0.4,5.4,0.5,7.2,0.5c0.5,0,1.1,0,1.6,0c0-0.2,0-0.4,0-0.4
		c0-1.1,0-2.3,0-3.6c-0.4,0-0.9,0-1.3,0c-2,0-5.6-0.4-7.4-0.5v-2.2c1.8,0.4,5.4,0.7,7.4,0.7c0.4,0,0.9,0,1.3,0c0-0.7,0-1.4,0-2
		c0-0.5,0-1.3-0.2-1.8h2.5C563.6,750.2,563.4,750.8,563.4,751.5z M558.6,771.8c1.6,0,3.1-0.5,3.1-2.5c0-0.5,0-1.3,0-2
		c-0.9-0.2-1.8-0.4-2.9-0.4c-2.7,0-4.3,1.1-4.3,2.3C554.4,770.6,555.7,771.8,558.6,771.8z"/>
	<path d="M584.5,752.9c-0.2,3.2-0.4,10.1-0.4,14.4c0,3.2,2,4.3,4.7,4.3c5.2,0,8.3-2.9,10.3-5.9l1.6,2c-2,2.7-5.8,6.3-12.1,6.3
		c-4.1,0-7-1.8-7-6.5c0-4.3,0.4-11.5,0.4-14.6c0-1.1,0-2.2-0.2-2.9h2.9C584.5,750.9,584.5,752,584.5,752.9z"/>
	<path d="M616.2,752.2c-0.2,0.5-0.2,1.4-0.4,2.2c1.8-0.2,3.8-0.5,5.6-1.1v2.3c-1.8,0.4-4,0.7-5.9,0.9c-0.2,1.3-0.5,2.5-0.9,3.8
		c-1.1,4.1-3.1,10.1-4.5,13.1l-2.5-0.9c1.8-2.9,3.8-8.8,4.9-13c0.2-0.9,0.5-2,0.7-3.1c-0.9,0-1.8,0-2.7,0c-1.3,0-2.3,0-3.4-0.2v-2.2
		c1.4,0.2,2.3,0.2,3.4,0.2c0.9,0,2,0,3.1-0.2c0.2-1.1,0.4-2,0.4-2.5c0.2-0.7,0.2-1.8,0-2.3l2.7,0.2
		C616.5,750.4,616.4,751.5,616.2,752.2z M619.6,768.2c0,1.4,0.7,2.7,4.9,2.7c1.8,0,3.8-0.2,5.6-0.5v2.3c-1.6,0.2-3.4,0.4-5.6,0.4
		c-4.5,0-7-1.4-7-4.3c0-1.1,0.2-2.2,0.4-3.4l2.2,0.2C619.8,766.6,619.6,767.5,619.6,768.2z M624.8,758.3c1.6,0,3.4,0,5,0.2v2.2
		c-1.4-0.2-3.2-0.4-4.9-0.4c-1.8,0-3.6,0-5.4,0.4v-2.2C621,758.5,622.8,758.3,624.8,758.3z"/>
	<path d="M645.7,769.8c0,2.5-2,4.3-4.3,4.3c-2.3,0-4.3-2-4.3-4.3s2-4.3,4.3-4.3C643.7,765.5,645.7,767.5,645.7,769.8z M644.3,769.8
		c0-1.6-1.3-2.9-2.9-2.9s-2.9,1.3-2.9,2.9s1.3,2.9,2.9,2.9C642.8,772.7,644.3,771.5,644.3,769.8z"/>
</g>
<line class="st0" x1="0" y1="806.8" x2="675" y2="806.8"/>
<g>
	<path d="M0.6,852.8c4.1-4,6.8-6.7,6.8-9c0-1.6-0.9-2.5-2.3-2.5c-1.1,0-2.2,0.7-2.9,1.6l-1.8-1.8c1.4-1.4,2.9-2.3,5-2.3
		c3.1,0,5,2,5,4.9c0,2.7-2.5,5.6-5.4,8.5c0.7,0,1.8-0.2,2.7-0.2h3.4v2.7H0.6V852.8z"/>
	<path d="M15.3,846.8c0-5.2,2.2-8.1,5.4-8.1s5.4,2.7,5.4,8.1c0,5.2-2.2,8.1-5.4,8.1S15.3,852,15.3,846.8z M23.3,846.8
		c0-4.3-1.1-5.6-2.3-5.6c-1.3,0-2.3,1.3-2.3,5.6s1.1,5.8,2.3,5.8C22.2,852.6,23.3,851.1,23.3,846.8z"/>
	<path d="M30.1,852.8c4.1-4,6.8-6.7,6.8-9c0-1.6-0.9-2.5-2.3-2.5c-1.1,0-2.2,0.7-2.9,1.6l-1.8-1.8c1.4-1.4,2.9-2.3,5-2.3
		c3.1,0,5,2,5,4.9c0,2.7-2.5,5.6-5.4,8.5c0.7,0,1.8-0.2,2.7-0.2h3.4v2.7H30.1V852.8z"/>
	<path d="M44.9,852.6l1.4-2c0.9,0.9,2.2,1.6,3.6,1.6c1.6,0,2.7-0.7,2.7-2.2s-0.9-2.3-4.3-2.3v-2.3c2.9,0,4-0.9,4-2.3
		c0-1.3-0.7-2-2.2-2c-1.1,0-2.2,0.5-3.1,1.4l-1.6-2c1.3-1.1,2.9-1.8,4.7-1.8c3.1,0,5.2,1.4,5.2,4.1c0,1.6-1.1,2.9-2.7,3.6v0.2
		c1.8,0.5,3.2,1.8,3.2,3.8c0,2.9-2.5,4.5-5.6,4.5C47.7,854.9,45.9,854,44.9,852.6z"/>
	<path d="M60.5,852.8c0-1.3,0.9-2.2,2-2.2s2,0.9,2,2.2c0,1.1-0.9,2.2-2,2.2S60.5,854,60.5,852.8z"/>
	<path d="M68.8,846.8c0-5.2,2.2-8.1,5.4-8.1s5.4,2.7,5.4,8.1c0,5.2-2.2,8.1-5.4,8.1C71,854.9,68.8,852,68.8,846.8z M76.5,846.8
		c0-4.3-1.1-5.6-2.3-5.6s-2.5,1.3-2.5,5.6s1.1,5.8,2.3,5.8S76.5,851.1,76.5,846.8z"/>
	<path d="M90.8,841.6h-7.2v-2.5h10.6v2c-3.6,4.5-4.1,7.6-4.5,13.7h-3.2C86.6,849.2,87.7,845.7,90.8,841.6z"/>
	<path d="M97.1,852.8c0-1.3,0.9-2.2,2-2.2c1.1,0,2,0.9,2,2.2c0,1.1-0.9,2.2-2,2.2C98,854.9,97.1,854,97.1,852.8z"/>
	<path d="M105.3,846.8c0-5.2,2.2-8.1,5.4-8.1s5.4,2.7,5.4,8.1c0,5.2-2.2,8.1-5.4,8.1S105.3,852,105.3,846.8z M113.1,846.8
		c0-4.3-1.1-5.6-2.3-5.6s-2.3,1.3-2.3,5.6s1.1,5.8,2.3,5.8S113.1,851.1,113.1,846.8z"/>
	<path d="M120.3,852h3.4v-9.7h-2.9v-2c1.6-0.4,2.7-0.7,3.8-1.3h2.3v13h3.1v2.5h-9.7V852z"/>
</g>
<g>
	<path d="M15,888c3.1,4.1,8.1,8.3,12.6,10.4c-0.5,0.5-1.1,1.3-1.4,1.8c-4.3-2.5-9.4-6.7-12.1-10.1c-2.3,3.4-7,7.6-11.9,10.3
		c-0.2-0.5-0.9-1.3-1.4-1.6c4.9-2.7,9.7-7,12.1-10.8C12.8,888,15,888,15,888z M23.8,909.8c0,1.1-0.2,1.8-1.1,2.2
		c-0.9,0.4-2.3,0.4-4.5,0.4c-0.2-0.7-0.5-1.4-0.7-2c1.6,0,3.2,0,3.8,0s0.7-0.2,0.7-0.5v-5.9h-8.6v10.4H11v-10.3H3.5v-2h20.3V909.8z
		 M20.2,896.5v2H8.1v-2H20.2z"/>
	<path d="M41.1,896.5h5v2h-5v0.7c1.1,1.1,4.1,4.7,4.9,5.6l-1.3,1.8c-0.7-1.1-2.3-3.2-3.6-4.9v12.6h-2.2v-12.6
		c-1.4,3.4-3.2,6.7-5,8.6c-0.2-0.5-0.7-1.4-1.3-2c2.2-2.2,4.5-6.1,5.8-9.7h-5v-2h5.6v-4.9c-1.6,0.2-3.2,0.5-4.7,0.7
		c-0.2-0.5-0.4-1.3-0.5-1.6c3.8-0.5,8.3-1.4,10.8-2.3l1.4,1.6c-1.4,0.2-3.1,0.7-4.9,1.1V896.5z M57.6,890.7v22.1h-2.2v-2.2H49v2.3
		h-2.2v-22.3H57.6z M55.5,908.6v-15.8H49v15.8H55.5z"/>
	<path d="M66.8,909.3l1.3-1.6c1.4,1.4,3.2,2.7,6.1,2.7c2.9,0,5.2-1.8,5.2-5c0-2.9-2.2-4.9-5-4.9c-2,0-3.2,0.4-4.7,1.4l-1.4-0.9
		l0.7-10.1h12.4v2.3H71.3l-0.5,6.3c1.3-0.7,2.5-1.1,4.3-1.1c4,0,7.2,2.2,7.2,6.7c0,4.7-3.8,7.2-7.7,7.2
		C70.8,912.5,68.4,911.1,66.8,909.3z"/>
	<path d="M116.9,907.7h-10.4v6.7h-2.2v-6.7H90.9v-2.2h4.7v-7.7h8.6v-4.3h-7c-1.3,2.2-2.9,4.1-4.3,5.8c-0.4-0.4-1.3-1.1-1.8-1.4
		c2.7-2.3,5-6.1,6.5-9.9l2.2,0.5c-0.4,1.1-0.9,2-1.3,3.1h17.1v2.2h-9.2v4.3h8.5v2h-8.5v5.8h10.4V907.7z M104.3,905.7v-5.8h-6.5v5.8
		H104.3z"/>
	<path d="M126.2,892.7v6.3c0,4.5-0.4,11-2.9,15.3c-0.4-0.4-1.3-0.9-1.8-1.3c2.3-4.1,2.5-9.9,2.5-14v-8.1h10.6V888h2.2v2.9h10.8v1.8
		H126.2z M145.5,905c-1.3,2.5-3.2,4.3-5.8,5.8c2.5,0.9,5.4,1.4,8.5,1.8c-0.5,0.4-1.1,1.3-1.3,1.8c-3.6-0.5-6.7-1.3-9.5-2.5
		c-3.1,1.3-6.5,2-10.1,2.5c-0.2-0.5-0.5-1.3-0.9-1.8c3.1-0.4,6.1-0.9,8.8-1.8c-1.8-1.1-3.4-2.5-4.5-4.1l1.1-0.4h-4.3v-1.8h16.2h0.4
		L145.5,905z M131.8,902.6v-4.7h-4.5v-1.8h4.5v-2.5h2v2.5h7v-2.5h2.2v2.5h4.7v1.8H143v4.7H131.8z M132.9,906
		c1.1,1.4,2.7,2.7,4.7,3.6c2-0.9,3.6-2.2,4.9-3.6H132.9z M133.8,897.8v3.1h7v-3.1H133.8z"/>
	<path d="M164,906c-0.7-0.9-2.3-2.5-3.6-3.6v11.9h-2.2v-11.2c-1.4,1.4-2.9,2.7-4.3,3.6c-0.2-0.5-0.7-1.4-1.1-2c3.4-2,7-5.6,9-9.4
		h-7.9v-2h4.5V888h2.2v5.4h2.5h0.4l1.3,0.7c-0.9,2.2-2.2,4.3-3.8,6.3c1.4,1.1,4,3.2,4.7,4L164,906z M180,911.4v2.2h-16.2v-2.2h7.2
		v-11.9h-6.1v-2.2h6.1v-9.2h2.2v9.2h6.1v2.2h-6.1v11.9H180z"/>
	<path d="M194.3,909.5l2,1.3c-2.3,1.4-5.9,2.9-9,3.6c-0.4-0.4-1.1-1.1-1.6-1.6C188.5,912,192.3,910.7,194.3,909.5h-5.6V897H209v12.4
		H194.3z M207.9,895.6h-18v-6.5h18V895.6z M190.8,900.8h16v-2h-16V900.8z M190.8,904.4h16v-2h-16V904.4z M190.8,908h16v-2.2h-16V908
		z M205.6,890.9h-13.7v3.1h13.7V890.9z M202.9,909.6c2.9,0.9,6.8,2.3,9,3.2l-1.8,1.6c-2.2-1.1-5.9-2.5-9-3.4L202.9,909.6z"/>
	<path d="M228.8,899.4c-0.2,9.7-0.4,13-1.1,13.9c-0.4,0.7-0.9,0.9-1.6,0.9s-1.8,0-3.1,0c0-0.5-0.2-1.4-0.5-2
		c1.3,0.2,2.2,0.2,2.7,0.2c0.4,0,0.7,0,0.9-0.4c0.5-0.7,0.7-3.6,0.9-11.7h-3.6c-0.2,4.5-0.9,9.5-4.1,14c-0.4-0.4-1.1-0.9-1.6-1.3
		c3.4-4.7,3.8-10.3,3.8-14.6v-4h-3.2v-1.8h5V888h2v4.7h4.7v2h-6.5v3.8h5.4C228.8,898.5,228.8,899.4,228.8,899.4z M233,893.8
		c-0.9,1.6-1.8,3.1-2.9,4.3c-0.4-0.4-1.3-1.1-1.8-1.4c2.2-2.2,3.8-5.4,4.7-8.8l2.2,0.4c-0.4,1.1-0.7,2.3-1.1,3.4h9.9v2h-11V893.8z
		 M244.5,900.8c-1.4,1.4-3.4,2.9-5,4.1c1.3,3.2,2.9,5.9,5.2,7.6c-0.5,0.4-1.1,1.3-1.4,1.8c-4-2.9-5.9-8.3-7-14.8
		c-0.7,0.4-1.3,0.5-2,0.7v14h-2V901c-0.5,0.2-1.1,0.4-1.6,0.5c-0.2-0.5-0.7-1.3-1.3-1.8c4-0.9,9.5-3.1,12.1-5l1.4,1.1
		c-1.3,0.9-3.1,2-5,2.9c0.2,1.6,0.5,3.1,1.1,4.5c1.4-1.1,3.1-2.5,4.1-3.6L244.5,900.8z"/>
	<path d="M259.4,894.9c-0.9,1.4-2,2.9-3.2,4.3v15.1H254v-12.8c-1.1,1.1-2.2,2.2-3.2,3.1c-0.4-0.4-1.1-1.4-1.4-1.8
		c2.9-2.2,6.1-5.4,8.1-8.6L259.4,894.9z M258.3,888.8c-1.8,2.5-4.9,5.4-7.4,7.2c-0.4-0.5-0.9-1.3-1.3-1.6c2.3-1.6,5.2-4.1,6.7-6.3
		L258.3,888.8z M276,899.7h-4.5v11.9c0,1.3-0.4,2-1.3,2.3c-0.9,0.4-2.5,0.4-5.4,0.4c0-0.5-0.4-1.4-0.7-2.2c2,0,4,0,4.5,0
		s0.7-0.2,0.7-0.7v-11.9h-9.5v-2H276V899.7z M275.1,891.8h-14v-2h14V891.8z"/>
	<path d="M286.4,892.4c-0.5,2.7-1.4,7.7-1.4,11c0,1.4,0,2.7,0.2,4c0.5-1.3,1.3-3.1,1.6-4.1l1.3,0.9c-0.7,2-1.8,5-2,6.5
		c0,0.4-0.2,0.9-0.2,1.3c0,0.4,0,0.7,0,1.1l-2.2,0.2c-0.5-2-1.1-5.4-1.1-9.2c0-4.3,0.9-9.2,1.3-11.5c0.2-0.7,0.2-1.4,0.2-2l2.5,0.2
		C286.8,890.9,286.4,891.8,286.4,892.4z M293.1,907.1c0,1.3,0.9,2.5,4.9,2.5c2.5,0,4.9-0.2,7.2-0.7v2.3c-1.8,0.4-4.3,0.5-7.2,0.5
		c-4.9,0-7-1.6-7-4.3c0-0.9,0.2-2,0.5-3.4l2.2,0.2C293.3,905.5,293.1,906.2,293.1,907.1z M304.2,892.7v2.3c-3.1,0.4-8.6,0.4-11.9,0
		v-2.3C295.6,893.3,301.4,893.1,304.2,892.7z"/>
	<path d="M314.5,892.9c1.8-0.2,7.4-0.7,12.6-1.3c3.1-0.4,5.8-0.4,7.7-0.5v2.3c-1.6,0-4.1,0-5.6,0.5c-4.1,1.3-6.7,5.8-6.7,9.2
		c0,5.6,5.2,7.4,9.9,7.6l-0.9,2.3c-5.4-0.2-11.3-3.1-11.3-9.5c0-4.5,2.7-8.1,5.4-9.7c-3.1,0.4-10.4,1.1-13.5,1.6l-0.2-2.5
		C312.9,892.9,314,892.9,314.5,892.9z"/>
	<path d="M353.6,888.2c7.2,0,13,5.8,13,13c0,7.2-5.8,13-13,13c-7.2,0-13-5.8-13-13C340.6,894,346.4,888.2,353.6,888.2z"/>
	<path d="M385.4,888.2c7.2,0,13,5.8,13,13c0,7.2-5.8,13-13,13s-13-5.8-13-13C372.5,894,378.2,888.2,385.4,888.2z"/>
	<path d="M409,892.4c-0.5,2.7-1.4,7.7-1.4,11c0,1.4,0,2.7,0.2,4c0.5-1.3,1.3-3.1,1.6-4.1l1.3,0.9c-0.7,2-1.8,5-2,6.5
		c0,0.4-0.2,0.9-0.2,1.3c0,0.4,0,0.7,0,1.1l-2.2,0.2c-0.5-2-1.1-5.4-1.1-9.2c0-4.3,0.9-9.2,1.3-11.5c0.2-0.7,0.2-1.4,0.2-2l2.5,0.2
		C409.4,890.9,409.2,891.8,409,892.4z M415.7,907.1c0,1.3,0.9,2.5,4.9,2.5c2.5,0,4.9-0.2,7.2-0.7v2.3c-1.8,0.4-4.3,0.5-7.2,0.5
		c-4.9,0-7-1.6-7-4.3c0-0.9,0.2-2,0.5-3.4l2.2,0.2C415.8,905.5,415.7,906.2,415.7,907.1z M426.8,892.7v2.3c-3.1,0.4-8.6,0.4-11.9,0
		v-2.3C418.2,893.3,423.9,893.1,426.8,892.7z"/>
	<path d="M443.6,894.9c-0.9,1.4-2,2.9-3.2,4.3v15.1h-2.2v-12.8c-1.1,1.1-2.2,2.2-3.2,3.1c-0.4-0.4-1.1-1.4-1.4-1.8
		c2.9-2.2,6.1-5.4,8.1-8.6L443.6,894.9z M442.5,888.8c-1.8,2.5-4.9,5.4-7.4,7.2c-0.4-0.5-0.9-1.3-1.3-1.6c2.3-1.6,5.2-4.1,6.7-6.3
		L442.5,888.8z M460.1,899.7h-4.3v11.9c0,1.3-0.4,2-1.3,2.3c-0.9,0.4-2.5,0.4-5.4,0.4c0-0.5-0.4-1.4-0.7-2.2c2,0,4,0,4.5,0
		s0.7-0.2,0.7-0.7v-11.9h-9.5v-2h16.2v2.2H460.1z M459.4,891.8h-14v-2h14V891.8z"/>
	<path d="M470.2,899.9c2-0.7,6.8-2.3,10.3-2.3c4.1,0,7,2.5,7,6.5c0,5.6-5.4,8.3-13.1,8.8l-0.9-2.2c6.3-0.2,11.7-2,11.7-6.7
		c0-2.3-2-4.3-4.9-4.3c-3.6,0-9.9,2.7-11.7,3.4l-0.9-2.3C468.2,900.5,469.1,900.1,470.2,899.9z"/>
	<path d="M494.5,892.9c1.8-0.2,7.4-0.7,12.6-1.3c3.1-0.4,5.8-0.4,7.7-0.5v2.3c-1.6,0-4.1,0-5.6,0.5c-4.1,1.3-6.7,5.8-6.7,9.2
		c0,5.6,5.2,7.4,9.9,7.6l-0.9,2.3c-5.4-0.2-11.3-3.1-11.3-9.5c0-4.5,2.7-8.1,5.4-9.7c-3.1,0.4-10.4,1.1-13.5,1.6l-0.2-2.5
		C493.1,892.9,494,892.9,494.5,892.9z"/>
	<path d="M532.1,889.5l2.5-0.4c0.2,1.1,0.4,2.3,0.7,3.4c2-0.2,4.1-0.7,5.9-1.3l0.4,2.2c-1.6,0.5-3.6,0.9-5.8,1.1
		c0.2,0.7,0.4,1.4,0.7,2c0.2,0.5,0.4,1.1,0.7,1.8c2.3-0.4,4.3-0.7,5.8-1.3l0.4,2.2c-1.4,0.4-3.2,0.7-5.2,1.1c0.5,1.3,1.3,2.5,2,3.6
		c0.4,0.5,0.7,0.9,1.1,1.3l-1.3,1.8c-1.6-0.4-4.3-0.7-6.3-0.9l0.2-1.8c1.4,0.2,3.4,0.4,4.3,0.5c-0.9-1.3-1.6-2.7-2.2-4.1
		c-3.6,0.4-8.3,0.4-12.6,0l-0.2-2.2c4.3,0.5,8.6,0.4,11.9,0.2c-0.2-0.5-0.4-1.1-0.5-1.4c-0.4-0.7-0.5-1.6-0.7-2.2
		c-2.9,0.2-6.3,0.2-9.9-0.2l-0.2-2.2c3.4,0.4,6.7,0.5,9.5,0.4c0-0.2-0.2-0.5-0.2-0.7C532.7,891.1,532.5,890.2,532.1,889.5z
		 M526.2,907.7c0,2.3,2.2,3.6,6.7,3.6c2.7,0,4.9-0.2,6.8-0.5v2.3c-2,0.4-4.3,0.5-6.7,0.5c-5.6,0-8.8-1.6-8.8-5.4
		c0-1.6,0.5-2.9,1.1-4.1l2.2,0.5C526.5,905.5,526.2,906.4,526.2,907.7z"/>
	<path d="M563.4,891.1c0,0.4,0,1.1,0,1.8c2.5-0.2,5.2-0.4,7.7-0.7v2.2c-2.3,0.2-5,0.5-7.7,0.7c0,1.3,0,2.7,0,3.6c0,0.2,0,0.2,0,0.4
		c2.9-0.2,5.4-0.4,8.1-0.7v2.2c-2.7,0.4-5.2,0.5-7.9,0.7c0,1.4,0.2,3.1,0.2,4.5c3.8,1.1,6.8,3.1,8.5,4.5l-1.3,2
		c-1.6-1.6-4.1-3.2-7-4.3c0,0.7,0,1.3,0,1.8c0,2-1.3,4-5,4c-4.1,0-6.5-1.4-6.5-4.3c0-2.7,2.5-4.3,6.7-4.3c0.9,0,1.6,0,2.3,0.2
		c0-1.3,0-2.7-0.2-4c-0.5,0-1.1,0-1.6,0c-2,0-5-0.2-7.2-0.4v-2.2c2.2,0.4,5.4,0.5,7.2,0.5c0.5,0,1.1,0,1.6,0c0-0.2,0-0.4,0-0.4
		c0-1.1,0-2.3,0-3.6c-0.4,0-0.9,0-1.3,0c-2,0-5.6-0.4-7.4-0.5v-2.2c1.8,0.4,5.4,0.7,7.4,0.7c0.4,0,0.9,0,1.3,0c0-0.7,0-1.4,0-2
		c0-0.5,0-1.3-0.2-1.8h2.5C563.6,889.8,563.4,890.4,563.4,891.1z M558.6,911.4c1.6,0,3.1-0.5,3.1-2.5c0-0.5,0-1.3,0-2
		c-0.9-0.2-1.8-0.4-2.9-0.4c-2.7,0-4.3,1.1-4.3,2.3C554.4,910.2,555.7,911.4,558.6,911.4z"/>
	<path d="M584.5,892.5c-0.2,3.2-0.4,10.1-0.4,14.4c0,3.2,2,4.3,4.7,4.3c5.2,0,8.3-2.9,10.3-5.9l1.6,2c-2,2.7-5.8,6.3-12.1,6.3
		c-4.1,0-7-1.8-7-6.5c0-4.3,0.4-11.5,0.4-14.6c0-1.1,0-2.2-0.2-2.9h2.9C584.5,890.6,584.5,891.6,584.5,892.5z"/>
	<path d="M616.2,891.8c-0.2,0.5-0.2,1.4-0.4,2.2c1.8-0.2,3.8-0.5,5.6-1.1v2.3c-1.8,0.4-4,0.7-5.9,0.9c-0.2,1.3-0.5,2.5-0.9,3.8
		c-1.1,4.1-3.1,10.1-4.5,13.1l-2.5-0.9c1.8-2.9,3.8-8.8,4.9-13c0.2-0.9,0.5-2,0.7-3.1c-0.9,0-1.8,0-2.7,0c-1.3,0-2.3,0-3.4-0.2v-2.2
		c1.4,0.2,2.3,0.2,3.4,0.2c0.9,0,2,0,3.1-0.2c0.2-1.1,0.4-2,0.4-2.5c0.2-0.7,0.2-1.8,0-2.3l2.7,0.2
		C616.5,890,616.4,891.1,616.2,891.8z M619.6,907.8c0,1.4,0.7,2.7,4.9,2.7c1.8,0,3.8-0.2,5.6-0.5v2.3c-1.6,0.2-3.4,0.4-5.6,0.4
		c-4.5,0-7-1.4-7-4.3c0-1.1,0.2-2.2,0.4-3.4l2.2,0.2C619.8,906.2,619.6,907.1,619.6,907.8z M624.8,897.9c1.6,0,3.4,0,5,0.2v2.2
		c-1.4-0.2-3.2-0.4-4.9-0.4c-1.8,0-3.6,0-5.4,0.4v-2.2C621,898.1,622.8,897.9,624.8,897.9z"/>
	<path d="M645.7,909.5c0,2.5-2,4.3-4.3,4.3c-2.3,0-4.3-2-4.3-4.3s2-4.3,4.3-4.3C643.7,905.1,645.7,907.1,645.7,909.5z M644.3,909.5
		c0-1.6-1.3-2.9-2.9-2.9s-2.9,1.3-2.9,2.9s1.3,2.9,2.9,2.9C642.8,912.3,644.3,911.1,644.3,909.5z"/>
</g>
<line class="st0" x1="0" y1="946.4" x2="675" y2="946.4"/>
<g>
	<path d="M0.6,992.4c4.1-4,6.8-6.7,6.8-9c0-1.6-0.9-2.5-2.3-2.5c-1.1,0-2.2,0.7-2.9,1.6l-1.8-1.8c1.4-1.4,2.9-2.3,5-2.3
		c3.1,0,5,2,5,4.9c0,2.7-2.5,5.6-5.4,8.5c0.7,0,1.8-0.2,2.7-0.2h3.4v2.7H0.6V992.4z"/>
	<path d="M15.3,986.4c0-5.2,2.2-8.1,5.4-8.1s5.4,2.7,5.4,8.1c0,5.2-2.2,8.1-5.4,8.1S15.3,991.7,15.3,986.4z M23.3,986.4
		c0-4.3-1.1-5.6-2.3-5.6c-1.3,0-2.3,1.3-2.3,5.6s1.1,5.8,2.3,5.8C22.2,992.2,23.3,990.8,23.3,986.4z"/>
	<path d="M30.1,992.4c4.1-4,6.8-6.7,6.8-9c0-1.6-0.9-2.5-2.3-2.5c-1.1,0-2.2,0.7-2.9,1.6l-1.8-1.8c1.4-1.4,2.9-2.3,5-2.3
		c3.1,0,5,2,5,4.9c0,2.7-2.5,5.6-5.4,8.5c0.7,0,1.8-0.2,2.7-0.2h3.4v2.7H30.1V992.4z"/>
	<path d="M44.9,992.2l1.4-2c0.9,0.9,2.2,1.6,3.6,1.6c1.6,0,2.7-0.7,2.7-2.2s-0.9-2.3-4.3-2.3V985c2.9,0,4-0.9,4-2.3
		c0-1.3-0.7-2-2.2-2c-1.1,0-2.2,0.5-3.1,1.4l-1.6-2c1.3-1.1,2.9-1.8,4.7-1.8c3.1,0,5.2,1.4,5.2,4.1c0,1.6-1.1,2.9-2.7,3.6v0.2
		c1.8,0.5,3.2,1.8,3.2,3.8c0,2.9-2.5,4.5-5.6,4.5C47.7,994.5,45.9,993.6,44.9,992.2z"/>
	<path d="M60.5,992.4c0-1.3,0.9-2.2,2-2.2s2,0.9,2,2.2c0,1.1-0.9,2.2-2,2.2S60.5,993.6,60.5,992.4z"/>
	<path d="M68.8,986.4c0-5.2,2.2-8.1,5.4-8.1s5.4,2.7,5.4,8.1c0,5.2-2.2,8.1-5.4,8.1C71,994.5,68.8,991.7,68.8,986.4z M76.5,986.4
		c0-4.3-1.1-5.6-2.3-5.6s-2.5,1.3-2.5,5.6s1.1,5.8,2.3,5.8S76.5,990.8,76.5,986.4z"/>
	<path d="M90.8,981.2h-7.2v-2.5h10.6v2c-3.6,4.5-4.1,7.6-4.5,13.7h-3.2C86.6,988.8,87.7,985.4,90.8,981.2z"/>
	<path d="M97.1,992.4c0-1.3,0.9-2.2,2-2.2c1.1,0,2,0.9,2,2.2c0,1.1-0.9,2.2-2,2.2C98,994.5,97.1,993.6,97.1,992.4z"/>
	<path d="M105.3,986.4c0-5.2,2.2-8.1,5.4-8.1s5.4,2.7,5.4,8.1c0,5.2-2.2,8.1-5.4,8.1S105.3,991.7,105.3,986.4z M113.1,986.4
		c0-4.3-1.1-5.6-2.3-5.6s-2.3,1.3-2.3,5.6s1.1,5.8,2.3,5.8S113.1,990.8,113.1,986.4z"/>
	<path d="M120.3,991.7h3.4v-9.7h-2.9v-2c1.6-0.4,2.7-0.7,3.8-1.3h2.3v13h3.1v2.5h-9.7V991.7z"/>
</g>
<g>
	<path d="M15,1027.7c3.1,4.1,8.1,8.3,12.6,10.4c-0.5,0.5-1.1,1.3-1.4,1.8c-4.3-2.5-9.4-6.7-12.1-10.1c-2.3,3.4-7,7.6-11.9,10.3
		c-0.2-0.5-0.9-1.3-1.4-1.6c4.9-2.7,9.7-7,12.1-10.8C12.8,1027.7,15,1027.7,15,1027.7z M23.8,1049.4c0,1.1-0.2,1.8-1.1,2.2
		s-2.3,0.4-4.5,0.4c-0.2-0.7-0.5-1.4-0.7-2c1.6,0,3.2,0,3.8,0s0.7-0.2,0.7-0.5v-5.9h-8.6v10.4H11v-10.3H3.5v-2h20.3V1049.4z
		 M20.2,1036.1v2H8.1v-2H20.2z"/>
	<path d="M41.1,1036.1h5v2h-5v0.7c1.1,1.1,4.1,4.7,4.9,5.6l-1.3,1.8c-0.7-1.1-2.3-3.2-3.6-4.9v12.6h-2.2v-12.6
		c-1.4,3.4-3.2,6.7-5,8.6c-0.2-0.5-0.7-1.4-1.3-2c2.2-2.2,4.5-6.1,5.8-9.7h-5v-2h5.6v-4.9c-1.6,0.2-3.2,0.5-4.7,0.7
		c-0.2-0.5-0.4-1.3-0.5-1.6c3.8-0.5,8.3-1.4,10.8-2.3l1.4,1.6c-1.4,0.2-3.1,0.7-4.9,1.1V1036.1z M57.6,1030.4v22.1h-2.2v-2.2H49v2.3
		h-2.2v-22.3H57.6z M55.5,1048.2v-15.8H49v15.8H55.5z"/>
	<path d="M66.8,1048.9l1.3-1.6c1.4,1.4,3.2,2.7,6.1,2.7c2.9,0,5.2-1.8,5.2-5c0-2.9-2.2-4.9-5-4.9c-2,0-3.2,0.4-4.7,1.4l-1.4-0.9
		l0.7-10.1h12.4v2.3H71.3l-0.5,6.3c1.3-0.7,2.5-1.1,4.3-1.1c4,0,7.2,2.2,7.2,6.7c0,4.7-3.8,7.2-7.7,7.2
		C70.8,1052.1,68.4,1050.7,66.8,1048.9z"/>
	<path d="M116.9,1047.3h-10.4v6.7h-2.2v-6.7H90.9v-2.2h4.7v-7.7h8.6v-4.3h-7c-1.3,2.2-2.9,4.1-4.3,5.8c-0.4-0.4-1.3-1.1-1.8-1.4
		c2.7-2.3,5-6.1,6.5-9.9l2.2,0.5c-0.4,1.1-0.9,2-1.3,3.1h17.1v2.2h-9.2v4.3h8.5v2h-8.5v5.8h10.4V1047.3z M104.3,1045.3v-5.8h-6.5
		v5.8H104.3z"/>
	<path d="M126.2,1032.3v6.3c0,4.5-0.4,11-2.9,15.3c-0.4-0.4-1.3-0.9-1.8-1.3c2.3-4.1,2.5-9.9,2.5-14v-8.1h10.6v-2.9h2.2v2.9h10.8
		v1.8H126.2z M145.5,1044.6c-1.3,2.5-3.2,4.3-5.8,5.8c2.5,0.9,5.4,1.4,8.5,1.8c-0.5,0.4-1.1,1.3-1.3,1.8c-3.6-0.5-6.7-1.3-9.5-2.5
		c-3.1,1.3-6.5,2-10.1,2.5c-0.2-0.5-0.5-1.3-0.9-1.8c3.1-0.4,6.1-0.9,8.8-1.8c-1.8-1.1-3.4-2.5-4.5-4.1l1.1-0.4h-4.3v-1.8h16.2h0.4
		L145.5,1044.6z M131.8,1042.2v-4.7h-4.5v-1.8h4.5v-2.5h2v2.5h7v-2.5h2.2v2.5h4.7v1.8H143v4.7H131.8z M132.9,1045.7
		c1.1,1.4,2.7,2.7,4.7,3.6c2-0.9,3.6-2.2,4.9-3.6H132.9z M133.8,1037.4v3.1h7v-3.1H133.8z"/>
	<path d="M164,1045.7c-0.7-0.9-2.3-2.5-3.6-3.6v11.9h-2.2v-11.2c-1.4,1.4-2.9,2.7-4.3,3.6c-0.2-0.5-0.7-1.4-1.1-2c3.4-2,7-5.6,9-9.4
		h-7.9v-2h4.5v-5.4h2.2v5.4h2.5h0.4l1.3,0.7c-0.9,2.2-2.2,4.3-3.8,6.3c1.4,1.1,4,3.2,4.7,4L164,1045.7z M180,1051.1v2.2h-16.2v-2.2
		h7.2v-11.9h-6.1v-2.2h6.1v-9.2h2.2v9.2h6.1v2.2h-6.1v11.9H180z"/>
	<path d="M194.3,1049.1l2,1.3c-2.3,1.4-5.9,2.9-9,3.6c-0.4-0.4-1.1-1.1-1.6-1.6C188.5,1051.6,192.3,1050.3,194.3,1049.1h-5.6v-12.4
		H209v12.4H194.3z M207.9,1035.2h-18v-6.5h18V1035.2z M190.8,1040.4h16v-2h-16V1040.4z M190.8,1044h16v-2h-16V1044z M190.8,1047.6
		h16v-2.2h-16V1047.6z M205.6,1030.5h-13.7v3.1h13.7V1030.5z M202.9,1049.3c2.9,0.9,6.8,2.3,9,3.2l-1.8,1.6c-2.2-1.1-5.9-2.5-9-3.4
		L202.9,1049.3z"/>
	<path d="M228.8,1039c-0.2,9.7-0.4,13-1.1,13.9c-0.4,0.7-0.9,0.9-1.6,0.9s-1.8,0-3.1,0c0-0.5-0.2-1.4-0.5-2c1.3,0.2,2.2,0.2,2.7,0.2
		c0.4,0,0.7,0,0.9-0.4c0.5-0.7,0.7-3.6,0.9-11.7h-3.6c-0.2,4.5-0.9,9.5-4.1,14c-0.4-0.4-1.1-0.9-1.6-1.3c3.4-4.7,3.8-10.3,3.8-14.6
		v-4h-3.2v-1.8h5v-4.7h2v4.7h4.7v2h-6.5v3.8h5.4C228.8,1038.1,228.8,1039,228.8,1039z M233,1033.4c-0.9,1.6-1.8,3.1-2.9,4.3
		c-0.4-0.4-1.3-1.1-1.8-1.4c2.2-2.2,3.8-5.4,4.7-8.8l2.2,0.4c-0.4,1.1-0.7,2.3-1.1,3.4h9.9v2h-11V1033.4z M244.5,1040.4
		c-1.4,1.4-3.4,2.9-5,4.1c1.3,3.2,2.9,5.9,5.2,7.6c-0.5,0.4-1.1,1.3-1.4,1.8c-4-2.9-5.9-8.3-7-14.8c-0.7,0.4-1.3,0.5-2,0.7v14h-2
		v-13.3c-0.5,0.2-1.1,0.4-1.6,0.5c-0.2-0.5-0.7-1.3-1.3-1.8c4-0.9,9.5-3.1,12.1-5l1.4,1.1c-1.3,0.9-3.1,2-5,2.9
		c0.2,1.6,0.5,3.1,1.1,4.5c1.4-1.1,3.1-2.5,4.1-3.6L244.5,1040.4z"/>
	<path d="M259.4,1034.5c-0.9,1.4-2,2.9-3.2,4.3v15.1H254v-12.8c-1.1,1.1-2.2,2.2-3.2,3.1c-0.4-0.4-1.1-1.4-1.4-1.8
		c2.9-2.2,6.1-5.4,8.1-8.6L259.4,1034.5z M258.3,1028.4c-1.8,2.5-4.9,5.4-7.4,7.2c-0.4-0.5-0.9-1.3-1.3-1.6c2.3-1.6,5.2-4.1,6.7-6.3
		L258.3,1028.4z M276,1039.4h-4.5v11.9c0,1.3-0.4,2-1.3,2.3c-0.9,0.4-2.5,0.4-5.4,0.4c0-0.5-0.4-1.4-0.7-2.2c2,0,4,0,4.5,0
		s0.7-0.2,0.7-0.7v-11.9h-9.5v-2H276V1039.4z M275.1,1031.4h-14v-2h14V1031.4z"/>
	<path d="M286.4,1032c-0.5,2.7-1.4,7.7-1.4,11c0,1.4,0,2.7,0.2,4c0.5-1.3,1.3-3.1,1.6-4.1l1.3,0.9c-0.7,2-1.8,5-2,6.5
		c0,0.4-0.2,0.9-0.2,1.3s0,0.7,0,1.1l-2.2,0.2c-0.5-2-1.1-5.4-1.1-9.2c0-4.3,0.9-9.2,1.3-11.5c0.2-0.7,0.2-1.4,0.2-2l2.5,0.2
		C286.8,1030.5,286.4,1031.4,286.4,1032z M293.1,1046.7c0,1.3,0.9,2.5,4.9,2.5c2.5,0,4.9-0.2,7.2-0.7v2.3c-1.8,0.4-4.3,0.5-7.2,0.5
		c-4.9,0-7-1.6-7-4.3c0-0.9,0.2-2,0.5-3.4l2.2,0.2C293.3,1045.1,293.1,1045.8,293.1,1046.7z M304.2,1032.3v2.3
		c-3.1,0.4-8.6,0.4-11.9,0v-2.3C295.6,1032.9,301.4,1032.7,304.2,1032.3z"/>
	<path d="M314.5,1032.5c1.8-0.2,7.4-0.7,12.6-1.3c3.1-0.4,5.8-0.4,7.7-0.5v2.3c-1.6,0-4.1,0-5.6,0.5c-4.1,1.3-6.7,5.8-6.7,9.2
		c0,5.6,5.2,7.4,9.9,7.6l-0.9,2.3c-5.4-0.2-11.3-3.1-11.3-9.5c0-4.5,2.7-8.1,5.4-9.7c-3.1,0.4-10.4,1.1-13.5,1.6l-0.2-2.5
		C312.9,1032.5,314,1032.5,314.5,1032.5z"/>
	<path d="M353.6,1027.8c7.2,0,13,5.8,13,13c0,7.2-5.8,13-13,13c-7.2,0-13-5.8-13-13C340.6,1033.6,346.4,1027.8,353.6,1027.8z"/>
	<path d="M385.4,1027.8c7.2,0,13,5.8,13,13c0,7.2-5.8,13-13,13s-13-5.8-13-13C372.5,1033.6,378.2,1027.8,385.4,1027.8z"/>
	<path d="M409,1032c-0.5,2.7-1.4,7.7-1.4,11c0,1.4,0,2.7,0.2,4c0.5-1.3,1.3-3.1,1.6-4.1l1.3,0.9c-0.7,2-1.8,5-2,6.5
		c0,0.4-0.2,0.9-0.2,1.3s0,0.7,0,1.1l-2.2,0.2c-0.5-2-1.1-5.4-1.1-9.2c0-4.3,0.9-9.2,1.3-11.5c0.2-0.7,0.2-1.4,0.2-2l2.5,0.2
		C409.4,1030.5,409.2,1031.4,409,1032z M415.7,1046.7c0,1.3,0.9,2.5,4.9,2.5c2.5,0,4.9-0.2,7.2-0.7v2.3c-1.8,0.4-4.3,0.5-7.2,0.5
		c-4.9,0-7-1.6-7-4.3c0-0.9,0.2-2,0.5-3.4l2.2,0.2C415.8,1045.1,415.7,1045.8,415.7,1046.7z M426.8,1032.3v2.3
		c-3.1,0.4-8.6,0.4-11.9,0v-2.3C418.2,1032.9,423.9,1032.7,426.8,1032.3z"/>
	<path d="M443.6,1034.5c-0.9,1.4-2,2.9-3.2,4.3v15.1h-2.2v-12.8c-1.1,1.1-2.2,2.2-3.2,3.1c-0.4-0.4-1.1-1.4-1.4-1.8
		c2.9-2.2,6.1-5.4,8.1-8.6L443.6,1034.5z M442.5,1028.4c-1.8,2.5-4.9,5.4-7.4,7.2c-0.4-0.5-0.9-1.3-1.3-1.6c2.3-1.6,5.2-4.1,6.7-6.3
		L442.5,1028.4z M460.1,1039.4h-4.3v11.9c0,1.3-0.4,2-1.3,2.3c-0.9,0.4-2.5,0.4-5.4,0.4c0-0.5-0.4-1.4-0.7-2.2c2,0,4,0,4.5,0
		s0.7-0.2,0.7-0.7v-11.9h-9.5v-2h16.2v2.2H460.1z M459.4,1031.4h-14v-2h14V1031.4z"/>
	<path d="M470.2,1039.5c2-0.7,6.8-2.3,10.3-2.3c4.1,0,7,2.5,7,6.5c0,5.6-5.4,8.3-13.1,8.8l-0.9-2.2c6.3-0.2,11.7-2,11.7-6.7
		c0-2.3-2-4.3-4.9-4.3c-3.6,0-9.9,2.7-11.7,3.4l-0.9-2.3C468.2,1040.1,469.1,1039.7,470.2,1039.5z"/>
	<path d="M494.5,1032.5c1.8-0.2,7.4-0.7,12.6-1.3c3.1-0.4,5.8-0.4,7.7-0.5v2.3c-1.6,0-4.1,0-5.6,0.5c-4.1,1.3-6.7,5.8-6.7,9.2
		c0,5.6,5.2,7.4,9.9,7.6l-0.9,2.3c-5.4-0.2-11.3-3.1-11.3-9.5c0-4.5,2.7-8.1,5.4-9.7c-3.1,0.4-10.4,1.1-13.5,1.6l-0.2-2.5
		C493.1,1032.5,494,1032.5,494.5,1032.5z"/>
	<path d="M532.1,1029.1l2.5-0.4c0.2,1.1,0.4,2.3,0.7,3.4c2-0.2,4.1-0.7,5.9-1.3l0.4,2.2c-1.6,0.5-3.6,0.9-5.8,1.1
		c0.2,0.7,0.4,1.4,0.7,2c0.2,0.5,0.4,1.1,0.7,1.8c2.3-0.4,4.3-0.7,5.8-1.3l0.4,2.2c-1.4,0.4-3.2,0.7-5.2,1.1c0.5,1.3,1.3,2.5,2,3.6
		c0.4,0.5,0.7,0.9,1.1,1.3l-1.3,1.8c-1.6-0.4-4.3-0.7-6.3-0.9l0.2-1.8c1.4,0.2,3.4,0.4,4.3,0.5c-0.9-1.3-1.6-2.7-2.2-4.1
		c-3.6,0.4-8.3,0.4-12.6,0l-0.2-2.2c4.3,0.5,8.6,0.4,11.9,0.2c-0.2-0.5-0.4-1.1-0.5-1.4c-0.4-0.7-0.5-1.6-0.7-2.2
		c-2.9,0.2-6.3,0.2-9.9-0.2l-0.2-2.2c3.4,0.4,6.7,0.5,9.5,0.4c0-0.2-0.2-0.5-0.2-0.7C532.7,1030.7,532.5,1029.8,532.1,1029.1z
		 M526.2,1047.3c0,2.3,2.2,3.6,6.7,3.6c2.7,0,4.9-0.2,6.8-0.5v2.3c-2,0.4-4.3,0.5-6.7,0.5c-5.6,0-8.8-1.6-8.8-5.4
		c0-1.6,0.5-2.9,1.1-4.1l2.2,0.5C526.5,1045.1,526.2,1046,526.2,1047.3z"/>
	<path d="M563.4,1030.7c0,0.4,0,1.1,0,1.8c2.5-0.2,5.2-0.4,7.7-0.7v2.2c-2.3,0.2-5,0.5-7.7,0.7c0,1.3,0,2.7,0,3.6c0,0.2,0,0.2,0,0.4
		c2.9-0.2,5.4-0.4,8.1-0.7v2.2c-2.7,0.4-5.2,0.5-7.9,0.7c0,1.4,0.2,3.1,0.2,4.5c3.8,1.1,6.8,3.1,8.5,4.5l-1.3,2
		c-1.6-1.6-4.1-3.2-7-4.3c0,0.7,0,1.3,0,1.8c0,2-1.3,4-5,4c-4.1,0-6.5-1.4-6.5-4.3c0-2.7,2.5-4.3,6.7-4.3c0.9,0,1.6,0,2.3,0.2
		c0-1.3,0-2.7-0.2-4c-0.5,0-1.1,0-1.6,0c-2,0-5-0.2-7.2-0.4v-2.2c2.2,0.4,5.4,0.5,7.2,0.5c0.5,0,1.1,0,1.6,0c0-0.2,0-0.4,0-0.4
		c0-1.1,0-2.3,0-3.6c-0.4,0-0.9,0-1.3,0c-2,0-5.6-0.4-7.4-0.5v-2.2c1.8,0.4,5.4,0.7,7.4,0.7c0.4,0,0.9,0,1.3,0c0-0.7,0-1.4,0-2
		c0-0.5,0-1.3-0.2-1.8h2.5C563.6,1029.5,563.4,1030,563.4,1030.7z M558.6,1051.1c1.6,0,3.1-0.5,3.1-2.5c0-0.5,0-1.3,0-2
		c-0.9-0.2-1.8-0.4-2.9-0.4c-2.7,0-4.3,1.1-4.3,2.3S555.7,1051.1,558.6,1051.1z"/>
	<path d="M584.5,1032.2c-0.2,3.2-0.4,10.1-0.4,14.4c0,3.2,2,4.3,4.7,4.3c5.2,0,8.3-2.9,10.3-5.9l1.6,2c-2,2.7-5.8,6.3-12.1,6.3
		c-4.1,0-7-1.8-7-6.5c0-4.3,0.4-11.5,0.4-14.6c0-1.1,0-2.2-0.2-2.9h2.9C584.5,1030.2,584.5,1031.3,584.5,1032.2z"/>
	<path d="M616.2,1031.4c-0.2,0.5-0.2,1.4-0.4,2.2c1.8-0.2,3.8-0.5,5.6-1.1v2.3c-1.8,0.4-4,0.7-5.9,0.9c-0.2,1.3-0.5,2.5-0.9,3.8
		c-1.1,4.1-3.1,10.1-4.5,13.1l-2.5-0.9c1.8-2.9,3.8-8.8,4.9-13c0.2-0.9,0.5-2,0.7-3.1c-0.9,0-1.8,0-2.7,0c-1.3,0-2.3,0-3.4-0.2v-2.2
		c1.4,0.2,2.3,0.2,3.4,0.2c0.9,0,2,0,3.1-0.2c0.2-1.1,0.4-2,0.4-2.5c0.2-0.7,0.2-1.8,0-2.3l2.7,0.2
		C616.5,1029.6,616.4,1030.7,616.2,1031.4z M619.6,1047.5c0,1.4,0.7,2.7,4.9,2.7c1.8,0,3.8-0.2,5.6-0.5v2.3
		c-1.6,0.2-3.4,0.4-5.6,0.4c-4.5,0-7-1.4-7-4.3c0-1.1,0.2-2.2,0.4-3.4l2.2,0.2C619.8,1045.8,619.6,1046.7,619.6,1047.5z
		 M624.8,1037.6c1.6,0,3.4,0,5,0.2v2.2c-1.4-0.2-3.2-0.4-4.9-0.4c-1.8,0-3.6,0-5.4,0.4v-2.2C621,1037.7,622.8,1037.6,624.8,1037.6z"
		/>
	<path d="M645.7,1049.1c0,2.5-2,4.3-4.3,4.3c-2.3,0-4.3-2-4.3-4.3s2-4.3,4.3-4.3C643.7,1044.8,645.7,1046.7,645.7,1049.1z
		 M644.3,1049.1c0-1.6-1.3-2.9-2.9-2.9s-2.9,1.3-2.9,2.9s1.3,2.9,2.9,2.9C642.8,1052,644.3,1050.7,644.3,1049.1z"/>
</g>
<line class="st0" x1="0" y1="1086" x2="675" y2="1086"/>
<g>
	<g>
		<g>
			<rect x="75.1" y="1148" class="st1" width="78.4" height="89"/>
			<rect x="75.1" y="1148" class="st2" width="78.4" height="89"/>
		</g>
		<g>
			<path d="M107.8,1199.6h4.4v-12.7h-3.7v-2.6c2.1-0.4,3.5-0.9,4.9-1.8h3v17h3.9v3.4h-12.5L107.8,1199.6L107.8,1199.6z"/>
		</g>
	</g>
	<g>
		<g>
			<rect x="186.7" y="1148" class="st1" width="78.4" height="89"/>
			<rect x="186.7" y="1148" class="st2" width="78.4" height="89"/>
		</g>
		<g>
			<path d="M218.2,1200.6c5.5-5.1,9-8.8,9-11.8c0-2.1-1.1-3.4-3.2-3.4c-1.6,0-2.8,1.1-3.9,2.1l-2.3-2.3c1.9-2.1,3.7-3.2,6.7-3.2
				c3.9,0,6.5,2.5,6.5,6.4c0,3.5-3.4,7.2-7.1,11.1c1.1-0.2,2.5-0.2,3.4-0.2h4.6v3.5h-14v-2.3H218.2z"/>
		</g>
	</g>
	<g>
		<g>
			<rect x="298.3" y="1148" class="st1" width="78.4" height="89"/>
			<rect x="298.3" y="1148" class="st2" width="78.4" height="89"/>
		</g>
		<g>
			<path d="M329.2,1200.4l1.9-2.6c1.2,1.2,2.8,2.1,4.6,2.1c2.1,0,3.5-1.1,3.5-2.8c0-1.9-1.2-3.2-5.8-3.2v-3c3.9,0,5.1-1.2,5.1-3
				c0-1.6-1.1-2.5-2.8-2.5c-1.4,0-2.6,0.7-3.9,1.9l-2.1-2.5c1.8-1.6,3.9-2.6,6.4-2.6c4.1,0,6.7,1.9,6.7,5.5c0,2.1-1.2,3.7-3.5,4.6
				v0.2c2.3,0.7,4.2,2.3,4.2,4.9c0,3.7-3.4,5.8-7.4,5.8C332.9,1203.4,330.7,1202.2,329.2,1200.4z"/>
		</g>
	</g>
	<g>
		<g>
			<rect x="409.9" y="1148" class="st1" width="78.4" height="89"/>
			<rect x="409.9" y="1148" class="st2" width="78.4" height="89"/>
		</g>
		<g>
			<path d="M449.7,1198h-9v-2.8l7.8-12.5h4.9v12.2h2.5v3.2h-2.5v5.1h-3.7V1198z M449.7,1194.8v-4.1c0-1.2,0-3.2,0.2-4.4h-0.2
				c-0.5,1.1-1.1,2.1-1.6,3.4l-3.2,5.1H449.7z"/>
		</g>
	</g>
	<g>
		<g>
			<rect x="521.4" y="1148" class="st1" width="78.4" height="89"/>
			<rect x="521.4" y="1148" class="st2" width="78.4" height="89"/>
		</g>
		<g>
			<path d="M552.4,1200.6l1.9-2.6c1.2,1.2,2.6,2.1,4.6,2.1c2.1,0,3.7-1.2,3.7-3.5c0-2.3-1.4-3.5-3.5-3.5c-1.2,0-1.9,0.4-3.2,1.1
				l-1.9-1.2l0.5-10.2h11.1v3.5h-7.6l-0.4,4.4c0.9-0.4,1.6-0.5,2.5-0.5c3.5,0,6.4,1.9,6.4,6.4s-3.5,7.1-7.2,7.1
				C556.2,1203.4,553.9,1202,552.4,1200.6z"/>
		</g>
	</g>
</g>
</svg>
