<?xml version="1.0" encoding="utf-8"?>
<!-- Generator: Adobe Illustrator 27.5.0, SVG Export Plug-In . SVG Version: 6.00 Build 0)  -->
<svg version="1.1" id="レイヤー_1" xmlns="http://www.w3.org/2000/svg" xmlns:xlink="http://www.w3.org/1999/xlink" x="0px"
	 y="0px" width="500px" height="250px" viewBox="0 0 500 250" style="enable-background:new 0 0 500 250;" xml:space="preserve">
<style type="text/css">
	.st0{fill:#00AA32;}
	.st1{fill:#FFFFFF;}
</style>
<rect class="st0" width="500" height="250"/>
<g>
	<g>
		<g>
			<path class="st1" d="M75,175.1h2.2v4.1l-0.1,2.1c0.9-0.9,2-1.7,3.5-1.7c2.3,0,3.3,1.5,3.3,4.2v6.7h-2.2v-6.4
				c0-1.8-0.5-2.6-1.8-2.6c-1,0-1.7,0.5-2.6,1.5v7.6H75V175.1z"/>
			<path class="st1" d="M88.4,187v-5.4h-1.6V180l1.7-0.1l0.3-2.9h1.9v2.9h2.8v1.8h-2.8v5.4c0,1.3,0.4,1.9,1.6,1.9
				c0.4,0,0.8-0.1,1.1-0.3l0.4,1.6c-0.6,0.2-1.3,0.4-2.1,0.4C89.2,190.8,88.4,189.3,88.4,187z"/>
			<path class="st1" d="M96.6,187v-5.4H95V180l1.7-0.1l0.3-2.9h1.9v2.9h2.8v1.8h-2.8v5.4c0,1.3,0.4,1.9,1.6,1.9
				c0.4,0,0.8-0.1,1.1-0.3l0.4,1.6c-0.6,0.2-1.3,0.4-2.1,0.4C97.4,190.8,96.6,189.3,96.6,187z"/>
			<path class="st1" d="M104.9,179.9h1.8l0.2,1.2h0.1c0.9-0.8,2.1-1.4,3.3-1.4c2.7,0,4.2,2.2,4.2,5.4c0,3.7-2.2,5.8-4.6,5.8
				c-1,0-1.9-0.4-2.8-1.2l0.1,1.8v3.5h-2.2V179.9z M112.2,185.1c0-2.2-0.7-3.6-2.5-3.6c-0.8,0-1.6,0.4-2.5,1.3v5.2
				c0.8,0.7,1.6,1,2.3,1C111,188.9,112.2,187.6,112.2,185.1z"/>
			<path class="st1" d="M117.8,181.6c0-0.9,0.7-1.6,1.5-1.6c0.8,0,1.5,0.7,1.5,1.6c0,0.9-0.7,1.6-1.5,1.6
				C118.5,183.2,117.8,182.5,117.8,181.6z M117.8,189.2c0-0.9,0.7-1.6,1.5-1.6c0.8,0,1.5,0.7,1.5,1.6c0,0.9-0.7,1.6-1.5,1.6
				C118.5,190.8,117.8,190.2,117.8,189.2z"/>
			<path class="st1" d="M128.8,175h1.6l-5.4,19h-1.6L128.8,175z"/>
			<path class="st1" d="M137.3,175h1.6l-5.4,19h-1.6L137.3,175z"/>
			<path class="st1" d="M140.7,179.9h2.3l1.4,5.8c0.2,1,0.4,2,0.6,3h0.1c0.2-1,0.4-2,0.7-3l1.5-5.8h2.1l1.5,5.8c0.3,1,0.5,2,0.7,3
				h0.1c0.2-1,0.4-2,0.6-3l1.4-5.8h2.1l-2.8,10.7h-2.7l-1.4-5.3c-0.3-1-0.4-2-0.7-3.1h-0.1c-0.2,1.1-0.4,2.1-0.7,3.1l-1.3,5.3h-2.6
				L140.7,179.9z"/>
			<path class="st1" d="M157.8,179.9h2.3l1.4,5.8c0.2,1,0.4,2,0.6,3h0.1c0.2-1,0.4-2,0.7-3l1.5-5.8h2.1l1.5,5.8c0.3,1,0.5,2,0.7,3
				h0.1c0.2-1,0.4-2,0.6-3l1.4-5.8h2.1l-2.8,10.7h-2.7l-1.4-5.3c-0.3-1-0.4-2-0.7-3.1h-0.1c-0.2,1.1-0.4,2.1-0.7,3.1l-1.3,5.3h-2.6
				L157.8,179.9z"/>
			<path class="st1" d="M174.8,179.9h2.3l1.4,5.8c0.2,1,0.4,2,0.6,3h0.1c0.2-1,0.4-2,0.7-3l1.5-5.8h2.1l1.5,5.8c0.3,1,0.5,2,0.7,3
				h0.1c0.2-1,0.4-2,0.6-3l1.4-5.8h2.1l-2.8,10.7h-2.7l-1.4-5.3c-0.3-1-0.4-2-0.7-3.1h-0.1c-0.2,1.1-0.4,2.1-0.7,3.1l-1.3,5.3h-2.6
				L174.8,179.9z"/>
			<path class="st1" d="M191.5,189.2c0-0.9,0.7-1.6,1.5-1.6c0.8,0,1.5,0.7,1.5,1.6c0,0.9-0.7,1.6-1.5,1.6
				C192.2,190.8,191.5,190.2,191.5,189.2z"/>
			<path class="st1" d="M198.6,179.9h1.8l0.2,1.5h0.1c0.9-1,2-1.8,3.3-1.8c1.6,0,2.5,0.7,2.9,2c1-1.1,2.1-2,3.5-2
				c2.2,0,3.3,1.5,3.3,4.2v6.7h-2.2v-6.4c0-1.8-0.6-2.6-1.8-2.6c-0.7,0-1.5,0.5-2.4,1.5v7.6H205v-6.4c0-1.8-0.6-2.6-1.8-2.6
				c-0.7,0-1.5,0.5-2.4,1.5v7.6h-2.2V179.9z"/>
			<path class="st1" d="M217.6,176.5c0-0.8,0.6-1.3,1.4-1.3c0.8,0,1.4,0.5,1.4,1.3c0,0.8-0.6,1.3-1.4,1.3
				C218.1,177.9,217.6,177.3,217.6,176.5z M217.8,179.9h2.2v10.7h-2.2V179.9z"/>
			<path class="st1" d="M224.7,187v-5.4h-1.6V180l1.7-0.1l0.3-2.9h1.9v2.9h2.8v1.8h-2.8v5.4c0,1.3,0.4,1.9,1.6,1.9
				c0.4,0,0.8-0.1,1.1-0.3l0.4,1.6c-0.6,0.2-1.3,0.4-2.1,0.4C225.5,190.8,224.7,189.3,224.7,187z"/>
			<path class="st1" d="M231.7,189.3l1-1.4c1,0.7,1.9,1.2,3,1.2c1.3,0,1.9-0.6,1.9-1.4c0-1-1.2-1.4-2.3-1.8c-1.4-0.5-3-1.3-3-3.1
				c0-1.8,1.4-3.1,3.8-3.1c1.4,0,2.6,0.6,3.5,1.3l-1,1.4c-0.7-0.5-1.5-0.9-2.4-0.9c-1.2,0-1.7,0.6-1.7,1.3c0,0.9,1,1.3,2.2,1.7
				c1.5,0.6,3.1,1.2,3.1,3.2c0,1.8-1.4,3.2-4.1,3.2C234.2,190.8,232.7,190.2,231.7,189.3z"/>
			<path class="st1" d="M242.9,186.6v-6.7h2.2v6.4c0,1.8,0.5,2.6,1.8,2.6c1,0,1.7-0.5,2.6-1.6v-7.4h2.2v10.7h-1.8l-0.2-1.6h-0.1
				c-1,1.1-2,1.9-3.5,1.9C243.9,190.8,242.9,189.3,242.9,186.6z"/>
			<path class="st1" d="M256.1,179.9h1.8l0.2,1.5h0.1c1-1,2.1-1.7,3.5-1.7c2.3,0,3.3,1.5,3.3,4.2v6.7h-2.2v-6.4
				c0-1.8-0.5-2.6-1.8-2.6c-1,0-1.7,0.5-2.6,1.5v7.6h-2.2V179.9z"/>
			<path class="st1" d="M268.4,185.2c0-3.6,2.4-5.6,5-5.6c2.6,0,5,2.1,5,5.6c0,3.6-2.4,5.6-5,5.6
				C270.8,190.8,268.4,188.8,268.4,185.2z M276.2,185.2c0-2.3-1-3.8-2.7-3.8c-1.7,0-2.7,1.5-2.7,3.8c0,2.3,1,3.8,2.7,3.8
				C275.1,189,276.2,187.5,276.2,185.2z"/>
			<path class="st1" d="M284.1,189.4L284.1,189.4l-0.3,1.1H282v-15.5h2.2v4.1l-0.1,1.8c0.9-0.8,2.1-1.4,3.2-1.4
				c2.7,0,4.2,2.2,4.2,5.4c0,3.7-2.2,5.8-4.6,5.8C286,190.8,285,190.3,284.1,189.4z M289.3,185.1c0-2.2-0.7-3.6-2.5-3.6
				c-0.8,0-1.6,0.4-2.5,1.3v5.2c0.8,0.7,1.6,1,2.3,1C288.1,188.9,289.3,187.6,289.3,185.1z"/>
			<path class="st1" d="M295.1,186.6v-6.7h2.2v6.4c0,1.8,0.5,2.6,1.8,2.6c1,0,1.7-0.5,2.6-1.6v-7.4h2.2v10.7h-1.8l-0.2-1.6h-0.1
				c-1,1.1-2,1.9-3.5,1.9C296.1,190.8,295.1,189.3,295.1,186.6z"/>
			<path class="st1" d="M307.4,184.2h5.1v1.6h-5.1V184.2z"/>
			<path class="st1" d="M316.1,179.9h1.8l0.2,1.5h0.1c1-1,2.1-1.7,3.5-1.7c2.3,0,3.3,1.5,3.3,4.2v6.7h-2.2v-6.4
				c0-1.8-0.5-2.6-1.8-2.6c-1,0-1.7,0.5-2.6,1.5v7.6h-2.2V179.9z"/>
			<path class="st1" d="M328.4,185.2c0-3.6,2.4-5.6,5-5.6c2.6,0,5,2.1,5,5.6c0,3.6-2.4,5.6-5,5.6
				C330.8,190.8,328.4,188.8,328.4,185.2z M336.2,185.2c0-2.3-1-3.8-2.7-3.8c-1.7,0-2.7,1.5-2.7,3.8c0,2.3,1,3.8,2.7,3.8
				C335.1,189,336.2,187.5,336.2,185.2z"/>
			<path class="st1" d="M341.9,186.6v-6.7h2.2v6.4c0,1.8,0.5,2.6,1.8,2.6c1,0,1.7-0.5,2.6-1.6v-7.4h2.2v10.7h-1.8l-0.2-1.6h-0.1
				c-1,1.1-2,1.9-3.5,1.9C342.9,190.8,341.9,189.3,341.9,186.6z"/>
			<path class="st1" d="M354.3,185.2c0-3.5,2.4-5.6,4.9-5.6c2.8,0,4.4,2,4.4,5c0,0.4-0.1,0.9-0.1,1.1h-6.9c0.2,2,1.5,3.3,3.3,3.3
				c1,0,1.8-0.3,2.5-0.8l0.8,1.4c-1,0.7-2.2,1.1-3.6,1.1C356.6,190.8,354.3,188.7,354.3,185.2z M361.6,184.2c0-1.8-0.8-2.9-2.4-2.9
				c-1.3,0-2.5,1-2.7,2.9H361.6z"/>
			<path class="st1" d="M367,179.9h1.8l0.2,1.5h0.1c1-1,2.1-1.7,3.5-1.7c2.3,0,3.3,1.5,3.3,4.2v6.7h-2.2v-6.4c0-1.8-0.5-2.6-1.8-2.6
				c-1,0-1.7,0.5-2.6,1.5v7.6H367V179.9z"/>
			<path class="st1" d="M379.8,189.2c0-0.9,0.7-1.6,1.5-1.6s1.5,0.7,1.5,1.6c0,0.9-0.7,1.6-1.5,1.6S379.8,190.2,379.8,189.2z"/>
			<path class="st1" d="M385.8,185.2c0-3.6,2.5-5.6,5.3-5.6c1.4,0,2.3,0.5,3.1,1.2l-1.1,1.5c-0.6-0.5-1.2-0.8-1.9-0.8
				c-1.8,0-3.1,1.5-3.1,3.8c0,2.3,1.2,3.8,3,3.8c0.9,0,1.7-0.4,2.3-1l0.9,1.5c-1,0.9-2.3,1.3-3.5,1.3
				C388,190.8,385.8,188.8,385.8,185.2z"/>
			<path class="st1" d="M396.3,185.2c0-3.6,2.4-5.6,5-5.6c2.6,0,5,2.1,5,5.6c0,3.6-2.4,5.6-5,5.6
				C398.7,190.8,396.3,188.8,396.3,185.2z M404.1,185.2c0-2.3-1-3.8-2.7-3.8c-1.7,0-2.7,1.5-2.7,3.8c0,2.3,1,3.8,2.7,3.8
				C403,189,404.1,187.5,404.1,185.2z"/>
			<path class="st1" d="M409.9,179.9h1.8l0.2,1.5h0.1c0.9-1,2-1.8,3.3-1.8c1.6,0,2.5,0.7,2.9,2c1-1.1,2.1-2,3.5-2
				c2.2,0,3.3,1.5,3.3,4.2v6.7h-2.2v-6.4c0-1.8-0.6-2.6-1.8-2.6c-0.7,0-1.5,0.5-2.4,1.5v7.6h-2.2v-6.4c0-1.8-0.6-2.6-1.8-2.6
				c-0.7,0-1.5,0.5-2.4,1.5v7.6h-2.2V179.9z"/>
		</g>
	</g>
	<g id="レイヤー_6_00000171710161990092625810000005300420555524984233_">
		<path id="パス_101476_00000025434436320893592600000012078129463597619597_" class="st1" d="M75.5,97.2c0,0,0.3,38.9,0.3,41.1
			c0,6.8,3.8,13.5,8.8,17.9c4.3,3.7,9.8,5.7,15.5,5.4v-40.8c-0.3-5.8-2.7-11.4-6.6-15.6C88.8,100.2,82.3,97.4,75.5,97.2z"/>
		<path id="パス_101477_00000178178365960570875120000005809056951487963278_" class="st1" d="M108.7,105.2
			c-3.9,4.3-6.3,9.8-6.6,15.6v40.8c5.7,0.3,11.2-1.6,15.4-5.4c5-4.4,8.8-11.1,8.8-17.9c0-2.2,0.3-41.1,0.3-41.1
			C119.8,97.4,113.4,100.2,108.7,105.2z M120.7,136.6c0.1,4.8-1.7,9.5-4.9,13.2c-4.4,4.8-8.3,5.2-8.3,5.2v-32.3
			c0.1-3.9,1.3-7.8,3.4-11.1c4.4-6.6,9.9-7.7,9.9-7.7S120.7,135,120.7,136.6z"/>
		<path id="パス_101478_00000100358079374962428450000005294010693054916490_" class="st1" d="M204.2,106.2v8l23.4,0.2
			c1.7,0,4.7,3,4.2,5.8c-1,5.4-21.1,30-21.1,30h25.3c0,0,12.8-19.7,14.1-26.6c1.2-6.5-1.3-13.1-6.2-15.8c-3.4-1.9-12-1.7-12-1.7
			L204.2,106.2z"/>
		<path id="パス_101479_00000030445772183893549980000018276160138687439531_" class="st1" d="M311.4,116.3
			c-4.3-7.6-12.3-12.3-21.1-12.5c-3.9,0-17.7-1.2-24.2,10.4c-14.5,25.8,12.9,38.6,12.9,38.6c3.1-5.1,5.9-10.3,8.4-15.7
			c2.5-6.1,6.1-17.2,6.1-17.2c1.5,0.3,2.8,1.2,3.6,2.5c1.5,2.8,1.2,7.7-0.2,13c-1.8,6.9-8.4,16-8.4,16h18.9
			C307.3,151.4,319.4,129.7,311.4,116.3z M274.8,131.6c0,0-2.6-1.3-1-7.1c1-3,3.3-5.4,6.3-6.3L274.8,131.6z"/>
		
			<rect id="長方形_24256_00000119823051272488621270000013160462139806567339_" x="335.7" y="105.5" class="st1" width="23.9" height="8.3"/>
		
			<rect id="長方形_24257_00000057135686048448408430000011452885974323584926_" x="363.7" y="105.8" class="st1" width="4.8" height="9.2"/>
		
			<rect id="長方形_24258_00000183208072675523876070000018368296699974006698_" x="371.5" y="105.8" class="st1" width="4.8" height="9.2"/>
		<path id="パス_101480_00000013151916058146625930000012195735600881978016_" class="st1" d="M363.4,126.6h13.4l5,24.2h-14.2
			L363.4,126.6z"/>
		<path id="パス_101481_00000114055127302716199560000002946424912093081743_" class="st1" d="M357.6,118.7l-18.1,0.2l3.6,7.7
			c-2.9,0-5.7,0.2-8.6,0.6c-1.5,0.5-3.9,0.8-7.7,6.9c-3.8,6.1-3.6,19.5-3.6,19.5h15.6v-2.4l3.7,0.2v2.8h11.3c0,0,9.1-8.7,8.6-18.3
			C362.1,129.8,360.4,124,357.6,118.7z M345.9,141c-0.3,1.3-1,2.5-1.9,3.6h-3.7l1.7-9.7l2.5-0.2C346,136.4,346.5,138.8,345.9,141z"
			/>
		<path id="パス_101482_00000172425787931653926100000012843991580466288807_" class="st1" d="M186.8,122.3l0.7-5.8H175l-1.5,5.6
			H169c0,0,0.7-5.2,1.2-8.3c0.5-3.5,1-7.6,1-7.6l-30.5-0.5v8.4H155l-1.2,6.8c0,0-13.9,0.8-15.7,12.7c-1.2,8,2.7,16,10.6,16.1
			c8.2,0.3,12.1-3.4,15-9.1c1.7-3.5,3.1-7.2,4.1-11h3.4c-0.6,3.7-1.6,7.3-2.9,10.8c-1.5,3.9-3.5,7.5-6,10.7l15.7-0.1
			c2-3.2,3.8-6.6,5.3-10c1.2-3.4,2.7-10.2,2.7-10.2h8.2v-8.4H186.8z M148.4,137.3c-2,0.1-2.7-1.9-0.8-3.8c1.2-1.2,2.7-2,4.4-2.3
			C152,131.3,150.5,137.2,148.4,137.3z"/>
	</g>
	<g>
		<g>
			<path class="st1" d="M81.7,57.2c1.1,0,3.6-0.1,4.5-0.2c0.4,0,0.9-0.1,1.2-0.2l1.3,1c-0.2,0.2-0.5,0.5-0.6,0.8
				c-0.6,0.9-1.4,2.8-2.2,4.7c1.9,0.2,3.6,0.8,5.1,1.5c0.1-0.4,0.1-0.8,0.1-1.2c0-0.7,0-1.4,0-2l2.1,0.2c-0.1,1.4-0.2,2.7-0.4,3.9
				c0.9,0.5,1.7,1,2.3,1.5l-0.9,2.2c-0.6-0.5-1.3-1-2-1.5c-0.9,2.5-2.4,4.4-5.3,5.9l-1.7-1.4c3.2-1.4,4.6-3.5,5.3-5.5
				C88.9,65.9,87,65.2,85,65c-0.8,1.8-1.7,4-2.5,5.2c-0.8,1.1-1.6,1.6-2.9,1.6c-1.6,0-2.9-1.2-2.9-3c0-3.1,2.8-5.5,6.9-5.6
				c0.7-1.5,1.4-3.1,1.9-4.2c-0.8,0-3,0.1-3.9,0.2c-0.4,0-1.1,0.1-1.6,0.2L80,57.1C80.6,57.1,81.2,57.2,81.7,57.2z M79.8,69.7
				c0.4,0,0.8-0.2,1.2-0.7c0.7-0.9,1.3-2.5,2-4c-2.7,0.3-4.2,1.9-4.2,3.5C78.7,69.2,79.2,69.7,79.8,69.7z"/>
			<path class="st1" d="M102.9,60.8c1.7-0.5,5.8-2,8.8-2c3.5,0,6.3,2,6.3,5.6c0,4.8-4.7,7.5-11.4,7.8l-0.9-2.1
				c5.4-0.1,10.1-1.8,10.1-5.7c0-2.1-1.5-3.7-4.1-3.7c-3.2,0-8.3,2.2-10.1,3l-0.9-2.3C101.3,61.3,102.1,61,102.9,60.8z"/>
			<path class="st1" d="M134.4,73.1l-1.2-1.9c0.7-0.1,1.3-0.2,1.8-0.3c2.6-0.6,5-2.5,5-5.8c0-3-1.8-5.3-5-5.7
				c-0.3,1.8-0.6,3.8-1.2,5.8c-1.2,4.2-2.9,6.5-5,6.5c-2,0-3.9-2.3-3.9-5.7c0-4.6,4-8.5,9.2-8.5c4.9,0,8.1,3.5,8.1,7.7
				C142.1,69.5,139.3,72.4,134.4,73.1z M128.8,69.2c0.9,0,1.9-1.3,2.8-4.5c0.5-1.6,0.9-3.5,1.1-5.3c-3.7,0.6-5.9,3.8-5.9,6.3
				C126.9,68.1,127.9,69.2,128.8,69.2z"/>
			<path class="st1" d="M148.8,72.2l-1.2-1.7c1.7-0.9,4.1-2.7,5.2-4L154,68C152.8,69.2,150.8,70.9,148.8,72.2z M156.3,71.3
				c1,0,1.9-0.4,1.9-1.5c0-1.3-1.5-3.2-2.5-4.3c-0.5-0.5-1.2-1.1-1.8-1.6l1.6-1.3c0.6,0.6,1.1,1.1,1.6,1.6c2,2.1,3.3,3.9,3.3,5.8
				c0,2.6-2,3.3-3.8,3.3c-1.3,0-2.4-0.1-3.3-0.3l-0.3-2.1C154.1,71.1,155.1,71.3,156.3,71.3z M158.2,60.2c-0.9-0.7-2.7-1.6-4.3-2.2
				l1.2-1.5c1.6,0.6,3.9,1.7,5.2,2.6l0.5,1.3c-0.5,0.4-1.9,1.5-2.7,2.1l-1.3-1.2C157.3,60.8,157.9,60.4,158.2,60.2z M161.4,65.3
				l1.7-1c1.4,1.6,2.9,4.7,3.6,6.5l-2,1C164.2,69.9,162.8,67,161.4,65.3z M164.7,61.4l-1.4,0.6c-0.4-0.8-1.1-2.1-1.6-2.9l1.3-0.6
				C163.5,59.3,164.3,60.6,164.7,61.4z M167.1,60.5l-1.3,0.6c-0.5-0.9-1.1-2.1-1.7-2.8l1.3-0.6C165.9,58.5,166.7,59.8,167.1,60.5z"
				/>
			<path class="st1" d="M189.9,69.9c-1.1,0.5-2.4,1-3.5,1.4c1.3,0.6,2.9,0.9,4.7,1.1c-0.4,0.4-0.9,1.1-1.1,1.6
				c-2.9-0.3-5.1-1.2-6.7-2.5l0,1.3c-2.6,0.3-5.3,0.7-7.3,0.9l-0.2-1.6c0.5,0,1.1-0.1,1.7-0.2V69h-1.7c-0.3,1.8-0.8,3.6-2,5
				c-0.3-0.3-1.2-0.8-1.6-1c1.8-2.2,2-5.2,2-7.3v-2.6h16v1.4h-14.2v1.2c0,0.6,0,1.2-0.1,1.8h14.8V69h-1.9L189.9,69.9z M189.3,62.3
				h-14.9v-5.9h4.2v-1.3h1.9v1.3h2.5v-1.3h1.9v1.3h4.4V62.3z M176.2,58.8h2.4v-1.1h-2.4V58.8z M176.2,61.1h2.4V60h-2.4V61.1z
				 M177.2,66.7v-1.2h11.5v1.2H177.2z M179.4,71.7c1.2-0.1,2.5-0.3,3.7-0.4c-0.7-0.6-1.3-1.4-1.8-2.3h-1.9V71.7z M180.5,57.7v1.1
				h2.5v-1.1H180.5z M180.5,60v1.1h2.5V60H180.5z M183.3,69c0.5,0.6,1,1.1,1.7,1.5c1-0.4,2.3-1,3.2-1.5H183.3z M187.5,57.7h-2.5v1.1
				h2.5V57.7z M187.5,60h-2.5v1.1h2.5V60z"/>
			<path class="st1" d="M214.8,56v18H213v-0.8h-13.5V74h-1.8V56H214.8z M213,71.5V57.7h-13.5v13.8H213z M212,66.9
				c-0.7,0.6-1.6,1.2-2.4,1.6c0.9,0.5,1.9,0.9,2.9,1.1c-0.3,0.3-0.8,0.9-1,1.2c-1.7-0.5-3.5-1.6-4.8-2.8v2.9h-1.7v-2.6
				c-1.3,0.8-2.7,1.5-4.1,2c-0.2-0.3-0.7-0.9-1.1-1.2c1.8-0.6,3.7-1.4,5.1-2.5h-3.5v-3.5h9.4v3.1L212,66.9z M212.1,62.4h-11.7v-1.1
				h5v-1.1h-3.9v-1.1h3.9v-1h1.7v1h4.1v1.1H207v1.1h5V62.4z M203.2,65.6h6.2v-1.4h-6.2V65.6z M207.2,66.7c0.4,0.4,0.9,0.8,1.4,1.2
				c0.6-0.4,1.2-0.8,1.7-1.2L207.2,66.7L207.2,66.7z"/>
			<path class="st1" d="M231.4,57.2h8.9v2h-6.6v4.2h5.5v2h-5.5v4.9h6.8v2h-9.2V57.2z"/>
			<path class="st1" d="M246.3,64.8c0-4.9,3-7.9,6.8-7.9c1.9,0,3.4,0.9,4.3,1.9l-1.3,1.5c-0.8-0.8-1.7-1.4-3-1.4
				c-2.6,0-4.4,2.2-4.4,5.7c0,3.6,1.7,5.8,4.4,5.8c1.4,0,2.4-0.6,3.3-1.6l1.3,1.5c-1.2,1.4-2.8,2.2-4.7,2.2
				C249.2,72.6,246.3,69.8,246.3,64.8z"/>
			<path class="st1" d="M271,73.5l-1.7-1.6c3.8-1.4,5.7-3.2,5.7-8.6v-0.8h-5.4v3.1c0,0.8,0.1,1.7,0.1,2h-2.3c0-0.3,0.1-1.1,0.1-2
				v-3.1h-2c-1,0-1.8,0-2.1,0.1v-2.2c0.3,0.1,1.2,0.2,2.1,0.2h2V58c0-0.5,0-1.1-0.1-1.6h2.3c0,0.3-0.1,0.9-0.1,1.6v2.4h5.4V58
				c0-0.8-0.1-1.5-0.1-1.8h2.3c0,0.3-0.1,1-0.1,1.8v2.4h1.9c1,0,1.7-0.1,2.1-0.1v2.2c-0.3,0-1-0.1-2-0.1h-2v0.7
				C277,68.4,275.8,71.3,271,73.5z"/>
			<path class="st1" d="M295.8,60.9c2.1-1.3,4.3-3.2,5.7-4.9l1.7,1.6c-1.6,1.6-3.5,3.2-5.5,4.5v8.5c0,0.8,0,2,0.1,2.4h-2.5
				c0.1-0.5,0.1-1.6,0.1-2.4v-7.1c-2.2,1.2-4.9,2.4-7.6,3.2l-1-2C290.4,63.7,293.5,62.3,295.8,60.9z"/>
			<path class="st1" d="M313.1,58.6c0-0.7-0.1-1.6-0.2-2.3h2.5c-0.1,0.7-0.1,1.6-0.1,2.3v3.2c2.7,0.8,6.6,2.3,8.7,3.3l-0.9,2.2
				c-2.2-1.2-5.5-2.5-7.8-3.2v6.3c0,0.6,0.1,1.9,0.2,2.6h-2.5c0.1-0.7,0.2-1.8,0.2-2.6V58.6z"/>
		</g>
	</g>
</g>
</svg>
