<?xml version="1.0" encoding="utf-8"?>
<!-- Generator: Adobe Illustrator 27.6.1, SVG Export Plug-In . SVG Version: 6.00 Build 0)  -->
<svg version="1.1" id="レイヤー_1" xmlns="http://www.w3.org/2000/svg" xmlns:xlink="http://www.w3.org/1999/xlink" x="0px"
	 y="0px" width="1000px" height="710px" viewBox="0 0 1000 710" style="enable-background:new 0 0 1000 710;" xml:space="preserve">
<style type="text/css">
	.st0{fill:#00AA32;}
	.st1{fill:#FFFFFF;}
	.st2{fill:#4D4D4D;}
	.st3{fill:#808080;}
	.st4{fill:none;stroke:#00AA32;stroke-miterlimit:10;}
</style>
<g>
	<g>
		<path class="st0" d="M684.4,705.6l-361.6-1.7c-19.3,0-35-15.7-34.9-35.1v0c0-19.3,15.7-35,35.1-34.9l361.6,1.7
			c19.3,0,35,15.7,34.9,35.1v0C719.4,690,703.7,705.6,684.4,705.6z"/>
	</g>
	<g>
		<path class="st1" d="M445,680.4l-11.4,0l0,1.2l-3.4,0l0-13.1c-0.2,0.2-0.5,0.4-0.7,0.5c-0.3-0.5-1.1-1.4-1.7-2l0,11l-5.4,0l0,2.3
			l-2.9,0l0-7.6c-0.3,0.6-0.7,1.1-1.1,1.6c-0.3-0.8-1.3-2.6-1.9-3.4c2.1-3,3.3-7.5,4-12.4l-2.9,0l0-3.2l10.7,0l0,1l6.1,0
			c0.3-0.9,0.6-1.8,0.8-2.8l3.4,0.6c-0.2,0.8-0.4,1.5-0.6,2.2l6.9,0l0,5.5l-3.1,0l0-2.5l-4.9,0c-0.5,1.3-1.2,2.6-1.9,3.7l2.4,0
			c0.4-1,0.8-2.1,1.1-3l3.2,0.7c-0.4,0.8-0.8,1.6-1.1,2.3l3.8,0l0,2.9l-4.5,0l0,2l3.9,0l0,2.6l-3.9,0l0,2.1l3.9,0l0,2.6l-3.9,0
			l0,2.1l5.2,0L445,680.4z M424.8,667.2l-2.4,0l0,7.7l2.4,0L424.8,667.2z M427.8,665.8c2.2-1.6,4-3.9,5.4-6.5l-2.1,0l0,2.5l-3,0
			l0-3.2l-4.2,0c-0.3,1.9-0.6,3.7-1.1,5.5l5.1,0L427.8,665.8z M433.6,677.5l2.9,0l0-2.1l-2.9,0L433.6,677.5z M436.5,670.7l-2.9,0
			l0,2.1l2.9,0L436.5,670.7z M436.5,666l-2.9,0l0,2l2.9,0L436.5,666z"/>
		<path class="st1" d="M464.4,661.4l-10.9,0l0-2.8l10.9,0L464.4,661.4z M463.6,678.2c1.1-1.5,1.7-3.9,1.9-6.2l2.8,0.7
			c-0.3,2.7-0.9,5.5-2.3,7.3l-2.4-1.5l0,1.5l-5.9,0l0,1.2l-2.9,0l0-10.2l8.8,0L463.6,678.2z M454.9,666.8l8.7,0l0,2.7l-8.7,0
			L454.9,666.8z M463.6,665.5l-8.7,0l0-2.7l8.7,0L463.6,665.5z M463.5,657.2l-8.5,0l0-2.7l8.5,0L463.5,657.2z M460.6,673.8l-2.9,0
			l0,3.5l2.9,0L460.6,673.8z M467,658.7c0.9,0.3,1.9,0.6,2.8,1c0.2-0.6,0.3-1.3,0.5-1.9l-4.5,0l0-3l14.9,0c0,0,0,0.9,0,1.3
			c-0.3,6.8-0.6,9.6-1.4,10.5c-0.6,0.7-1.1,1-2,1.1c-0.7,0.1-2,0.1-3.2,0.1c-0.1-1-0.4-2.3-0.8-3.1c-0.5-0.3-1-0.7-1.6-1
			c-1.1,1.9-2.7,3.6-5.2,4.9c-0.4-0.8-1.3-2-2-2.5c2.1-1,3.4-2.3,4.3-3.8c-1.1-0.5-2.2-0.9-3.3-1.3L467,658.7z M474,678.4
			c0.6,0,0.7-0.4,0.8-3.1c0.6,0.5,2,1.1,2.9,1.3c-0.3,3.9-1.2,4.9-3.3,4.9l-2.5,0c-2.8,0-3.4-1-3.4-4l0-6.6l3.3,0l0,6.5
			c0,0.8,0.1,0.9,0.6,0.9L474,678.4z M471.3,666.7c1.9,1,4.2,2.5,5.4,3.8l-2.2,2.3c-1-1.2-3.3-2.9-5.2-4L471.3,666.7z M473.4,657.8
			c-0.2,1.1-0.4,2.2-0.8,3.2c1,0.5,2,1,2.7,1.5l-1.4,2.3c0.6,0,1.1,0,1.4,0c0.4,0,0.7-0.1,0.9-0.4c0.4-0.5,0.7-2.2,0.9-6.7
			L473.4,657.8z M478.7,671.4c1.6,2.3,2.8,5.3,3.3,7.4l-3.2,1.3c-0.3-2.1-1.5-5.3-3-7.6L478.7,671.4z"/>
		<path class="st1" d="M516.9,655.5l0,3.3l-11.8,0l0,2.4l5.5,0l0,13.6l-14.3,0l0-13.6l5.2,0l0-2.4l-11.5,0l0-3.3L516.9,655.5z
			 M512.6,660.8l3.5,0l0,20.9l-3.5,0l0-1.7l-18.1,0l0,1.8l-3.5,0l0-20.9l3.5,0l0,15.8l18.1,0L512.6,660.8z M499.2,671.9l2.6,0l0-2.5
			l-2.6,0L499.2,671.9z M499.3,666.7l2.6,0l0-2.5l-2.6,0L499.3,666.7z M507.5,669.4l-2.6,0l0,2.5l2.6,0L507.5,669.4z M507.5,664.2
			l-2.6,0l0,2.5l2.6,0L507.5,664.2z"/>
		<path class="st1" d="M541,658.9c-0.3,0.9-0.6,1.8-0.8,2.7l11.4,0l0,20.2l-3.6,0l0-1.5l-17.3,0l0,1.5l-3.4,0l0-20.2l9.2,0
			c0.2-0.9,0.4-1.8,0.5-2.7l-10.9,0l0-3.4l27,0.1l0,3.4L541,658.9z M530.6,677l3.1,0l0-12.1l-3.1,0L530.6,677z M536.9,677l4.6,0
			l0-2.2l-4.6,0L536.9,677z M541.5,669.7l-4.6,0l0,2.3l4.6,0L541.5,669.7z M541.5,664.9l-4.6,0l0,2.1l4.6,0L541.5,664.9z
			 M547.9,664.9l-3.2,0l0,12.1l3.2,0L547.9,664.9z"/>
		<path class="st1" d="M563.5,668c1.4-1.4,3.7-4.5,5.6-6.7c2.1-2.4,4.1-2.6,6.2-0.4c2,2,4.4,5.1,6.2,7c1.9,2.1,4.5,4.8,7.3,7.4
			l-3.1,3.6c-2.2-2-4.7-5-6.6-7.2c-1.9-2.2-4.1-5.1-5.5-6.7c-1-1.2-1.6-1-2.5,0.1c-1.2,1.5-3.3,4.5-4.6,6.2c-0.7,1-1.4,2.1-1.9,2.8
			l-3.7-3.8C561.8,669.6,562.6,668.9,563.5,668z"/>
	</g>
</g>
<g>
	<path class="st2" d="M6.5,14.2c0,0.4-0.1,1.1-0.1,1.9c1.3-0.2,2.7-0.4,3.7-0.7l0,1.4c-1.1,0.3-2.5,0.5-3.8,0.6c0,0.8,0,1.7,0,2.4
		c0,0.2,0,0.4,0,0.6c1.4-0.4,2.8-0.7,4-0.7c2.6,0,4.5,1.4,4.5,3.6c0,2.2-1.4,3.6-3.8,4.2c-0.8,0.2-1.6,0.2-2.2,0.3l-0.5-1.5
		c0.7,0,1.4,0,2.1-0.1c1.6-0.3,3-1.2,3-2.8c0-1.5-1.4-2.4-3.1-2.4c-1.4,0-2.6,0.3-3.9,0.7c0,1.5,0.1,3.1,0.1,3.9
		c0,1.7-0.6,2.2-1.6,2.2c-1.4,0-3.7-1.4-3.7-3c0-1.5,1.9-3.1,3.9-3.9c0-0.3,0-0.7,0-1c0-0.7,0-1.6,0-2.4c-0.5,0-1,0.1-1.3,0.1
		c-1,0-1.7,0-2.3-0.1l0-1.4c1,0.1,1.6,0.1,2.3,0.1c0.4,0,0.9,0,1.4-0.1c0-0.9,0-1.7,0-2.1c0-0.4,0-1-0.1-1.3h1.6
		C6.6,13.3,6.5,13.8,6.5,14.2z M4.5,26.4c0.4,0,0.7-0.3,0.7-0.9c0-0.6,0-1.9-0.1-3.2C3.6,23,2.5,24,2.5,24.8
		C2.5,25.7,3.8,26.4,4.5,26.4z M16.3,17.6l-0.7,1.2c-0.9-0.8-2.9-2.1-4-2.7l0.6-1.1C13.5,15.6,15.5,16.8,16.3,17.6z"/>
	<path class="st2" d="M33.3,28.7H32V28h-7.4v0.7h-1.3V23c-1.4,0.8-2.9,1.5-4.4,2c-0.2-0.4-0.5-0.9-0.8-1.2c2.3-0.7,4.6-1.9,6.7-3.5
		c-0.8-0.9-2.1-2.1-3.3-3c-0.7,0.6-1.5,1.1-2.4,1.6c-0.2-0.3-0.6-0.8-0.9-1c3-1.6,5-3.9,6-5.9l1.5,0.3c-0.3,0.5-0.6,1-1,1.5h5.1
		L30,14l0.9,0.5c-1.1,2.7-2.8,4.9-4.9,6.6h7.4V28.7z M23.7,15.3c-0.4,0.5-0.8,0.9-1.3,1.3c1.2,0.8,2.6,2,3.4,2.9
		c1.3-1.2,2.5-2.6,3.2-4.2H23.7z M32,26.7v-4.4h-7.4v4.4H32z"/>
	<path class="st2" d="M51.4,15.1v1.2h-16v-1.2h4.4c-0.3-0.7-1-1.7-1.6-2.4l1.2-0.5c0.7,0.8,1.5,1.8,1.8,2.5l-0.9,0.3h5.4
		c0.6-0.9,1.3-2.1,1.7-2.9l1.4,0.5c-0.5,0.8-1.1,1.7-1.6,2.4H51.4z M43.1,27.2c0,0.7-0.2,1-0.6,1.2c-0.5,0.2-1.3,0.2-2.5,0.2
		c-0.1-0.3-0.3-0.8-0.4-1.2c0.9,0,1.7,0,1.9,0c0.3,0,0.3-0.1,0.3-0.3v-2.4h-4v3.9h-1.3V17.9h6.6V27.2z M37.8,19.1v1.8h4v-1.8H37.8z
		 M41.8,23.7v-1.8h-4v1.8H41.8z M46.5,25.4h-1.2v-7.3h1.2V25.4z M48.9,17.6h1.3V27c0,0.8-0.2,1.2-0.7,1.4c-0.6,0.2-1.5,0.3-2.8,0.2
		c-0.1-0.4-0.3-0.9-0.5-1.3c1.1,0,2.1,0,2.3,0c0.3,0,0.4-0.1,0.4-0.4V17.6z"/>
	<path class="st2" d="M0.8,106.9L0,105.7c1.5-0.8,3.6-2.4,4.6-3.5l0.8,1.1C4.4,104.3,2.6,105.8,0.8,106.9z M7.7,106.5
		c0.8,0,1.8-0.3,1.8-1.5c0-1.2-1.3-2.8-2.3-3.9c-0.4-0.4-0.9-0.9-1.4-1.4l1.1-0.9c0.4,0.5,0.9,0.9,1.3,1.4c1.7,1.8,2.9,3.3,2.9,5
		c0,2.2-1.8,2.7-3.1,2.7c-1.1,0-2.1-0.1-2.9-0.3l-0.2-1.5C5.7,106.3,6.6,106.5,7.7,106.5z M9.6,96.6c-0.8-0.6-2.5-1.5-3.8-2.1l0.8-1
		C7.9,94,9.9,95,11,95.8l0.3,0.9c-0.4,0.4-1.4,1.2-2.1,1.6l-0.9-0.8C8.8,97.2,9.3,96.8,9.6,96.6z M12.2,101.1l1.2-0.7
		c1.2,1.5,2.6,4,3.2,5.6l-1.3,0.7C14.7,105,13.5,102.5,12.2,101.1z"/>
	<path class="st2" d="M20.6,98.1c0.7-1.8,2.6-4.1,4.9-4.1c2.4,0,4.1,2.4,4.1,6.2c0,5-3.1,7.2-7.6,8l-0.8-1.3c3.9-0.6,7-2.2,7-6.7
		c0-2.8-1-4.9-2.9-4.9c-2.3,0-4.3,3.3-4.6,5.6c-0.1,0.7-0.1,1.3,0,2.2l-1.4,0.1c-0.1-0.7-0.2-1.7-0.2-2.9c0-1.7,0.3-4.4,0.6-5.8
		c0.1-0.5,0.1-1.1,0.1-1.5l1.6,0.1C21.1,94.4,20.7,96.9,20.6,98.1z"/>
	<path class="st2" d="M39.2,94.4c-0.1,0.5-0.3,1.6-0.5,2.6c0.8-0.1,1.6-0.1,2-0.1c1.6,0,2.9,0.6,2.9,3.1c0,2.1-0.3,5-1,6.5
		c-0.6,1.2-1.5,1.5-2.6,1.5c-0.7,0-1.5-0.1-2.1-0.3l-0.2-1.5c0.8,0.2,1.7,0.4,2.2,0.4c0.7,0,1.2-0.1,1.6-0.9
		c0.6-1.2,0.8-3.6,0.8-5.5c0-1.6-0.8-1.9-1.9-1.9c-0.4,0-1.2,0.1-1.9,0.1c-0.7,2.6-1.9,6.7-3.8,9.7l-1.5-0.6c1.8-2.4,3.2-6.6,3.8-9
		c-1,0.1-1.8,0.2-2.3,0.2c-0.4,0.1-1.2,0.1-1.6,0.2l-0.2-1.5c0.6,0,1,0,1.6,0c0.6,0,1.6-0.1,2.7-0.2c0.3-1.3,0.5-2.7,0.5-3.9
		l1.7,0.2C39.3,93.7,39.3,94.1,39.2,94.4z M48.9,101.8l-1.4,0.7c-0.5-1.9-1.9-5-3.2-6.5l1.3-0.6C46.7,96.9,48.3,100.1,48.9,101.8z
		 M47.3,95.3l-1,0.4c-0.4-0.7-1-1.8-1.5-2.5l1-0.4C46.3,93.4,46.9,94.6,47.3,95.3z M49.3,94.5l-1,0.4c-0.4-0.8-1-1.8-1.5-2.5l1-0.4
		C48.3,92.7,49,93.9,49.3,94.5z"/>
	<path class="st2" d="M56.5,95.8c0.9-0.1,1.9-0.4,2.8-0.7l0,1.4c-1,0.3-2.1,0.5-3.3,0.7c-0.9,2.5-2.5,5.7-3.9,7.6l-1.4-0.7
		c1.5-1.7,3-4.6,3.9-6.7c-0.5,0-1.1,0.1-1.6,0.1c-0.7,0-1.4,0-2.1-0.1L50.8,96c0.7,0.1,1.4,0.1,2.2,0.1c0.6,0,1.3,0,2-0.1
		c0.3-1,0.5-2.1,0.6-3.1l1.6,0.1C57.1,93.7,56.8,94.8,56.5,95.8z M61.5,100.5c0,0.7,0.1,1.8,0.1,3c1.5,0.6,2.8,1.4,3.7,2.2l-0.8,1.2
		c-0.8-0.7-1.7-1.5-2.9-2.1c0,0.3,0,0.5,0,0.8c0,1.4-0.9,2.6-3.2,2.6c-2,0-3.6-0.8-3.6-2.6c0-1.7,1.6-2.7,3.6-2.7
		c0.6,0,1.2,0.1,1.8,0.2c-0.1-1.5-0.2-3.3-0.2-4.5h1.4C61.4,99.3,61.4,99.9,61.5,100.5z M58.3,106.9c1.5,0,2-0.8,2-1.8
		c0-0.2,0-0.5,0-0.8c-0.6-0.2-1.2-0.3-1.9-0.3c-1.3,0-2.2,0.6-2.2,1.4C56.2,106.4,56.9,106.9,58.3,106.9z M60.9,96.6l0.7-1.1
		c1.3,0.6,3.3,1.7,4.2,2.4l-0.8,1.2C64.1,98.2,62.2,97.1,60.9,96.6z"/>
	<path class="st2" d="M13.2,175.5c-0.6,1.6-1.5,3.6-2.7,5.3c1.6,1.3,3.2,2.7,4.4,4.1l-1.1,1.2c-1.3-1.5-2.7-2.8-4.2-4.1
		c-1.7,2-3.9,4.2-7.1,5.8l-1.2-1.1c3.2-1.5,5.4-3.5,7.1-5.7c-1.3-1.1-3.3-2.6-5.1-3.6l0.9-1.1c1.5,1,3.6,2.5,5.1,3.6
		c1.2-1.7,1.9-3.4,2.4-4.9c0.1-0.4,0.3-0.9,0.4-1.3l1.7,0.6C13.6,174.5,13.4,175.2,13.2,175.5z"/>
	<path class="st2" d="M19.2,179.6h9.9c0.9,0,1.5-0.1,1.9-0.1v1.8c-0.4,0-1.1-0.1-1.9-0.1h-9.9c-1,0-1.9,0-2.5,0.1v-1.8
		C17.3,179.6,18.2,179.6,19.2,179.6z"/>
	<path class="st2" d="M35.2,182.4c0.5-1.6,0.5-5.2,0.5-7.2c0-0.5-0.1-0.9-0.1-1.3h1.7c0,0.2-0.1,0.8-0.1,1.3c0,2-0.1,5.9-0.6,7.7
		c-0.5,1.9-1.7,3.7-3.2,5l-1.4-0.9C33.6,185.8,34.6,184.2,35.2,182.4z M40.4,185.9v-10.8c0-0.7-0.1-1.2-0.1-1.3H42
		c0,0.1-0.1,0.6-0.1,1.3v10.4c1.7-0.8,3.9-2.4,5.3-4.4l0.8,1.2c-1.5,2.1-4.1,4-6.1,5c-0.3,0.2-0.5,0.3-0.6,0.4l-1-0.8
		C40.4,186.7,40.4,186.3,40.4,185.9z"/>
	<path class="st2" d="M62.2,175.8c-0.7,1.2-2.4,3.5-4.5,5l-1.2-1c1.7-1,3.3-2.9,3.9-4H50.2c-0.7,0-1.4,0-2.1,0.1v-1.6
		c0.6,0.1,1.4,0.2,2.1,0.2h10.3c0.3,0,1-0.1,1.3-0.1l0.9,0.8C62.5,175.3,62.3,175.6,62.2,175.8z M50.5,188l-1.3-1.1
		c0.5-0.2,1.1-0.4,1.6-0.8c2.8-1.7,3.2-4.3,3.2-7.3c0-0.4,0-0.8-0.1-1.3h1.6C55.5,182.4,55.1,185.7,50.5,188z"/>
	<path class="st2" d="M67,175.5c0-0.5,0-1.3-0.1-1.9h1.8c-0.1,0.6-0.1,1.3-0.1,1.9v2.9c2.4,0.7,5.8,2,7.7,3l-0.6,1.5
		c-1.9-1.1-5.1-2.3-7.1-2.9v5.9c0,0.6,0.1,1.5,0.1,2.1h-1.7c0.1-0.6,0.1-1.5,0.1-2.1V175.5z M75,177.1l-1,0.5
		c-0.5-0.9-1-1.9-1.6-2.7l1-0.4C73.8,175,74.6,176.2,75,177.1z M77.2,176.1l-1,0.5c-0.5-1-1.1-1.9-1.7-2.7l1-0.5
		C76,174.1,76.8,175.3,77.2,176.1z"/>
	<path class="st2" d="M81.4,185.9v-10.3c0-0.5-0.1-1.3-0.2-1.6h1.8c-0.1,0.5-0.1,1.1-0.1,1.6v10.2c3.4-0.9,7.6-3.2,9.8-6.1l0.8,1.3
		c-2.3,2.9-6,5.1-10.5,6.4c-0.2,0.1-0.5,0.1-0.8,0.3l-1-0.9C81.4,186.5,81.4,186.2,81.4,185.9z"/>
	<path class="st2" d="M106.1,176.1c-0.6,1.5-1.7,3.7-3,5.3c1.9,1.6,4.1,4,5.3,5.4l-1.3,1.1c-1.2-1.6-3.1-3.7-5-5.3
		c-1.9,2.1-4.4,4.1-7,5.3l-1.2-1.2c2.9-1.1,5.6-3.3,7.4-5.3c1.2-1.4,2.5-3.5,3-5h-7c-0.6,0-1.6,0.1-1.8,0.1v-1.6
		c0.3,0,1.3,0.1,1.8,0.1h7c0.6,0,1.1-0.1,1.4-0.1l0.9,0.7C106.4,175.4,106.2,175.8,106.1,176.1z"/>
	<path class="st2" d="M7.5,256.1H1.9v2.5H0.7v-3.5h6.9v-1.1H1.7v-1h13.1v1H8.8v1.1h7v3.5h-1.2v-2.5H8.8v4.1H7.5V256.1z M14.1,267.5
		c1,0,1.1-0.3,1.2-2.1c0.3,0.2,0.8,0.4,1.2,0.4c-0.2,2.2-0.6,2.7-2.3,2.7h-4.1c-2,0-2.6-0.3-2.6-1.8v-0.6h-4v0.9H2.2v-6.2h12.1v5.3
		H8.8v0.6c0,0.6,0.2,0.7,1.4,0.7H14.1z M2.5,258.9h4.1v0.8H2.5V258.9z M6.6,257.9H2.8v-0.8h3.8V257.9z M3.5,261.8v1.2h4v-1.2H3.5z
		 M7.5,265.2V264h-4v1.2H7.5z M13.1,261.8H8.8v1.2h4.3V261.8z M13.1,265.2V264H8.8v1.2H13.1z M13.6,257.1v0.8H9.8v-0.8H13.6z
		 M9.8,258.9h4.3v0.8H9.8V258.9z"/>
	<path class="st2" d="M17.9,255.3h6.7v1.1h-6.7V255.3z M24.1,267.9h-4.1v0.8h-1.2v-6h5.3V267.9z M24,258.8h-5.2v-1.1H24V258.8z
		 M18.8,260.2H24v1.1h-5.2V260.2z M24,254h-5.1v-1.1H24V254z M19.9,263.8v3h3v-3H19.9z M30.3,258.8v3h3.4v6.8h-1.3v-0.8H27v0.9h-1.3
		v-6.9h3.2v-3h-4.2v-1.3h4.2v-2.9c-1.2,0.1-2.3,0.3-3.4,0.3c0-0.3-0.2-0.8-0.4-1.1c2.7-0.3,5.9-0.7,7.7-1.3l1,1.1
		c-1,0.3-2.3,0.6-3.6,0.8v3.1h4.2v1.3H30.3z M32.3,263H27v3.6h5.3V263z"/>
	<path class="st2" d="M46.3,258.4c1.6,1.4,4.1,2.6,6.3,3.3c-0.3,0.3-0.7,0.8-0.9,1.1c-0.5-0.2-1.1-0.4-1.7-0.6v6.5h-1.3v-0.5H40v0.6
		h-1.3v-6.6c-0.6,0.3-1.3,0.6-1.9,0.8c-0.2-0.3-0.5-0.8-0.8-1.1c2.1-0.7,4.6-2,6.2-3.5h-5.7v-1.2h3.9c-0.3-0.7-0.8-1.5-1.3-2.2
		l1.1-0.4c-0.8,0.1-1.6,0.1-2.4,0.1c0-0.3-0.1-0.8-0.3-1c4.3-0.2,9.4-0.6,12.2-1.2l0.9,1c-1.5,0.3-3.5,0.6-5.7,0.8v3h2.5l-0.5-0.2
		c0.5-0.7,1.2-1.9,1.5-2.8l1.4,0.4c-0.5,0.9-1.2,1.9-1.7,2.6h4.1v1.2H46.3z M49.4,261.8c-1.7-0.9-3.4-2-4.6-3.3v2.9h-1.3v-2.9
		c-1.2,1.2-2.7,2.3-4.3,3.2H49.4z M43.6,262.9H40v1.5h3.6V262.9z M40,267h3.6v-1.7H40V267z M43.6,254.4c-1.1,0.1-2.3,0.2-3.4,0.2
		c0.6,0.7,1.2,1.7,1.4,2.4l-0.7,0.3h2.6V254.4z M48.8,262.9h-3.9v1.5h3.9V262.9z M48.8,267v-1.7h-3.9v1.7H48.8z"/>
	<path class="st2" d="M59.5,260.9c-0.2,0.5-0.4,1.1-0.5,1.6h9c0,0,0,0.4-0.1,0.6c-0.5,3.1-0.9,4.5-1.6,5.1c-0.4,0.4-0.8,0.5-1.5,0.5
		c-0.6,0-1.8,0-3.1-0.1c0-0.4-0.2-0.9-0.5-1.3c1.3,0.1,2.6,0.1,3.1,0.1c0.4,0,0.6,0,0.9-0.2c0.5-0.4,0.8-1.4,1.2-3.7h-7.9
		c-0.2,0.5-0.3,0.9-0.5,1.2l-1.4-0.3c0.4-1,1-2.5,1.4-3.8h-3.9v-1.2h16.1v1.2H59.5z M68,258.2H56.6V253H68V258.2z M66.6,254.2h-8.7
		v2.9h8.7V254.2z"/>
	<path class="st2" d="M6.5,334.2c0,0.4-0.1,1.1-0.1,1.9c1.3-0.2,2.7-0.4,3.7-0.7l0,1.4c-1.1,0.3-2.5,0.5-3.8,0.6c0,0.8,0,1.7,0,2.4
		c0,0.2,0,0.4,0,0.6c1.4-0.4,2.8-0.7,4-0.7c2.6,0,4.5,1.4,4.5,3.6c0,2.2-1.4,3.6-3.8,4.2c-0.8,0.2-1.6,0.2-2.2,0.3l-0.5-1.5
		c0.7,0,1.4,0,2.1-0.1c1.6-0.3,3-1.2,3-2.8c0-1.5-1.4-2.4-3.1-2.4c-1.4,0-2.6,0.3-3.9,0.7c0,1.5,0.1,3.1,0.1,3.9
		c0,1.7-0.6,2.2-1.6,2.2c-1.4,0-3.7-1.4-3.7-3c0-1.5,1.9-3.1,3.9-3.9c0-0.3,0-0.7,0-1c0-0.7,0-1.6,0-2.4c-0.5,0-1,0.1-1.3,0.1
		c-1,0-1.7,0-2.3-0.1l0-1.4c1,0.1,1.6,0.1,2.3,0.1c0.4,0,0.9,0,1.4-0.1c0-0.9,0-1.7,0-2.1c0-0.4,0-1-0.1-1.3h1.6
		C6.6,333.3,6.5,333.8,6.5,334.2z M4.5,346.4c0.4,0,0.7-0.3,0.7-0.9c0-0.6,0-1.9-0.1-3.2c-1.5,0.7-2.6,1.7-2.6,2.5
		C2.5,345.7,3.8,346.4,4.5,346.4z M16.3,337.6l-0.7,1.2c-0.9-0.8-2.9-2.1-4-2.7l0.6-1.1C13.5,335.6,15.5,336.8,16.3,337.6z"/>
	<path class="st2" d="M20,339.3v9.4h-1.3V333h6.5v6.3H20z M20,334.1v1.5h3.9v-1.5H20z M23.9,338.2v-1.6H20v1.6H23.9z M23.8,346.2
		v1.1h-1.2v-6.3h6.7v5.2H23.8z M23.8,342.1v3H28v-3H23.8z M33.4,346.9c0,0.9-0.2,1.3-0.8,1.6c-0.6,0.2-1.7,0.2-3.2,0.2
		c-0.1-0.4-0.3-1-0.5-1.4c1.2,0.1,2.3,0,2.7,0c0.3,0,0.4-0.1,0.4-0.5v-7.6h-5.3V333h6.6V346.9z M28,334.1v1.5h4v-1.5H28z M32,338.3
		v-1.7h-4v1.7H32z"/>
	<path class="st2" d="M38.1,336.5c0,1.1,0,2.8,0.1,4.3c0.3,3,1.2,5,2.4,5c0.9,0,1.8-1.9,2.2-3.7l1.1,1.3c-1.1,3.1-2.2,4.1-3.4,4.1
		c-1.7,0-3.3-1.7-3.8-6.4c-0.2-1.6-0.2-3.8-0.2-4.8c0-0.4,0-1.2-0.1-1.6l1.7,0C38.2,335.2,38.1,336,38.1,336.5z M50.8,344.2
		l-1.4,0.6c-0.3-3.3-1.4-7-3.1-9.1l1.4-0.5C49.2,337.3,50.5,341.2,50.8,344.2z"/>
	<path class="st2" d="M61.2,332.3c1.9,2.6,5.1,5.1,7.9,6.4c-0.3,0.3-0.6,0.8-0.9,1.2c-2.8-1.5-5.9-4-7.6-6.3
		c-1.5,2.2-4.4,4.8-7.5,6.4c-0.2-0.3-0.5-0.8-0.8-1.1c3.1-1.6,6.1-4.3,7.5-6.6H61.2z M55.2,341.5h10.9v7.2h-1.4V348h-8.3v0.7h-1.3
		V341.5z M65.2,338.1v1.2h-9v-1.2H65.2z M56.5,342.7v4h8.3v-4H56.5z"/>
	<path class="st2" d="M74.6,333l1.7,0.1c-0.1,0.5-0.2,1.5-0.4,2.7c0,0,0.1,0,0.1,0l0.5,0.6c-0.2,0.3-0.5,0.8-0.8,1.3
		c0,0.4-0.1,0.8-0.1,1.2c2-1.6,4-2.3,5.7-2.3c2.5,0,4.7,1.8,4.7,4.6c0,3.6-2.6,5.5-6.6,6.3l-0.7-1.4c3-0.4,5.8-1.9,5.8-5
		c0-1.4-1.1-3.2-3.5-3.2c-2.1,0-4,1-5.6,2.6c0,0.8-0.1,1.5-0.1,2.1c0,1.6,0,2.7,0.1,4.3c0,0.3,0.1,0.8,0.1,1.1h-1.6
		c0-0.3,0.1-0.8,0.1-1.1c0-1.7,0-2.6,0.1-4.6c0-0.2,0-0.4,0-0.7c-0.9,1.3-2.1,3-2.9,4.3l-0.9-1.2c1-1.3,3.1-4.1,4-5.5
		c0-0.6,0.1-1.2,0.1-1.7c-0.8,0.1-2.4,0.3-3.5,0.5l-0.1-1.5c0.4,0,0.7,0,1.2,0c0.6,0,1.7-0.2,2.6-0.3c0.1-0.8,0.1-1.5,0.1-1.7
		C74.6,334,74.6,333.5,74.6,333z"/>
	<path class="st2" d="M100.4,334.7c0,0.8,0,1.7,0,2.5c0.7-0.1,1.4-0.1,2-0.1c0.5,0,1-0.1,1.4-0.1v1.4c-0.3,0-1,0-1.4,0
		c-0.5,0-1.2,0.1-2,0.1c0,1.3-0.1,2.9-0.3,3.8c-0.2,0.8-0.6,1-1.4,1c-0.6,0-1.9-0.2-2.4-0.3l0-1.2c0.6,0.1,1.4,0.2,1.8,0.2
		c0.4,0,0.6-0.1,0.7-0.5c0.1-0.6,0.2-1.8,0.2-3c-1.9,0.1-4,0.4-5.8,0.5c0,1.9,0,3.7,0,4.4c0.1,1.9,0.1,2.6,3.2,2.6
		c1.9,0,4.2-0.2,5.3-0.4l-0.1,1.5c-1.2,0.1-3.4,0.3-5.2,0.3c-4.2,0-4.6-1-4.6-3.8c0-0.8,0-2.7,0-4.5c-0.8,0.1-1.5,0.2-1.9,0.2
		c-0.6,0.1-1.3,0.2-1.8,0.3l-0.2-1.5c0.6,0,1.2,0,1.9-0.1c0.5,0,1.2-0.1,2-0.2c0-1.2,0-2.2,0-2.5c0-0.6,0-1-0.1-1.5h1.6
		c0,0.4-0.1,0.9-0.1,1.5c0,0.6,0,1.5,0,2.4c1.8-0.2,3.9-0.4,5.8-0.5v-2.6c0-0.4,0-1-0.1-1.4h1.5
		C100.5,333.7,100.5,334.4,100.4,334.7z"/>
	<path class="st2" d="M120.8,346.9c0,0.9-0.2,1.3-0.8,1.5c-0.6,0.2-1.7,0.2-3.3,0.2c-0.1-0.4-0.3-1-0.5-1.4c1.3,0.1,2.5,0.1,2.9,0
		c0.3,0,0.4-0.1,0.4-0.5v-10.3h-5.2c0,0.7-0.1,1.5-0.3,2.3c1.8,1.6,4,3.7,5.1,5l-1.1,0.9c-0.9-1.2-2.7-3-4.4-4.6
		c-0.7,1.7-2,3.4-4.4,4.8c-0.2-0.3-0.6-0.8-1-1c4-2.1,4.6-5.1,4.7-7.4h-5.2v12.1h-1.3v-13.4h6.5v-3.1h1.3v3.1h6.5V346.9z"/>
	<path class="st2" d="M131.9,338c1.9,2.3,5,4.4,7.7,5.5c-0.3,0.3-0.6,0.8-0.8,1.2c-0.8-0.4-1.7-0.9-2.5-1.4v5.3h-1.3v-0.5h-7.3v0.6
		h-1.3v-5.2c-0.8,0.5-1.6,1-2.4,1.4c-0.1-0.3-0.5-0.8-0.8-1.1c3-1.4,6-3.8,7.4-5.8H131.9z M125.1,337.1h-1.3v-3.2h6.7v-1.7h1.4v1.7
		h6.8v3.2h-1.4v-2h-12.3V337.1z M129.6,336.4c-1.2,1.6-3,3.1-4.6,4c-0.2-0.3-0.6-0.8-1-1c1.6-0.8,3.3-2.1,4.3-3.4L129.6,336.4z
		 M135.3,342.7c-1.6-1.1-3.1-2.3-4-3.5c-0.8,1.1-2.2,2.4-3.8,3.5H135.3z M134.9,346.9v-3h-7.3v3H134.9z M133.7,336
		c1.6,1,3.7,2.4,4.7,3.5l-1,0.9c-1-1-3-2.6-4.6-3.6L133.7,336z"/>
</g>
<g>
	<path class="st0" d="M75.7,18c-0.4,2-1.1,4.6-2.1,6.1l-1.2-0.5c1-1.5,1.7-4,2.1-5.9L75.7,18z M83.4,27.2c1,0,1.2-0.6,1.3-3.4
		c0.4,0.3,0.9,0.5,1.3,0.6c-0.2,3.2-0.6,4.2-2.6,4.2h-3.6c-1.9,0-2.5-0.5-2.5-2.3v-0.9c-1.3,0.9-2.6,1.7-4,2.3
		c-0.2-0.3-0.6-0.8-0.9-1c1.7-0.8,3.4-1.8,4.9-2.9v-7.1h1.4v5.9c3.1-2.7,5.6-5.9,7.3-9.2l1.3,0.5c-2,3.9-4.9,7.5-8.6,10.4v2
		c0,0.8,0.2,1,1.2,1H83.4z M81.8,16.7c-1-0.9-3-2.4-4.5-3.4l0.9-1c1.5,1,3.5,2.5,4.5,3.3L81.8,16.7z M86.2,18.3
		c1.2,1.8,2.4,4.1,2.9,5.7l-1.3,0.6c-0.5-1.6-1.7-4-2.9-5.8L86.2,18.3z"/>
	<path class="st0" d="M96.7,23.1c-1.3,2.1-3.4,4.1-5.6,5.2c-0.2-0.3-0.6-0.8-1-1.1c2.1-1,4.2-2.8,5.3-4.6L96.7,23.1z M96,13.1
		c-1.3,1.5-3.2,2.9-4.8,3.9c-0.2-0.3-0.6-0.7-1-1c1.6-0.8,3.5-2.2,4.5-3.4L96,13.1z M96.3,18.1c-1.2,1.6-3.1,3.2-4.8,4.2
		c-0.3-0.3-0.6-0.8-1-1c1.6-0.8,3.6-2.3,4.6-3.7L96.3,18.1z M100.5,26.4c-1.2,0.9-3,1.8-4.6,2.3c-0.2-0.3-0.6-0.7-0.8-1
		c1.5-0.5,3.4-1.4,4.2-2.1L100.5,26.4z M100.3,15.9c0.1-0.5,0.3-1.1,0.4-1.6h-4.2v-1.2h10.1v1.2h-4.3c-0.2,0.6-0.4,1.1-0.5,1.6h4.2
		v9.3h-8.6v-9.3H100.3z M104.6,17h-6v1.7h6V17z M104.6,19.7h-6v1.8h6V19.7z M104.6,22.4h-6v1.8h6V22.4z M103.4,25.7
		c1.2,0.6,2.8,1.5,3.6,2.2l-1,0.8c-0.8-0.7-2.4-1.7-3.6-2.3L103.4,25.7z"/>
</g>
<g>
	<path class="st3" d="M998.2,320.5v133.5v44v43H212.6v-43v-44V320.5H998.2 M999.2,319.5H211.6v134.5v44v44h787.6v-44v-44V319.5
		L999.2,319.5z"/>
</g>
<g>
	<path class="st3" d="M998.2,240.7v42H212.6v-42H998.2 M999.2,239.7H211.6v44h787.6V239.7L999.2,239.7z"/>
</g>
<g>
	<path class="st3" d="M998.2,160.8v42H212.6v-42H998.2 M999.2,159.8H211.6v44h787.6V159.8L999.2,159.8z"/>
</g>
<g>
	<path class="st3" d="M998.2,80.9v42H212.6v-42H998.2 M999.2,79.9H211.6v44h787.6V79.9L999.2,79.9z"/>
</g>
<g>
	<path class="st3" d="M998.2,1v42H212.6V1H998.2 M999.2,0H211.6v44h787.6V0L999.2,0z"/>
</g>
<path class="st4" d="M107,33.5H72.9c-7.1,0-12.9-5.8-12.9-12.9v0c0-7.1,5.8-12.9,12.9-12.9H107c7.1,0,12.9,5.8,12.9,12.9v0
	C119.9,27.7,114.1,33.5,107,33.5z"/>
<g>
	<path class="st0" d="M86.9,99c-0.4,2-1.1,4.6-2.1,6.1l-1.2-0.5c1-1.5,1.7-4,2.1-5.9L86.9,99z M94.6,108.3c1,0,1.2-0.6,1.3-3.4
		c0.4,0.3,0.9,0.5,1.3,0.6c-0.2,3.2-0.6,4.2-2.6,4.2H91c-1.9,0-2.5-0.5-2.5-2.3v-0.9c-1.3,0.9-2.6,1.7-4,2.3c-0.2-0.3-0.6-0.8-0.9-1
		c1.7-0.8,3.4-1.8,4.9-2.9v-7.1h1.4v5.9c3.1-2.7,5.6-5.9,7.3-9.2l1.3,0.5c-2,3.9-4.9,7.5-8.6,10.4v2c0,0.8,0.2,1,1.2,1H94.6z
		 M93.1,97.8c-1-0.9-3-2.4-4.5-3.4l0.9-1c1.5,1,3.5,2.5,4.5,3.3L93.1,97.8z M97.4,99.3c1.2,1.8,2.4,4.1,2.9,5.7l-1.3,0.6
		c-0.5-1.6-1.7-4-2.9-5.8L97.4,99.3z"/>
	<path class="st0" d="M107.9,104.1c-1.3,2.1-3.4,4.1-5.6,5.2c-0.2-0.3-0.6-0.8-1-1.1c2.1-1,4.2-2.8,5.3-4.6L107.9,104.1z
		 M107.2,94.1c-1.3,1.5-3.2,2.9-4.8,3.9c-0.2-0.3-0.6-0.7-1-1c1.6-0.8,3.5-2.2,4.5-3.4L107.2,94.1z M107.5,99.1
		c-1.2,1.6-3.1,3.2-4.8,4.2c-0.3-0.3-0.6-0.8-1-1c1.6-0.8,3.6-2.3,4.6-3.7L107.5,99.1z M111.7,107.4c-1.2,0.9-3,1.8-4.6,2.3
		c-0.2-0.3-0.6-0.7-0.8-1c1.5-0.5,3.4-1.4,4.2-2.1L111.7,107.4z M111.6,97c0.1-0.5,0.3-1.1,0.4-1.6h-4.2v-1.2h10.1v1.2h-4.3
		c-0.2,0.6-0.4,1.1-0.5,1.6h4.2v9.3h-8.6V97H111.6z M115.9,98h-6v1.7h6V98z M115.9,100.7h-6v1.8h6V100.7z M115.9,103.5h-6v1.8h6
		V103.5z M114.6,106.7c1.2,0.6,2.8,1.5,3.6,2.2l-1,0.8c-0.8-0.7-2.4-1.7-3.6-2.3L114.6,106.7z"/>
</g>
<path class="st4" d="M118.3,114.5H84.2c-7.1,0-12.9-5.8-12.9-12.9v0c0-7.1,5.8-12.9,12.9-12.9h34.1c7.1,0,12.9,5.8,12.9,12.9v0
	C131.2,108.8,125.4,114.5,118.3,114.5z"/>
<g>
	<path class="st0" d="M128.9,179.1c-0.4,2-1.1,4.6-2.1,6.1l-1.2-0.5c1-1.5,1.7-4,2.1-5.9L128.9,179.1z M136.5,188.3
		c1,0,1.2-0.6,1.3-3.4c0.4,0.3,0.9,0.5,1.3,0.6c-0.2,3.2-0.6,4.2-2.6,4.2H133c-1.9,0-2.5-0.5-2.5-2.3v-0.9c-1.3,0.9-2.6,1.7-4,2.3
		c-0.2-0.3-0.6-0.8-0.9-1c1.7-0.8,3.4-1.8,4.9-2.9v-7.1h1.4v5.9c3.1-2.7,5.6-5.9,7.3-9.2l1.3,0.5c-2,3.9-4.9,7.5-8.6,10.4v2
		c0,0.8,0.2,1,1.2,1H136.5z M135,177.8c-1-0.9-3-2.4-4.5-3.4l0.9-1c1.5,1,3.5,2.5,4.5,3.3L135,177.8z M139.4,179.4
		c1.2,1.8,2.4,4.1,2.9,5.7l-1.3,0.6c-0.5-1.6-1.7-4-2.9-5.8L139.4,179.4z"/>
	<path class="st0" d="M149.9,184.2c-1.3,2.1-3.4,4.1-5.6,5.2c-0.2-0.3-0.6-0.8-1-1.1c2.1-1,4.2-2.8,5.3-4.6L149.9,184.2z
		 M149.2,174.2c-1.3,1.5-3.2,2.9-4.8,3.9c-0.2-0.3-0.6-0.7-1-1c1.6-0.8,3.5-2.2,4.5-3.4L149.2,174.2z M149.5,179.2
		c-1.2,1.6-3.1,3.2-4.8,4.2c-0.3-0.3-0.6-0.8-1-1c1.6-0.8,3.6-2.3,4.6-3.7L149.5,179.2z M153.7,187.5c-1.2,0.9-3,1.8-4.6,2.3
		c-0.2-0.3-0.6-0.7-0.8-1c1.5-0.5,3.4-1.4,4.2-2.1L153.7,187.5z M153.5,177c0.1-0.5,0.3-1.1,0.4-1.6h-4.2v-1.2h10.1v1.2h-4.3
		c-0.2,0.6-0.4,1.1-0.5,1.6h4.2v9.3h-8.6V177H153.5z M157.8,178.1h-6v1.7h6V178.1z M157.8,180.8h-6v1.8h6V180.8z M157.8,183.5h-6
		v1.8h6V183.5z M156.5,186.8c1.2,0.6,2.8,1.5,3.6,2.2l-1,0.8c-0.8-0.7-2.4-1.7-3.6-2.3L156.5,186.8z"/>
</g>
<path class="st4" d="M160.2,194.6h-34.1c-7.1,0-12.9-5.8-12.9-12.9v0c0-7.1,5.8-12.9,12.9-12.9h34.1c7.1,0,12.9,5.8,12.9,12.9v0
	C173.1,188.8,167.3,194.6,160.2,194.6z"/>
<g>
	<path class="st0" d="M90.8,259.2c-0.4,2-1.1,4.6-2.1,6.1l-1.2-0.5c1-1.5,1.7-4,2.1-5.9L90.8,259.2z M98.4,268.4
		c1,0,1.2-0.6,1.3-3.4c0.4,0.3,0.9,0.5,1.3,0.6c-0.2,3.2-0.6,4.2-2.6,4.2h-3.6c-1.9,0-2.5-0.5-2.5-2.3v-0.9c-1.3,0.9-2.6,1.7-4,2.3
		c-0.2-0.3-0.6-0.8-0.9-1c1.7-0.8,3.4-1.8,4.9-2.9v-7.1h1.4v5.9c3.1-2.7,5.6-5.9,7.3-9.2l1.3,0.5c-2,3.9-4.9,7.5-8.6,10.4v2
		c0,0.8,0.2,1,1.2,1H98.4z M96.9,257.9c-1-0.9-3-2.4-4.5-3.4l0.9-1c1.5,1,3.5,2.5,4.5,3.3L96.9,257.9z M101.3,259.5
		c1.2,1.8,2.4,4.1,2.9,5.7l-1.3,0.6c-0.5-1.6-1.7-4-2.9-5.8L101.3,259.5z"/>
	<path class="st0" d="M111.8,264.2c-1.3,2.1-3.4,4.1-5.6,5.2c-0.2-0.3-0.6-0.8-1-1.1c2.1-1,4.2-2.8,5.3-4.6L111.8,264.2z
		 M111.1,254.3c-1.3,1.5-3.2,2.9-4.8,3.9c-0.2-0.3-0.6-0.7-1-1c1.6-0.8,3.5-2.2,4.5-3.4L111.1,254.3z M111.4,259.3
		c-1.2,1.6-3.1,3.2-4.8,4.2c-0.3-0.3-0.6-0.8-1-1c1.6-0.8,3.6-2.3,4.6-3.7L111.4,259.3z M115.6,267.5c-1.2,0.9-3,1.8-4.6,2.3
		c-0.2-0.3-0.6-0.7-0.8-1c1.5-0.5,3.4-1.4,4.2-2.1L115.6,267.5z M115.4,257.1c0.1-0.5,0.3-1.1,0.4-1.6h-4.2v-1.2h10.1v1.2h-4.3
		c-0.2,0.6-0.4,1.1-0.5,1.6h4.2v9.3h-8.6v-9.3H115.4z M119.7,258.2h-6v1.7h6V258.2z M119.7,260.9h-6v1.8h6V260.9z M119.7,263.6h-6
		v1.8h6V263.6z M118.4,266.9c1.2,0.6,2.8,1.5,3.6,2.2l-1,0.8c-0.8-0.7-2.4-1.7-3.6-2.3L118.4,266.9z"/>
</g>
<path class="st4" d="M122.1,274.7H88c-7.1,0-12.9-5.8-12.9-12.9v0c0-7.1,5.8-12.9,12.9-12.9h34.1c7.1,0,12.9,5.8,12.9,12.9v0
	C135,268.9,129.2,274.7,122.1,274.7z"/>
<g>
	<path class="st0" d="M159.8,339.6c-0.4,2-1.1,4.6-2.1,6.1l-1.2-0.5c1-1.5,1.7-4,2.1-5.9L159.8,339.6z M167.5,348.8
		c1,0,1.2-0.6,1.3-3.4c0.4,0.3,0.9,0.5,1.3,0.6c-0.2,3.2-0.6,4.2-2.6,4.2h-3.6c-1.9,0-2.5-0.5-2.5-2.3v-0.9c-1.3,0.9-2.6,1.7-4,2.3
		c-0.2-0.3-0.6-0.8-0.9-1c1.7-0.8,3.4-1.8,4.9-2.9v-7.1h1.4v5.9c3.1-2.7,5.6-5.9,7.3-9.2l1.3,0.5c-2,3.9-4.9,7.5-8.6,10.4v2
		c0,0.8,0.2,1,1.2,1H167.5z M165.9,338.3c-1-0.9-3-2.4-4.5-3.4l0.9-1c1.5,1,3.5,2.5,4.5,3.3L165.9,338.3z M170.3,339.9
		c1.2,1.8,2.4,4.1,2.9,5.7l-1.3,0.6c-0.5-1.6-1.7-4-2.9-5.8L170.3,339.9z"/>
	<path class="st0" d="M180.8,344.6c-1.3,2.1-3.4,4.1-5.6,5.2c-0.2-0.3-0.6-0.8-1-1.1c2.1-1,4.2-2.8,5.3-4.6L180.8,344.6z
		 M180.1,334.7c-1.3,1.5-3.2,2.9-4.8,3.9c-0.2-0.3-0.6-0.7-1-1c1.6-0.8,3.5-2.2,4.5-3.4L180.1,334.7z M180.4,339.7
		c-1.2,1.6-3.1,3.2-4.8,4.2c-0.3-0.3-0.6-0.8-1-1c1.6-0.8,3.6-2.3,4.6-3.7L180.4,339.7z M184.6,347.9c-1.2,0.9-3,1.8-4.6,2.3
		c-0.2-0.3-0.6-0.7-0.8-1c1.5-0.5,3.4-1.4,4.2-2.1L184.6,347.9z M184.4,337.5c0.1-0.5,0.3-1.1,0.4-1.6h-4.2v-1.2h10.1v1.2h-4.3
		c-0.2,0.6-0.4,1.1-0.5,1.6h4.2v9.3h-8.6v-9.3H184.4z M188.7,338.6h-6v1.7h6V338.6z M188.7,341.3h-6v1.8h6V341.3z M188.7,344h-6v1.8
		h6V344z M187.5,347.3c1.2,0.6,2.8,1.5,3.6,2.2l-1,0.8c-0.8-0.7-2.4-1.7-3.6-2.3L187.5,347.3z"/>
</g>
<path class="st4" d="M191.1,355.1H157c-7.1,0-12.9-5.8-12.9-12.9v0c0-7.1,5.8-12.9,12.9-12.9h34.1c7.1,0,12.9,5.8,12.9,12.9v0
	C204,349.3,198.3,355.1,191.1,355.1z"/>
</svg>
