<?xml version="1.0" encoding="utf-8"?>
<!-- Generator: Adobe Illustrator 27.6.1, SVG Export Plug-In . SVG Version: 6.00 Build 0)  -->
<svg version="1.1" id="レイヤー_1" xmlns="http://www.w3.org/2000/svg" xmlns:xlink="http://www.w3.org/1999/xlink" x="0px"
	 y="0px" width="750px" height="710px" viewBox="0 0 750 710" style="enable-background:new 0 0 750 710;" xml:space="preserve">
<style type="text/css">
	.st0{fill:#00AA32;}
	.st1{fill:#FFFFFF;}
	.st2{fill:#808080;stroke:#000000;stroke-miterlimit:10;}
	.st3{fill:#4D4D4D;}
	.st4{fill:none;stroke:#00AA32;stroke-width:1.5;stroke-miterlimit:10;}
</style>
<g>
	<g>
		<path class="st0" d="M559.4,708.3l-361.6-1.7c-19.3,0-35-15.7-34.9-35.1l0,0c0-19.3,15.7-35,35.1-34.9l361.6,1.7
			c19.3,0,35,15.7,34.9,35.1l0,0C594.4,692.7,578.7,708.3,559.4,708.3z"/>
	</g>
	<g>
		<path class="st1" d="M320,683.1h-11.4v1.2h-3.4v-13.1c-0.2,0.2-0.5,0.4-0.7,0.5c-0.3-0.5-1.1-1.4-1.7-2v11h-5.4v2.3h-2.9v-7.6
			c-0.3,0.6-0.7,1.1-1.1,1.6c-0.3-0.8-1.3-2.6-1.9-3.4c2.1-3,3.3-7.5,4-12.4h-2.9V658h10.7v1h6.1c0.3-0.9,0.6-1.8,0.8-2.8l3.4,0.6
			c-0.2,0.8-0.4,1.5-0.6,2.2h6.9v5.5h-3.1V662h-4.9c-0.5,1.3-1.2,2.6-1.9,3.7h2.4c0.4-1,0.8-2.1,1.1-3l3.2,0.7
			c-0.4,0.8-0.8,1.6-1.1,2.3h3.8v2.9h-4.5v2h3.9v2.6h-3.9v2.1h3.9v2.6h-3.9v2.1h5.2L320,683.1z M299.8,669.8h-2.4v7.7h2.4V669.8z
			 M302.8,668.5c2.2-1.6,4-3.9,5.4-6.5h-2.1v2.5h-3v-3.2h-4.2c-0.3,1.9-0.6,3.7-1.1,5.5h5.1L302.8,668.5z M308.5,680.2h2.9v-2.1
			h-2.9V680.2z M311.5,673.3h-2.9v2.1h2.9V673.3z M311.5,668.7h-2.9v2h2.9V668.7z"/>
		<path class="st1" d="M339.4,664.1h-10.9v-2.8h10.9V664.1z M338.6,680.9c1.1-1.5,1.7-3.9,1.9-6.2l2.8,0.7c-0.3,2.7-0.9,5.5-2.3,7.3
			l-2.4-1.5v1.5h-5.9v1.2h-2.9v-10.2h8.8V680.9z M329.8,669.5h8.7v2.7h-8.7V669.5z M338.6,668.1h-8.7v-2.7h8.7V668.1z M338.5,659.9
			H330v-2.7h8.5V659.9z M335.6,676.5h-2.9v3.5h2.9V676.5z M341.9,661.3c0.9,0.3,1.9,0.6,2.8,1c0.2-0.6,0.3-1.3,0.5-1.9h-4.5v-3h14.9
			c0,0,0,0.9,0,1.3c-0.3,6.8-0.6,9.6-1.4,10.5c-0.6,0.7-1.1,1-2,1.1c-0.7,0.1-2,0.1-3.2,0.1c-0.1-1-0.4-2.3-0.8-3.1
			c-0.5-0.3-1-0.7-1.6-1c-1.1,1.9-2.7,3.6-5.2,4.9c-0.4-0.8-1.3-2-2-2.5c2.1-1,3.4-2.3,4.3-3.8c-1.1-0.5-2.2-0.9-3.3-1.3
			L341.9,661.3z M349,681c0.6,0,0.7-0.4,0.8-3.1c0.6,0.5,2,1.1,2.9,1.3c-0.3,3.9-1.2,4.9-3.3,4.9h-2.5c-2.8,0-3.4-1-3.4-4v-6.6h3.3
			v6.5c0,0.8,0.1,0.9,0.6,0.9L349,681z M346.3,669.4c1.9,1,4.2,2.5,5.4,3.8l-2.2,2.3c-1-1.2-3.3-2.9-5.2-4L346.3,669.4z
			 M348.4,660.5c-0.2,1.1-0.4,2.2-0.8,3.2c1,0.5,2,1,2.7,1.5l-1.4,2.3c0.6,0,1.1,0,1.4,0c0.4,0,0.7-0.1,0.9-0.4
			c0.4-0.5,0.7-2.2,0.9-6.7L348.4,660.5z M353.7,674.1c1.6,2.3,2.8,5.3,3.3,7.4l-3.2,1.3c-0.3-2.1-1.5-5.3-3-7.6L353.7,674.1z"/>
		<path class="st1" d="M391.9,658.2v3.3h-11.8v2.4h5.5v13.6h-14.3v-13.6h5.2v-2.4H365v-3.3H391.9z M387.6,663.5h3.5v20.9h-3.5v-1.7
			h-18.1v1.8H366v-20.9h3.5v15.8h18.1V663.5z M374.2,674.6h2.6v-2.5h-2.6V674.6z M374.2,669.3h2.6v-2.5h-2.6V669.3z M382.5,672.1
			h-2.6v2.5h2.6V672.1z M382.5,666.8h-2.6v2.5h2.6V666.8z"/>
		<path class="st1" d="M415.9,661.5c-0.3,0.9-0.6,1.8-0.8,2.7h11.4v20.2h-3.6v-1.5h-17.3v1.5h-3.4v-20.2h9.2
			c0.2-0.9,0.4-1.8,0.5-2.7H401v-3.4l27,0.1v3.4L415.9,661.5z M405.6,679.7h3.1v-12.1h-3.1V679.7z M411.8,679.7h4.6v-2.2h-4.6V679.7
			z M416.4,672.4h-4.6v2.3h4.6V672.4z M416.4,667.5h-4.6v2.1h4.6V667.5z M422.9,667.6h-3.2v12.1h3.2V667.6z"/>
		<path class="st1" d="M438.5,670.7c1.4-1.4,3.7-4.5,5.6-6.7c2.1-2.4,4.1-2.6,6.2-0.4c2,2,4.4,5.1,6.2,7c1.9,2.1,4.5,4.8,7.3,7.4
			l-3.1,3.6c-2.2-2-4.7-5-6.6-7.2s-4.1-5.1-5.5-6.7c-1-1.2-1.6-1-2.5,0.1c-1.2,1.5-3.3,4.5-4.6,6.2c-0.7,1-1.4,2.1-1.9,2.8l-3.7-3.8
			C436.8,672.3,437.6,671.6,438.5,670.7z"/>
	</g>
</g>
<g>
	<path class="st2" d="M749.1,322.9v133.9v44v43.4H273.9v-43.4v-44V322.9H749.1 M750,322.2H273v134.5v44v44h477v-44v-44V322.2
		L750,322.2z"/>
</g>
<g>
	<path class="st2" d="M749.1,243v42.7H273.9V243H749.1 M750,242.3H273v44h477V242.3L750,242.3z"/>
</g>
<g>
	<path class="st2" d="M749.1,163.1v42.7H273.9v-42.7H749.1 M750,162.4H273v44h477V162.4L750,162.4z"/>
</g>
<g>
	<path class="st2" d="M749.1,83.2v42.7H273.9V83.2H749.1 M750,82.6H273v44h477V82.6L750,82.6z"/>
</g>
<g>
	<path class="st2" d="M749.1,3.3V46H273.9V3.3H749.1 M750,2.7H273v44h477V2.7L750,2.7z"/>
</g>
<g>
	<path class="st3" d="M9.8,20.1c0,0.6-0.1,1.7-0.1,2.9c1.9-0.3,4.1-0.6,5.6-1.1V24c-1.7,0.5-3.8,0.8-5.7,0.9c0,1.2,0,2.6,0,3.6
		c0,0.3,0,0.6,0,0.9c2.1-0.6,4.2-1.1,6-1.1c3.9,0,6.8,2.1,6.8,5.4c0,3.3-2.1,5.4-5.7,6.3c-1.2,0.3-2.4,0.3-3.3,0.5l-0.8-2.2
		c1,0,2.1,0,3.1-0.2c2.4-0.4,4.5-1.8,4.5-4.2c0-2.2-2.1-3.6-4.6-3.6c-2.1,0-3.9,0.4-5.9,1.1c0,2.2,0.1,4.7,0.1,5.8
		c0,2.6-0.9,3.3-2.4,3.3c-2.1,0-5.5-2.1-5.5-4.5c0-2.2,2.8-4.7,5.9-5.9c0-0.4,0-1.1,0-1.5c0-1.1,0-2.4,0-3.6c-0.8,0-1.5,0.2-1.9,0.2
		c-1.5,0-2.6,0-3.5-0.2V23c1.4,0.3,2.4,0.3,3.3,0.3c0.6,0,1.3,0,2.1-0.2c0-1.3,0-2.5,0-3.1s0-1.5-0.1-2h2.4
		C9.9,18.6,9.8,19.4,9.8,20.1z M6.8,38.3c0.6,0,1-0.5,1-1.3c0-0.9,0-2.9-0.2-4.8c-2.2,1.1-3.9,2.6-3.9,3.8
		C3.8,37.2,5.7,38.3,6.8,38.3z M24.4,25.1l-1,1.8c-1.4-1.2-4.4-3.2-6-4.1l0.9-1.6C20.2,22.2,23.2,24,24.4,25.1z"/>
	<path class="st3" d="M49.9,41.9H48v-1.2H36.9v1h-2v-8.5c-2.1,1.2-4.3,2.2-6.6,3c-0.3-0.6-0.8-1.4-1.2-1.8c3.4-1.1,6.9-2.8,10.1-5.2
		c-1.2-1.3-3.2-3.2-4.9-4.5c-1.1,0.9-2.3,1.7-3.6,2.4c-0.3-0.5-0.9-1.2-1.3-1.5c4.5-2.4,7.5-5.9,9-8.9l2.2,0.5
		c-0.5,0.8-0.9,1.5-1.5,2.2h7.7l0.4-0.2l1.4,0.8c-1.7,4.1-4.2,7.4-7.4,9.9h11.1v12H49.9z M35.6,21.6c-0.6,0.8-1.2,1.4-2,2
		c1.8,1.2,3.9,3,5.1,4.3c2-1.8,3.8-3.9,4.8-6.3C43.5,21.6,35.6,21.6,35.6,21.6z M48,38.9v-6.6H36.9v6.6H48z"/>
	<path class="st3" d="M77.1,21.5v1.8h-24v-1.8h6.6c-0.4-1.1-1.5-2.6-2.4-3.6l1.8-0.8c1.1,1.2,2.2,2.7,2.7,3.8l-1.4,0.5h8.1
		c0.9-1.4,2-3.2,2.6-4.4l2.1,0.8c-0.8,1.2-1.7,2.6-2.4,3.6h6.3V21.5z M64.6,39.5c0,1-0.3,1.5-0.9,1.8c-0.8,0.3-1.9,0.3-3.8,0.3
		c-0.1-0.4-0.4-1.2-0.6-1.8c1.4,0,2.5,0,2.9,0c0.4,0,0.4-0.2,0.4-0.5v-3.6h-6v5.8h-1.9V25.7h9.9V39.5z M56.7,27.5v2.7h6v-2.7H56.7z
		 M62.7,34.4v-2.7h-6v2.7H62.7z M69.8,37h-1.8V26h1.8V37z M73.4,25.1h1.9v14.2c0,1.2-0.3,1.8-1.1,2.1c-0.9,0.3-2.2,0.4-4.2,0.3
		c-0.2-0.6-0.4-1.3-0.8-1.9c1.6,0,3.1,0,3.4,0c0.4,0,0.6-0.2,0.6-0.6V25.1z"/>
	<g>
		<path class="st0" d="M113.5,25.9c-0.6,3-1.7,6.9-3.2,9.1l-1.8-0.8c1.5-2.2,2.5-6,3.1-8.8L113.5,25.9z M125.1,39.6
			c1.5,0,1.8-0.9,1.9-5.1c0.6,0.5,1.4,0.8,2,0.9c-0.3,4.8-0.9,6.3-3.9,6.3h-5.4c-2.8,0-3.8-0.8-3.8-3.5v-1.5c-1.9,1.3-3.9,2.5-6,3.5
			c-0.3-0.5-0.9-1.2-1.3-1.5c2.5-1.2,5.1-2.7,7.3-4.4V23.7h2.1v8.9c4.6-4.1,8.4-8.9,11-13.8l1.9,0.8c-3,5.8-7.4,11.2-12.9,15.6v3
			c0,1.2,0.3,1.5,1.8,1.5H125.1z M122.7,23.9c-1.5-1.3-4.5-3.6-6.8-5.1l1.3-1.5c2.2,1.5,5.2,3.8,6.8,4.9L122.7,23.9z M129.3,26.3
			c1.8,2.7,3.6,6.2,4.4,8.5l-1.9,0.9c-0.8-2.4-2.6-6-4.4-8.7L129.3,26.3z"/>
		<path class="st0" d="M145,33.5c-1.9,3.1-5.1,6.1-8.4,7.8c-0.3-0.5-0.9-1.2-1.5-1.7c3.1-1.5,6.3-4.2,8-6.9L145,33.5z M144,18.5
			c-2,2.2-4.8,4.4-7.2,5.9c-0.3-0.4-0.9-1.1-1.5-1.5c2.4-1.2,5.2-3.3,6.8-5.1L144,18.5z M144.5,26c-1.8,2.4-4.7,4.8-7.2,6.3
			c-0.5-0.4-0.9-1.2-1.5-1.5c2.4-1.2,5.4-3.4,6.9-5.6L144.5,26z M150.8,38.3c-1.8,1.3-4.5,2.7-6.9,3.5c-0.3-0.5-0.9-1.1-1.2-1.5
			c2.2-0.8,5.1-2.1,6.3-3.2L150.8,38.3z M150.5,22.7c0.1-0.8,0.4-1.7,0.6-2.4h-6.3v-1.8h15.1v1.8h-6.4c-0.3,0.9-0.6,1.7-0.8,2.4h6.3
			v14h-12.9V22.7C146.1,22.7,150.5,22.7,150.5,22.7z M156.9,24.4h-9v2.6h9V24.4z M156.9,28.4h-9v2.7h9V28.4z M156.9,32.5h-9v2.7h9
			V32.5z M155.1,37.4c1.8,0.9,4.2,2.2,5.4,3.3l-1.5,1.2c-1.2-1-3.6-2.5-5.4-3.4L155.1,37.4z"/>
	</g>
	<path class="st4" d="M160.5,49.1h-51.1C98.7,49.1,90,40.4,90,29.8l0,0c0-10.6,8.7-19.3,19.4-19.3h51.1c10.6,0,19.4,8.7,19.4,19.3
		l0,0C179.9,40.4,171.1,49.1,160.5,49.1z"/>
</g>
<g>
	<path class="st3" d="M1.2,114.9L0,113.1c2.2-1.2,5.4-3.6,6.9-5.2l1.2,1.7C6.6,111,3.9,113.3,1.2,114.9z M11.5,114.3
		c1.2,0,2.7-0.5,2.7-2.2s-2-4.2-3.5-5.9c-0.6-0.6-1.3-1.3-2.1-2.1l1.6-1.3c0.6,0.8,1.4,1.3,1.9,2.1c2.6,2.7,4.4,5,4.4,7.5
		c0,3.3-2.7,4-4.7,4c-1.6,0-3.1-0.1-4.4-0.5l-0.3-2.2C8.5,114,9.9,114.3,11.5,114.3z M14.4,99.3c-1.2-0.9-3.8-2.2-5.7-3.1l1.2-1.5
		c2.1,0.9,5.1,2.4,6.6,3.6l0.5,1.3c-0.6,0.6-2.1,1.8-3.1,2.4l-1.3-1.2C13.2,100.2,14,99.6,14.4,99.3z M18.3,106.1l1.8-1
		c1.8,2.2,3.9,6,4.8,8.4l-2,1C22,112.1,20.2,108.2,18.3,106.1z"/>
	<path class="st3" d="M30.9,101.7c1-2.7,3.9-6.1,7.3-6.1c3.6,0,6.2,3.6,6.2,9.3c0,7.5-4.7,10.8-11.4,12l-1.2-1.9
		c5.9-0.9,10.5-3.3,10.5-10.1c0-4.2-1.5-7.3-4.4-7.3c-3.4,0-6.5,5-6.9,8.4c-0.1,1-0.1,1.9,0,3.3l-2.1,0.2c-0.1-1-0.3-2.5-0.3-4.3
		c0-2.6,0.4-6.6,0.9-8.7c0.1-0.8,0.1-1.6,0.1-2.2l2.4,0.2C31.7,96.2,31.1,99.8,30.9,101.7z"/>
	<path class="st3" d="M58.8,96.2c-0.2,0.8-0.5,2.4-0.8,3.9c1.2-0.1,2.4-0.1,3-0.1c2.4,0,4.3,0.9,4.3,4.6c0,3.1-0.4,7.5-1.5,9.8
		c-0.9,1.8-2.2,2.2-3.9,2.2c-1.1,0-2.2-0.1-3.2-0.5l-0.3-2.2c1.2,0.3,2.5,0.6,3.3,0.6c1.1,0,1.8-0.1,2.4-1.3
		c0.9-1.8,1.2-5.4,1.2-8.2c0-2.4-1.2-2.8-2.9-2.8c-0.6,0-1.8,0.1-2.9,0.1c-1.1,3.9-2.9,10-5.7,14.5l-2.2-0.9
		c2.7-3.6,4.8-9.9,5.7-13.5c-1.5,0.2-2.7,0.3-3.4,0.3c-0.6,0.1-1.8,0.1-2.4,0.3l-0.3-2.2c0.9,0,1.5,0,2.4,0s2.4-0.1,4.1-0.3
		c0.4-2,0.8-4.1,0.8-5.9l2.5,0.3C58.9,95.1,58.9,95.6,58.8,96.2z M73.4,107.3l-2.1,1c-0.8-2.9-2.9-7.5-4.8-9.8l1.9-0.9
		C70.1,99.9,72.4,104.7,73.4,107.3z M70.9,97.5l-1.5,0.6c-0.6-1-1.5-2.7-2.2-3.8l1.5-0.6C69.4,94.7,70.4,96.3,70.9,97.5z M73.9,96.3
		l-1.5,0.6c-0.6-1.2-1.5-2.7-2.2-3.8l1.5-0.6C72.4,93.6,73.5,95.3,73.9,96.3z"/>
	<path class="st3" d="M84.8,98.3c1.4-0.2,2.9-0.6,4.2-1v2.1c-1.5,0.4-3.1,0.8-4.9,1c-1.4,3.8-3.8,8.6-5.9,11.4l-2.1-1
		c2.2-2.5,4.5-6.9,5.8-10c-0.8,0-1.6,0.2-2.4,0.2c-1.1,0-2.1,0-3.1-0.2l-0.2-2.1c1.1,0.1,2.1,0.1,3.3,0.1c0.9,0,1.9,0,3-0.1
		c0.4-1.5,0.8-3.2,0.9-4.7l2.4,0.2C85.6,95.1,85.2,96.6,84.8,98.3z M92.2,105.3c0,1,0.1,2.7,0.1,4.5c2.2,0.9,4.2,2.1,5.6,3.3
		l-1.2,1.8c-1.2-1-2.5-2.2-4.3-3.1c0,0.4,0,0.8,0,1.2c0,2.1-1.3,3.9-4.8,3.9c-3,0-5.4-1.2-5.4-3.9c0-2.5,2.4-4,5.4-4
		c0.9,0,1.8,0.1,2.7,0.3c-0.2-2.2-0.3-4.9-0.3-6.8h2.1C92.1,103.5,92.1,104.4,92.2,105.3z M87.4,114.9c2.2,0,3-1.2,3-2.7
		c0-0.3,0-0.8,0-1.2c-0.9-0.3-1.8-0.5-2.8-0.5c-2,0-3.3,0.9-3.3,2.1C84.3,114,85.4,114.9,87.4,114.9z M91.4,99.5l1-1.6
		c2,0.9,5,2.5,6.3,3.6l-1.2,1.8C96.1,101.9,93.3,100.2,91.4,99.5z"/>
	<g>
		<path class="st0" d="M130.4,103.1c-0.6,3-1.6,6.9-3.2,9.1l-1.8-0.8c1.5-2.2,2.5-6,3.1-8.8L130.4,103.1z M141.9,116.9
			c1.5,0,1.8-0.9,2-5.1c0.6,0.5,1.4,0.8,1.9,0.9c-0.3,4.8-0.9,6.3-3.9,6.3h-5.4c-2.9,0-3.8-0.8-3.8-3.4V114c-2,1.3-3.9,2.5-6,3.5
			c-0.3-0.5-0.9-1.2-1.4-1.5c2.6-1.2,5.1-2.7,7.4-4.4V101h2.1v8.9c4.6-4.1,8.4-8.9,10.9-13.8l2,0.8c-3,5.9-7.4,11.2-12.9,15.6v3
			c0,1.2,0.3,1.5,1.8,1.5C136.7,116.9,141.9,116.9,141.9,116.9z M139.6,101.1c-1.5-1.3-4.5-3.6-6.8-5.1l1.4-1.5
			c2.2,1.5,5.2,3.8,6.8,5L139.6,101.1z M146.1,103.5c1.8,2.7,3.6,6.2,4.4,8.5l-2,0.9c-0.8-2.4-2.5-6-4.4-8.7L146.1,103.5z"/>
		<path class="st0" d="M161.9,110.7c-2,3.1-5.1,6.1-8.4,7.8c-0.3-0.5-0.9-1.2-1.5-1.7c3.1-1.5,6.3-4.2,7.9-6.9L161.9,110.7z
			 M160.8,95.7c-1.9,2.2-4.8,4.4-7.2,5.9c-0.3-0.5-0.9-1.1-1.5-1.5c2.4-1.2,5.2-3.3,6.8-5.1L160.8,95.7z M161.2,103.2
			c-1.8,2.4-4.6,4.8-7.2,6.3c-0.4-0.5-0.9-1.2-1.5-1.5c2.4-1.2,5.4-3.5,6.9-5.5L161.2,103.2z M167.5,115.7c-1.8,1.3-4.5,2.7-6.9,3.4
			c-0.3-0.4-0.9-1-1.2-1.5c2.2-0.8,5.1-2.1,6.3-3.1L167.5,115.7z M167.4,100.1c0.1-0.8,0.5-1.6,0.6-2.4h-6.3v-1.8h15.1v1.7h-6.5
			c-0.3,0.9-0.6,1.7-0.8,2.4h6.3v13.9H163V99.9h4.4V100.1z M173.9,101.6h-9v2.5h9V101.6z M173.9,105.6h-9v2.7h9V105.6z M173.9,109.7
			h-9v2.7h9V109.7z M171.9,114.6c1.8,0.9,4.2,2.2,5.4,3.3l-1.5,1.2c-1.2-1-3.6-2.5-5.4-3.4L171.9,114.6z"/>
	</g>
	<path class="st4" d="M177.5,126.3h-51.2c-10.7,0-19.3-8.7-19.3-19.4l0,0c0-10.6,8.7-19.3,19.3-19.3h51.2c10.6,0,19.3,8.7,19.3,19.3
		l0,0C196.8,117.8,188.1,126.3,177.5,126.3z"/>
</g>
<g>
	<path class="st3" d="M19.8,177.4c-0.9,2.4-2.2,5.4-4,7.9c2.4,2,4.8,4.1,6.6,6.2l-1.6,1.8c-2-2.2-4-4.2-6.3-6.2
		c-2.6,3-5.9,6.3-10.7,8.7l-1.8-1.6c4.8-2.2,8.1-5.2,10.7-8.6c-1.9-1.7-5-3.9-7.6-5.4l1.3-1.7c2.2,1.5,5.4,3.8,7.6,5.4
		c1.8-2.5,2.9-5.1,3.6-7.3c0.1-0.6,0.4-1.3,0.6-1.9l2.5,0.9C20.4,175.9,20.1,176.8,19.8,177.4z"/>
	<path class="st3" d="M28.8,183.6h14.9c1.3,0,2.2-0.2,2.8-0.2v2.7c-0.6,0-1.7-0.1-2.8-0.1H28.8c-1.5,0-2.9,0-3.8,0.1v-2.7
		C25.9,183.4,27.3,183.6,28.8,183.6z"/>
	<path class="st3" d="M52.8,187.8c0.8-2.4,0.8-7.8,0.8-10.8c0-0.8-0.2-1.3-0.2-1.9H56c0,0.3-0.1,1.2-0.1,1.9c0,3-0.1,8.8-0.9,11.6
		c-0.8,2.8-2.6,5.5-4.8,7.5l-2.1-1.4C50.4,192.9,51.9,190.3,52.8,187.8z M60.6,193v-16.2c0-1-0.1-1.8-0.1-2H63c0,0.2-0.1,0.9-0.1,2
		v15.6c2.5-1.2,5.9-3.6,8-6.6l1.2,1.8c-2.2,3.2-6.1,6-9.1,7.5c-0.5,0.3-0.8,0.5-0.9,0.6l-1.5-1.2C60.6,194.1,60.6,193.6,60.6,193z"
		/>
	<path class="st3" d="M93.3,177.9c-1.1,1.8-3.6,5.2-6.8,7.5l-1.8-1.5c2.6-1.5,4.9-4.3,5.9-6H75.3c-1.1,0-2.1,0-3.2,0.2v-2.4
		c0.9,0.2,2.1,0.3,3.2,0.3h15.4c0.4,0,1.5-0.2,1.9-0.2l1.4,1.2C93.8,177.1,93.4,177.6,93.3,177.9z M75.8,196.2l-1.9-1.7
		c0.8-0.3,1.6-0.6,2.4-1.2c4.2-2.5,4.8-6.4,4.8-10.9c0-0.6,0-1.2-0.1-1.9h2.4C83.2,187.8,82.6,192.7,75.8,196.2z"/>
	<path class="st3" d="M100.5,177.4c0-0.8,0-1.9-0.1-2.8h2.7c-0.1,0.9-0.1,2-0.1,2.8v4.3c3.6,1,8.7,3,11.5,4.5l-0.9,2.2
		c-2.8-1.7-7.6-3.5-10.6-4.3v8.8c0,0.9,0.1,2.2,0.1,3.2h-2.5c0.1-0.9,0.1-2.2,0.1-3.2v-15.6H100.5z M112.5,179.8l-1.5,0.8
		c-0.8-1.3-1.5-2.8-2.4-4l1.5-0.6C110.7,176.7,111.9,178.5,112.5,179.8z M115.8,178.3l-1.5,0.8c-0.8-1.5-1.7-2.8-2.5-4l1.5-0.8
		C114,175.3,115.2,177.1,115.8,178.3z"/>
	<path class="st3" d="M122.1,192.9v-15.4c0-0.8-0.2-1.9-0.3-2.4h2.7c-0.2,0.8-0.2,1.7-0.2,2.4v15.3c5.1-1.4,11.4-4.8,14.7-9.2l1.2,2
		c-3.5,4.3-9,7.7-15.8,9.6c-0.3,0.2-0.8,0.2-1.2,0.4l-1.5-1.3C122.1,193.8,122.1,193.5,122.1,192.9z"/>
	<path class="st3" d="M159.1,178.2c-0.9,2.2-2.5,5.6-4.5,7.9c2.9,2.4,6.1,6,8,8.1l-2,1.6c-1.8-2.4-4.6-5.5-7.5-7.9
		c-2.9,3.2-6.6,6.2-10.5,7.9l-1.8-1.8c4.4-1.7,8.4-5,11.1-8c1.8-2.1,3.8-5.2,4.5-7.5H146c-0.9,0-2.4,0.2-2.7,0.2v-2.4
		c0.5,0,2,0.2,2.7,0.2h10.5c0.9,0,1.6-0.2,2.1-0.2l1.4,1.1C159.6,177.3,159.3,177.9,159.1,178.2z"/>
	<g>
		<path class="st0" d="M193.3,182.8c-0.6,3-1.6,6.9-3.1,9.2l-1.8-0.8c1.5-2.2,2.6-6,3.1-8.8L193.3,182.8z M204.8,196.6
			c1.5,0,1.8-0.9,2-5.1c0.6,0.4,1.3,0.8,1.9,0.9c-0.3,4.8-0.9,6.3-3.9,6.3h-5.2c-2.8,0-3.8-0.8-3.8-3.4v-1.4c-2,1.4-3.9,2.6-6,3.5
			c-0.3-0.5-0.9-1.2-1.4-1.5c2.6-1.2,5.1-2.7,7.4-4.3v-10.7h2.1v8.8c4.7-4.1,8.4-8.8,10.9-13.8l2,0.8c-3,5.9-7.3,11.2-12.9,15.6v3
			c0,1.2,0.3,1.5,1.8,1.5h5.1V196.6z M202.5,180.9c-1.5-1.3-4.5-3.6-6.8-5.1l1.3-1.5c2.2,1.5,5.2,3.8,6.8,4.9L202.5,180.9z
			 M209.1,183.3c1.8,2.7,3.6,6.1,4.3,8.5l-2,0.9c-0.8-2.4-2.5-6-4.3-8.7L209.1,183.3z"/>
		<path class="st0" d="M224.8,190.5c-1.9,3.1-5.1,6.1-8.4,7.8c-0.3-0.5-0.9-1.2-1.5-1.7c3.2-1.5,6.3-4.2,8-6.9L224.8,190.5z
			 M223.8,175.5c-1.9,2.2-4.8,4.3-7.2,5.8c-0.3-0.4-0.9-1-1.5-1.5c2.4-1.2,5.2-3.3,6.8-5.1L223.8,175.5z M224.2,183
			c-1.8,2.4-4.7,4.8-7.2,6.3c-0.4-0.5-0.9-1.2-1.5-1.5c2.4-1.2,5.4-3.5,6.9-5.5L224.2,183z M230.5,195.3c-1.8,1.3-4.5,2.7-6.9,3.4
			c-0.3-0.4-0.9-1.1-1.2-1.5c2.2-0.8,5.1-2.1,6.3-3.2L230.5,195.3z M230.2,179.7c0.2-0.8,0.5-1.7,0.6-2.4h-6.3v-1.8h15.2v1.8h-6.5
			c-0.3,0.9-0.6,1.7-0.8,2.4h6.3v13.9h-12.9v-13.9H230.2z M236.7,181.3h-9v2.5h9V181.3z M236.7,185.4h-9v2.7h9V185.4z M236.7,189.4
			h-9v2.7h9V189.4z M234.8,194.4c1.8,0.9,4.2,2.2,5.4,3.3l-1.5,1.2c-1.2-1-3.6-2.5-5.4-3.4L234.8,194.4z"/>
	</g>
	<path class="st4" d="M240.3,206.1h-51.1c-10.6,0-19.4-8.7-19.4-19.3l0,0c0-10.7,8.7-19.3,19.4-19.3h51.1c10.7,0,19.4,8.7,19.4,19.3
		l0,0C259.7,197.4,251,206.1,240.3,206.1z"/>
</g>
<g>
	<path class="st3" d="M11.2,258.1H2.8v3.8H1v-5.2h10.3v-1.7H2.6v-1.5h19.7v1.5h-9v1.7h10.5v5.2h-1.8v-3.8h-8.7v6.2h-2V258.1z
		 M21.2,275c1.5,0,1.6-0.4,1.8-3.1c0.5,0.3,1.2,0.6,1.8,0.6c-0.3,3.3-0.9,4-3.5,4h-6.1c-3,0-3.9-0.4-3.9-2.7V273h-6v1.3h-2V265h18.2
		v7.9h-8.2v0.9c0,0.9,0.3,1.1,2.1,1.1h5.9V275z M3.8,262.3h6.1v1.2H3.8V262.3z M9.9,260.8H4.2v-1.2h5.7V260.8z M5.2,266.6v1.8h6
		v-1.8H5.2z M11.2,271.8v-1.8h-6v1.8H11.2z M19.7,266.6h-6.5v1.8h6.5V266.6z M19.7,271.8v-1.8h-6.5v1.8H19.7z M20.4,259.6v1.2h-5.7
		v-1.2H20.4z M14.7,262.3h6.5v1.2h-6.5V262.3z"/>
	<path class="st3" d="M26.8,256.9h10v1.6H26.8C26.8,258.5,26.8,256.9,26.8,256.9z M36.2,275.6H30v1.2h-1.8v-9h7.9
		C36.1,267.8,36.1,275.6,36.2,275.6z M36,262.1h-7.8v-1.6H36V262.1z M28.2,264.2H36v1.6h-7.8V264.2z M36,254.8h-7.7v-1.7H36V254.8z
		 M29.8,269.5v4.5h4.5v-4.5H29.8z M45.4,262v4.5h5.1v10.2h-2v-1.2h-8.1v1.3h-1.9v-10.3h4.8V262h-6.3v-2h6.3v-4.3
		c-1.8,0.2-3.5,0.4-5.1,0.4c0-0.4-0.3-1.2-0.6-1.7c4.1-0.4,8.9-1.1,11.6-1.9l1.5,1.6c-1.5,0.4-3.4,0.9-5.4,1.2v4.7h6.3v1.9L45.4,262
		L45.4,262z M48.4,268.5h-7.9v5.4h7.9V268.5z"/>
	<path class="st3" d="M69.4,261.5c2.4,2.1,6.2,3.9,9.4,5c-0.4,0.4-1,1.2-1.3,1.6c-0.8-0.3-1.7-0.6-2.6-0.9v9.8H73v-0.8H60v0.9h-1.9
		v-9.9c-0.9,0.4-2,0.9-2.9,1.2c-0.3-0.4-0.8-1.2-1.2-1.6c3.1-1.1,6.9-3,9.3-5.2h-8.6v-1.8h5.9c-0.5-1.1-1.2-2.2-2-3.3l1.7-0.6
		c-1.2,0.2-2.4,0.2-3.6,0.2c0-0.4-0.1-1.2-0.4-1.5c6.4-0.3,14.1-0.9,18.3-1.8l1.3,1.5c-2.2,0.4-5.2,0.9-8.5,1.2v4.5h3.8l-0.8-0.3
		c0.8-1.1,1.8-2.9,2.2-4.2l2.1,0.6c-0.8,1.3-1.8,2.8-2.6,3.9h6.2v1.8h-8.9V261.5z M74.1,266.6c-2.6-1.4-5.1-3-6.9-4.9v4.3h-1.9v-4.3
		c-1.8,1.8-4.1,3.4-6.5,4.8h15.3V266.6z M65.4,268.3H60v2.2h5.4V268.3z M60,274.5h5.4v-2.6H60V274.5z M65.4,255.6
		c-1.6,0.2-3.4,0.3-5.1,0.3c0.9,1.1,1.8,2.6,2.1,3.6l-1,0.4h3.9v-4.3H65.4z M73.2,268.3h-5.8v2.2h5.8V268.3z M73.2,274.5v-2.6h-5.8
		v2.6H73.2z"/>
	<path class="st3" d="M89.2,265.1c-0.3,0.8-0.6,1.6-0.8,2.4H102c0,0,0,0.6-0.1,0.9c-0.8,4.7-1.4,6.8-2.4,7.7
		c-0.6,0.6-1.2,0.8-2.2,0.8c-0.9,0-2.7,0-4.7-0.2c0-0.6-0.3-1.3-0.8-1.9c2,0.1,3.9,0.1,4.7,0.1c0.6,0,0.9,0,1.3-0.3
		c0.8-0.6,1.2-2.1,1.8-5.6H87.8c-0.3,0.8-0.4,1.4-0.8,1.8l-2.1-0.5c0.6-1.5,1.5-3.8,2.1-5.7h-5.9v-1.8h24.2v1.8h-16V265.1z
		 M102,261.2H84.9v-8H102V261.2z M99.9,255.2h-13v4.3h13V255.2z"/>
	<g>
		<path class="st0" d="M136.2,262.6c-0.6,3-1.7,6.9-3.2,9.2l-1.8-0.8c1.5-2.2,2.5-6,3.1-8.9L136.2,262.6z M147.6,276.5
			c1.5,0,1.8-0.9,1.9-5.1c0.6,0.4,1.4,0.8,2,0.9c-0.3,4.8-0.9,6.3-3.9,6.3h-5.4c-2.9,0-3.8-0.8-3.8-3.4v-1.4c-1.9,1.4-3.9,2.6-6,3.4
			c-0.3-0.4-0.9-1.2-1.4-1.5c2.6-1.2,5.1-2.7,7.4-4.3v-10.7h2.1v8.8c4.6-4,8.4-8.8,11-13.8l1.9,0.8c-3,5.8-7.4,11.2-12.9,15.6v3
			c0,1.2,0.3,1.5,1.8,1.5h5.2V276.5z M145.4,260.8c-1.5-1.3-4.5-3.6-6.8-5.1l1.4-1.5c2.2,1.5,5.2,3.8,6.8,4.9L145.4,260.8z
			 M152,263.2c1.8,2.7,3.6,6.2,4.3,8.6l-1.9,0.9c-0.8-2.4-2.6-6-4.4-8.7L152,263.2z"/>
		<path class="st0" d="M167.7,270.2c-2,3.1-5.1,6.1-8.4,7.8c-0.3-0.4-0.9-1.2-1.5-1.6c3.2-1.5,6.3-4.2,8-6.9L167.7,270.2z
			 M166.6,255.2c-1.9,2.3-4.8,4.3-7.2,5.8c-0.3-0.4-0.9-1.1-1.5-1.5c2.4-1.2,5.2-3.3,6.8-5.1L166.6,255.2z M167.1,262.9
			c-1.8,2.4-4.6,4.8-7.2,6.3c-0.4-0.4-0.9-1.2-1.5-1.5c2.4-1.2,5.4-3.4,6.9-5.6L167.1,262.9z M173.4,275.2c-1.8,1.3-4.5,2.7-6.9,3.4
			c-0.3-0.4-0.9-1.1-1.2-1.5c2.2-0.8,5.1-2.1,6.3-3.1L173.4,275.2z M173.1,259.6c0.1-0.8,0.4-1.7,0.6-2.4h-6.3v-1.8h15.1v1.8h-6.4
			c-0.3,0.9-0.6,1.7-0.8,2.4h6.3v13.9h-12.9v-13.9L173.1,259.6L173.1,259.6z M179.5,261.1h-9v2.6h9V261.1z M179.5,265.1h-9v2.7h9
			V265.1z M179.5,269.3h-9v2.7h9V269.3z M177.6,274.3c1.8,0.9,4.2,2.2,5.4,3.3l-1.5,1.2c-1.2-1-3.6-2.5-5.4-3.4L177.6,274.3z"/>
	</g>
	<path class="st4" d="M183.1,286H132c-10.6,0-19.4-8.7-19.4-19.4l0,0c0-10.7,8.7-19.3,19.4-19.3h51.1c10.6,0,19.4,8.7,19.4,19.3l0,0
		C202.5,277.3,193.8,286,183.1,286z"/>
</g>
<path class="st3" d="M9.8,334.5c0,0.6-0.1,1.7-0.1,2.9c1.9-0.3,4.1-0.6,5.6-1.1v2.1c-1.7,0.5-3.8,0.8-5.7,0.9c0,1.2,0,2.6,0,3.6
	c0,0.3,0,0.6,0,0.9c2.1-0.6,4.2-1.1,6-1.1c3.9,0,6.8,2.1,6.8,5.4c0,3.3-2.1,5.4-5.7,6.3c-1.2,0.3-2.4,0.3-3.3,0.4l-0.8-2.2
	c1,0,2.1,0,3.1-0.2c2.4-0.4,4.5-1.8,4.5-4.2c0-2.2-2.1-3.6-4.6-3.6c-2.1,0-3.9,0.4-5.9,1.1c0,2.2,0.1,4.7,0.1,5.8
	c0,2.6-0.9,3.3-2.4,3.3c-2.1,0-5.5-2.1-5.5-4.5c0-2.2,2.8-4.7,5.9-5.9c0-0.4,0-1.1,0-1.5c0-1.1,0-2.4,0-3.6c-0.8,0-1.5,0.2-1.9,0.2
	c-1.5,0-2.6,0-3.5-0.2v-2.1c1.5,0.2,2.4,0.2,3.5,0.2c0.6,0,1.3,0,2.1-0.2c0-1.3,0-2.6,0-3.2c0-0.6,0-1.5-0.2-1.9H10
	C9.9,333,9.8,333.8,9.8,334.5z M6.8,352.7c0.6,0,1-0.4,1-1.3c0-0.9,0-2.9-0.2-4.8c-2.2,1.1-3.9,2.6-3.9,3.8
	C3.8,351.6,5.7,352.7,6.8,352.7z M24.4,339.5l-1,1.8c-1.4-1.2-4.4-3.2-6-4.1l0.9-1.6C20.2,336.6,23.2,338.5,24.4,339.5z"/>
<path class="st3" d="M30,342.2v14.1h-1.9v-23.5h9.8v9.4L30,342.2L30,342.2z M30,334.4v2.2h5.8v-2.2H30z M35.8,340.5v-2.4H30v2.4
	H35.8z M35.7,352.4v1.6h-1.8v-9.4h10v7.8L35.7,352.4L35.7,352.4z M35.7,346.3v4.5H42v-4.5H35.7z M50.1,353.6c0,1.3-0.3,1.9-1.2,2.4
	c-0.9,0.3-2.5,0.3-4.8,0.3c-0.2-0.6-0.5-1.5-0.8-2.1c1.8,0.1,3.5,0,4,0c0.5,0,0.6-0.2,0.6-0.8v-11.3h-8v-9.4H50v20.9H50.1z
	 M42,334.4v2.2h6v-2.2H42z M48,340.5V338h-6v2.5H48z"/>
<path class="st3" d="M57.1,338c0,1.6,0,4.2,0.1,6.4c0.4,4.5,1.8,7.5,3.6,7.5c1.4,0,2.7-2.8,3.3-5.6l1.7,1.9
	c-1.7,4.7-3.3,6.2-5.1,6.2c-2.5,0-4.9-2.6-5.7-9.6c-0.3-2.4-0.3-5.7-0.3-7.2c0-0.6,0-1.8-0.1-2.4h2.5C57.3,336,57.1,337.3,57.1,338z
	 M76.2,349.5l-2.1,0.9c-0.5-4.9-2.1-10.5-4.7-13.7l2.1-0.8C73.8,339.2,75.8,344.9,76.2,349.5z"/>
<path class="st3" d="M91.8,331.7c2.8,3.9,7.7,7.7,11.8,9.6c-0.4,0.5-0.9,1.2-1.3,1.8c-4.2-2.2-8.8-6-11.4-9.5
	c-2.2,3.3-6.6,7.2-11.2,9.6c-0.3-0.4-0.8-1.2-1.2-1.6c4.7-2.4,9.2-6.5,11.2-9.9H91.8z M82.8,345.5h16.3v10.8H97v-1.1H84.6v1.1h-2
	v-10.8H82.8z M97.8,340.4v1.8H84.3v-1.8H97.8z M84.8,347.3v6h12.5v-6H84.8z"/>
<path class="st3" d="M111.9,332.8l2.6,0.1c-0.2,0.8-0.3,2.2-0.6,4.1h0.1l0.8,0.9c-0.3,0.4-0.8,1.2-1.2,1.9c0,0.6-0.2,1.2-0.2,1.8
	c3-2.4,6-3.4,8.5-3.4c3.8,0,7,2.7,7,6.9c0,5.4-3.9,8.2-9.9,9.4l-1-2.1c4.5-0.6,8.7-2.8,8.7-7.5c0-2.1-1.6-4.8-5.2-4.8
	c-3.1,0-6,1.5-8.4,3.9c0,1.2-0.1,2.2-0.1,3.2c0,2.4,0,4.1,0.1,6.4c0,0.4,0.1,1.2,0.1,1.6h-2.4c0-0.4,0.1-1.2,0.1-1.6
	c0-2.6,0-3.9,0.2-6.9c0-0.3,0-0.6,0-1.1c-1.3,2-3.2,4.5-4.3,6.5l-1.4-1.8c1.5-1.9,4.6-6.1,6-8.2c0-0.9,0.1-1.8,0.1-2.5
	c-1.2,0.1-3.6,0.4-5.2,0.8l-0.1-2.2c0.6,0,1,0,1.8,0c0.9,0,2.5-0.3,3.9-0.5c0.1-1.2,0.1-2.2,0.1-2.5
	C111.9,334.1,111.9,333.5,111.9,332.8z"/>
<path class="st3" d="M150.6,335.3c0,1.2,0,2.6,0,3.8c1-0.1,2.1-0.1,3-0.1c0.8,0,1.5-0.1,2.1-0.1v2.1c-0.5,0-1.5,0-2.1,0
	c-0.8,0-1.8,0.2-3,0.2c0,1.9-0.1,4.3-0.5,5.7c-0.3,1.2-0.9,1.5-2.1,1.5c-0.9,0-2.8-0.3-3.6-0.4v-1.8c0.9,0.2,2.1,0.3,2.7,0.3
	s0.9-0.2,1.1-0.8c0.1-0.9,0.3-2.7,0.3-4.5c-2.8,0.1-6,0.6-8.7,0.8c0,2.8,0,5.5,0,6.6c0.1,2.8,0.1,3.9,4.8,3.9c2.9,0,6.3-0.3,8-0.6
	l-0.1,2.2c-1.8,0.1-5.1,0.4-7.8,0.4c-6.3,0-6.9-1.5-6.9-5.7c0-1.2,0-4.1,0-6.8c-1.2,0.1-2.2,0.3-2.9,0.3c-0.9,0.2-1.9,0.3-2.7,0.4
	l-0.1-1.9c0.9,0,1.8,0,2.9-0.2c0.8,0,1.8-0.1,3-0.3c0-1.8,0-3.3,0-3.8c0-0.9,0-1.5-0.1-2.2h2.4c0,0.6-0.1,1.3-0.1,2.2
	c0,0.9,0,2.2,0,3.6c2.7-0.3,5.8-0.6,8.7-0.8v-3.9c0-0.6,0-1.5-0.1-2.1h2.2C150.8,333.8,150.8,334.7,150.6,335.3z"/>
<path class="st3" d="M181.2,353.6c0,1.3-0.3,1.9-1.2,2.2c-0.9,0.3-2.5,0.3-5,0.3c-0.1-0.6-0.4-1.5-0.8-2.1c2,0.2,3.8,0.2,4.4,0
	c0.5,0,0.6-0.2,0.6-0.8v-15.4h-7.8c0,1.1-0.2,2.2-0.5,3.4c2.7,2.4,6,5.6,7.6,7.5l-1.6,1.3c-1.4-1.8-4-4.5-6.6-6.9
	c-1,2.6-3,5.1-6.6,7.2c-0.3-0.4-0.9-1.2-1.5-1.5c6-3.2,6.9-7.7,7.1-11.1h-7.8V356h-1.9v-19.8h9.8v-4.7h1.9v4.7h9.8v17.4H181.2z"/>
<path class="st3" d="M197.8,340.1c2.8,3.4,7.5,6.6,11.6,8.2c-0.5,0.4-0.9,1.2-1.2,1.8c-1.2-0.6-2.5-1.3-3.8-2.1v7.9h-2v-0.8h-10.9
	v0.9h-1.9v-7.8c-1.2,0.8-2.4,1.5-3.6,2.1c-0.1-0.4-0.8-1.2-1.2-1.7c4.5-2.1,9-5.7,11.1-8.7H197.8z M187.6,338.9h-1.9v-4.8h10.1v-2.6
	h2.1v2.6H208v4.8H206v-3h-18.5v3H187.6z M194.4,337.9c-1.8,2.4-4.5,4.6-6.9,6c-0.3-0.5-0.9-1.2-1.5-1.5c2.4-1.2,4.9-3.2,6.4-5.1
	L194.4,337.9z M203,347.3c-2.4-1.6-4.7-3.4-6-5.2c-1.2,1.7-3.3,3.6-5.7,5.2H203z M202.3,353.6v-4.5h-10.9v4.5H202.3z M200.5,337.1
	c2.4,1.5,5.6,3.6,7.1,5.2l-1.5,1.3c-1.5-1.5-4.5-3.9-6.9-5.4L200.5,337.1z"/>
<g>
	<path class="st0" d="M26.6,390.8c-0.6,3-1.7,6.9-3.2,9.1l-1.8-0.8c1.5-2.2,2.5-6,3.2-8.9L26.6,390.8z M38.2,404.7
		c1.5,0,1.8-0.9,2-5.1c0.6,0.4,1.3,0.8,2,0.9c-0.3,4.8-0.9,6.3-3.9,6.3h-5.4c-2.8,0-3.8-0.8-3.8-3.4v-1.4c-2,1.4-3.9,2.6-6,3.4
		c-0.3-0.4-0.9-1.2-1.3-1.5c2.5-1.2,5.1-2.7,7.3-4.3V389h2.1v8.8c4.7-4,8.4-8.8,11-13.8l2,0.8c-3,5.8-7.3,11.2-12.9,15.6v3
		c0,1.2,0.3,1.5,1.8,1.5h5.3V404.7z M35.8,389c-1.5-1.3-4.5-3.6-6.8-5.1l1.3-1.5c2.2,1.5,5.2,3.8,6.8,4.9L35.8,389z M42.4,391.2
		c1.8,2.7,3.6,6.2,4.3,8.6l-2,0.9c-0.8-2.4-2.5-6-4.3-8.7L42.4,391.2z"/>
	<path class="st0" d="M58.1,398.4c-2,3.1-5.1,6.1-8.4,7.8c-0.3-0.4-0.9-1.2-1.5-1.6c3.2-1.5,6.3-4.2,8-6.9L58.1,398.4z M57.1,383.4
		c-2,2.2-4.8,4.3-7.2,5.8c-0.3-0.4-0.9-1.1-1.5-1.5c2.4-1.2,5.2-3.3,6.8-5.1L57.1,383.4z M57.5,391.1c-1.8,2.4-4.7,4.8-7.2,6.3
		c-0.5-0.4-0.9-1.2-1.5-1.5c2.4-1.2,5.4-3.4,6.9-5.6L57.5,391.1z M63.8,403.4c-1.8,1.3-4.5,2.7-6.9,3.4c-0.3-0.4-0.9-1.1-1.2-1.5
		c2.2-0.8,5.1-2.1,6.3-3.1L63.8,403.4z M63.5,387.8c0.2-0.8,0.5-1.7,0.6-2.4h-6.3v-1.8H73v1.8h-6.5c-0.3,0.9-0.6,1.7-0.8,2.4h6.3
		v13.9H59.2v-13.9H63.5z M70,389.3h-9v2.5h9V389.3z M70,393.3h-9v2.7h9V393.3z M70,397.5h-9v2.7h9V397.5z M68.2,402.5
		c1.8,0.9,4.2,2.2,5.4,3.3l-1.5,1.2c-1.2-1-3.6-2.5-5.4-3.4L68.2,402.5z"/>
</g>
<path class="st4" d="M73.6,414.2H22.4c-10.7,0-19.3-8.7-19.3-19.4l0,0c0-10.6,8.7-19.4,19.3-19.4h51.2c10.7,0,19.3,8.7,19.3,19.4
	l0,0C92.9,405.5,84.4,414.2,73.6,414.2z"/>
</svg>
