<?xml version="1.0" encoding="utf-8"?>
<!-- Generator: Adobe Illustrator 27.5.0, SVG Export Plug-In . SVG Version: 6.00 Build 0)  -->
<svg version="1.1" id="レイヤー_1" xmlns="http://www.w3.org/2000/svg" xmlns:xlink="http://www.w3.org/1999/xlink" x="0px"
	 y="0px" width="960px" height="140px" viewBox="0 0 960 140" style="enable-background:new 0 0 960 140;" xml:space="preserve">
<style type="text/css">
	.st0{fill:#EFFAF2;}
</style>
<path class="st0" d="M93.1,111.3H46L36.5,140H16.6L61.7,11.9h15.7L122.6,140h-19.8L93.1,111.3z M87.8,94.1L69.8,38h-0.3l-18,56.1
	H87.8z"/>
<path class="st0" d="M197.5,69.5h44.1v26.1c-0.2,12.8-4.5,23.6-12.8,32.2s-18.8,13-31.5,13.3c-9.8-0.2-17.9-2.7-24.4-7.4
	c-6.6-4.5-11.5-9.7-14.5-15.6c-0.9-1.9-1.7-3.8-2.5-5.5c-0.7-1.8-1.2-4.1-1.7-6.9c-0.9-5.2-1.3-15.1-1.3-29.7
	c0-14.9,0.4-24.8,1.3-29.9c0.9-5,2.3-9.1,4.2-12.2c3-5.9,7.8-11.2,14.5-15.8c6.5-4.7,14.7-7.1,24.4-7.2c12,0.1,21.7,3.8,29.3,11
	c7.5,7.3,12.3,16.3,14.3,27H221c-1.5-5.2-4.3-9.6-8.4-13.2c-4.2-3.5-9.3-5.3-15.3-5.4c-4.4,0.1-8.2,1-11.4,2.7
	c-3.2,1.8-5.9,4-7.8,6.6c-2.4,2.8-4.1,6.3-4.9,10.7c-0.9,4.6-1.4,13.2-1.4,25.8s0.5,21.2,1.4,25.6c0.8,4.5,2.4,8.1,4.9,10.8
	c2,2.6,4.6,4.8,7.8,6.4c3.2,1.9,7,2.9,11.4,2.9c7.3,0,13.4-2.6,18.2-7.8c4.8-4.9,7.2-11.4,7.3-19.5v-6.7h-25.3V69.5z"/>
<path class="st0" d="M285.5,11.9H334c10.3,0,18.8,2.8,25.3,8.4c7.9,6.4,12,15.5,12.3,27.3c-0.2,17.4-8.2,29.2-24,35.5l28.7,56.9H354
	l-25.7-54.8h-24.1V140h-18.8V11.9H285.5z M304.3,68h28.5c7.1-0.1,12.3-2.2,15.9-6.3c3.5-3.8,5.2-8.5,5.2-14.1
	c-0.1-6.7-2.2-11.5-6.2-14.5c-3.2-2.6-7.8-4-13.8-4h-29.5V68H304.3z"/>
<path class="st0" d="M416,11.9h18.8V140H416V11.9z"/>
<path class="st0" d="M549,111.3h-47l-9.5,28.7h-19.9l45.1-128.1h15.7L578.5,140h-19.8L549,111.3z M543.7,94.1l-18-56.1h-0.3
	l-18,56.1H543.7z"/>
<path class="st0" d="M617.1,11.9h48.5c10.3,0,18.8,2.8,25.3,8.4c7.9,6.4,12,15.5,12.3,27.3c-0.2,17.4-8.2,29.2-24,35.5L708,140
	h-22.3L660,85.2h-24.1V140h-18.8L617.1,11.9L617.1,11.9z M635.9,68h28.5c7.1-0.1,12.3-2.2,15.9-6.3c3.5-3.8,5.2-8.5,5.2-14.1
	c-0.1-6.7-2.2-11.5-6.2-14.5c-3.2-2.6-7.8-4-13.8-4H636V68H635.9z"/>
<path class="st0" d="M771.5,29.1h-34V11.9h86.9v17.2h-34V140h-18.8V29.1H771.5z"/>
<path class="st0" d="M864.8,108.9c9.9,8.4,21.6,12.7,35.3,12.8c16.1-0.2,24.3-6.2,24.5-17.9c0.1-9.6-5.3-15.3-16.2-17.2
	c-5-0.7-10.5-1.5-16.4-2.4c-10.7-1.8-18.8-5.9-24.4-12.2c-5.7-6.5-8.6-14.4-8.6-23.8c0-11.2,3.6-20.2,10.8-27.1
	c7-6.8,16.9-10.3,29.7-10.4c15.4,0.4,28.8,4.8,40.2,13.2l-10.5,16c-9.3-6.3-19.6-9.6-30.8-9.9c-5.8,0-10.6,1.5-14.5,4.5
	c-4,3.1-6.1,7.7-6.2,13.9c0,3.7,1.4,7,4.2,10s7.2,5.2,13.4,6.3c3.4,0.6,8.1,1.3,14,2c11.6,1.6,20.2,6,25.8,12.9
	c5.5,6.9,8.3,14.8,8.3,23.9c-0.6,24.5-15.1,36.9-43.6,37.3c-18.4,0-34.2-5.8-47.4-17.5L864.8,108.9z"/>
</svg>
